<svg xmlns="http://www.w3.org/2000/svg" xmlns:xlink="http://www.w3.org/1999/xlink" viewBox="0 0 444 280"><defs><style>.cls-1,.cls-10,.cls-100,.cls-101,.cls-11,.cls-12,.cls-13,.cls-14,.cls-15,.cls-16,.cls-17,.cls-18,.cls-19,.cls-20,.cls-21,.cls-22,.cls-23,.cls-24,.cls-25,.cls-26,.cls-27,.cls-28,.cls-29,.cls-30,.cls-31,.cls-32,.cls-33,.cls-34,.cls-35,.cls-36,.cls-37,.cls-38,.cls-39,.cls-40,.cls-41,.cls-42,.cls-43,.cls-44,.cls-45,.cls-46,.cls-47,.cls-48,.cls-49,.cls-50,.cls-51,.cls-52,.cls-53,.cls-54,.cls-55,.cls-56,.cls-57,.cls-58,.cls-59,.cls-60,.cls-61,.cls-62,.cls-63,.cls-64,.cls-65,.cls-66,.cls-67,.cls-68,.cls-69,.cls-70,.cls-71,.cls-72,.cls-73,.cls-74,.cls-75,.cls-76,.cls-77,.cls-78,.cls-79,.cls-80,.cls-81,.cls-82,.cls-83,.cls-84,.cls-85,.cls-86,.cls-87,.cls-88,.cls-89,.cls-9,.cls-90,.cls-91,.cls-92,.cls-93,.cls-94,.cls-95,.cls-96,.cls-97,.cls-98,.cls-99{fill:none;}.cls-2{isolation:isolate;}.cls-3{mix-blend-mode:color-burn;}.cls-4{clip-path:url(#clip-path);}.cls-5{fill:url(#linear-gradient);}.cls-6{fill:url(#linear-gradient-2);}.cls-7{fill:url(#linear-gradient-3);}.cls-8{mix-blend-mode:overlay;opacity:0.57;}.cls-10,.cls-100,.cls-101,.cls-11,.cls-12,.cls-13,.cls-14,.cls-15,.cls-16,.cls-17,.cls-18,.cls-19,.cls-20,.cls-21,.cls-22,.cls-23,.cls-24,.cls-25,.cls-26,.cls-27,.cls-28,.cls-29,.cls-30,.cls-31,.cls-32,.cls-33,.cls-34,.cls-35,.cls-36,.cls-37,.cls-38,.cls-39,.cls-40,.cls-41,.cls-42,.cls-43,.cls-44,.cls-45,.cls-46,.cls-47,.cls-48,.cls-49,.cls-50,.cls-51,.cls-52,.cls-53,.cls-54,.cls-55,.cls-56,.cls-57,.cls-58,.cls-59,.cls-60,.cls-61,.cls-62,.cls-63,.cls-64,.cls-65,.cls-66,.cls-67,.cls-68,.cls-69,.cls-70,.cls-71,.cls-72,.cls-73,.cls-74,.cls-75,.cls-76,.cls-77,.cls-78,.cls-79,.cls-80,.cls-81,.cls-82,.cls-83,.cls-84,.cls-85,.cls-86,.cls-87,.cls-88,.cls-89,.cls-9,.cls-90,.cls-91,.cls-92,.cls-93,.cls-94,.cls-95,.cls-96,.cls-97,.cls-98,.cls-99{stroke:#b0f4f0;stroke-miterlimit:10;}.cls-9{stroke-width:0.37px;}.cls-10{stroke-width:0.37px;}.cls-11{stroke-width:0.37px;}.cls-12{stroke-width:0.36px;}.cls-13{stroke-width:0.36px;}.cls-14{stroke-width:0.36px;}.cls-15{stroke-width:0.36px;}.cls-16{stroke-width:0.35px;}.cls-17{stroke-width:0.35px;}.cls-18{stroke-width:0.35px;}.cls-19{stroke-width:0.35px;}.cls-20{stroke-width:0.34px;}.cls-21{stroke-width:0.34px;}.cls-22{stroke-width:0.34px;}.cls-23{stroke-width:0.34px;}.cls-24{stroke-width:0.33px;}.cls-25{stroke-width:0.33px;}.cls-26{stroke-width:0.33px;}.cls-27{stroke-width:0.33px;}.cls-28{stroke-width:0.32px;}.cls-29{stroke-width:0.32px;}.cls-30{stroke-width:0.32px;}.cls-31{stroke-width:0.31px;}.cls-32{stroke-width:0.31px;}.cls-33{stroke-width:0.31px;}.cls-34{stroke-width:0.31px;}.cls-35{stroke-width:0.3px;}.cls-36{stroke-width:0.3px;}.cls-37{stroke-width:0.3px;}.cls-38{stroke-width:0.3px;}.cls-39{stroke-width:0.29px;}.cls-40{stroke-width:0.29px;}.cls-41{stroke-width:0.29px;}.cls-42{stroke-width:0.29px;}.cls-43{stroke-width:0.28px;}.cls-44{stroke-width:0.28px;}.cls-45{stroke-width:0.28px;}.cls-46{stroke-width:0.28px;}.cls-47{stroke-width:0.27px;}.cls-48{stroke-width:0.27px;}.cls-49{stroke-width:0.27px;}.cls-50{stroke-width:0.27px;}.cls-51{stroke-width:0.26px;}.cls-52{stroke-width:0.26px;}.cls-53{stroke-width:0.26px;}.cls-54{stroke-width:0.26px;}.cls-100,.cls-101,.cls-55,.cls-56,.cls-57,.cls-58,.cls-59,.cls-60,.cls-61,.cls-62,.cls-63,.cls-64,.cls-65,.cls-66,.cls-67,.cls-68,.cls-69,.cls-70,.cls-71,.cls-72,.cls-73,.cls-74,.cls-75,.cls-76,.cls-77,.cls-78,.cls-79,.cls-80,.cls-81,.cls-82,.cls-83,.cls-84,.cls-85,.cls-86,.cls-87,.cls-88,.cls-89,.cls-90,.cls-91,.cls-92,.cls-93,.cls-94,.cls-95,.cls-96,.cls-97,.cls-98,.cls-99{stroke-width:0.25px;}.cls-56{opacity:0.98;}.cls-57{opacity:0.96;}.cls-58{opacity:0.94;}.cls-59{opacity:0.92;}.cls-60{opacity:0.9;}.cls-61{opacity:0.88;}.cls-62{opacity:0.86;}.cls-63{opacity:0.84;}.cls-64{opacity:0.82;}.cls-65{opacity:0.8;}.cls-66{opacity:0.78;}.cls-67{opacity:0.76;}.cls-68{opacity:0.74;}.cls-69{opacity:0.72;}.cls-70{opacity:0.7;}.cls-71{opacity:0.68;}.cls-72{opacity:0.66;}.cls-73{opacity:0.64;}.cls-74{opacity:0.62;}.cls-75{opacity:0.6;}.cls-76{opacity:0.58;}.cls-77{opacity:0.56;}.cls-78{opacity:0.54;}.cls-79{opacity:0.52;}.cls-80{opacity:0.5;}.cls-81{opacity:0.48;}.cls-82{opacity:0.46;}.cls-83{opacity:0.44;}.cls-84{opacity:0.42;}.cls-85{opacity:0.4;}.cls-86{opacity:0.38;}.cls-87{opacity:0.36;}.cls-88{opacity:0.34;}.cls-89{opacity:0.32;}.cls-90{opacity:0.3;}.cls-91{opacity:0.28;}.cls-92{opacity:0.26;}.cls-93{opacity:0.24;}.cls-94{opacity:0.22;}.cls-95{opacity:0.2;}.cls-96{opacity:0.18;}.cls-97{opacity:0.16;}.cls-98{opacity:0.14;}.cls-99{opacity:0.12;}.cls-100{opacity:0.1;}.cls-101{opacity:0.08;}</style><clipPath id="clip-path"><rect class="cls-1" width="444" height="280"/></clipPath><linearGradient id="linear-gradient" x1="518.91" y1="38.81" x2="-38.63" y2="359.83" gradientTransform="matrix(-1, 0, 0, 1, 565.17, 0)" gradientUnits="userSpaceOnUse"><stop offset="0" stop-color="#2090ff"/><stop offset="0.13" stop-color="#1f8bfb"/><stop offset="0.28" stop-color="#1b7bef"/><stop offset="0.45" stop-color="#1562db"/><stop offset="0.63" stop-color="#0c3fc0"/><stop offset="0.82" stop-color="#01139d"/><stop offset="0.84" stop-color="#000d99"/></linearGradient><linearGradient id="linear-gradient-2" x1="184.54" y1="84.24" x2="486.6" y2="101.37" gradientTransform="matrix(1.99, -1.16, -0.86, 2.13, -201.54, 228.4)" gradientUnits="userSpaceOnUse"><stop offset="0" stop-color="#1c80f2"/><stop offset="0.36" stop-color="#1b7ef0"/><stop offset="0.53" stop-color="#1a76eb"/><stop offset="0.66" stop-color="#1669e1"/><stop offset="0.77" stop-color="#1257d2"/><stop offset="0.86" stop-color="#0c3fc0"/><stop offset="0.95" stop-color="#0522a9"/><stop offset="1" stop-color="#000d99"/></linearGradient><linearGradient id="linear-gradient-3" x1="304.84" y1="66.16" x2="576.55" y2="13.45" gradientUnits="userSpaceOnUse"><stop offset="0" stop-color="#1c80f2"/><stop offset="0.17" stop-color="#1973e8"/><stop offset="0.48" stop-color="#1152cf"/><stop offset="0.89" stop-color="#041da5"/><stop offset="1" stop-color="#000d99"/></linearGradient></defs><g class="cls-2"><g id="Layer_1" data-name="Layer 1"><g class="cls-3"><g class="cls-4"><rect class="cls-5" width="444" height="280"/><path id="_Path_" data-name="&lt;Path&gt;" class="cls-6" d="M458.92,234.3,112.61-118.26c-8.74-8.89-32.57,1.65-58.14,25.72h0C17.28-57.51-6.79-10.36,5.92,2.58L352.23,355.14c8.74,8.9,32.57-1.65,58.13-25.72h0C447.56,294.39,471.63,247.24,458.92,234.3Z"/><polygon class="cls-7" points="612.16 155.5 323 -158.4 222 -66.73 511.16 247.17 612.16 155.5"/><g class="cls-8"><path class="cls-9" d="M440.42,243.2s-10-8.43-22,2.11c-16.09,14.19-34.75,1.44-57.76-1.73-27-3.72-23.53,2.42-38.54,17-10.8,10.48-23.64,4.38-32,2.05-17-4.76-45.83-8.57-61.05-2.82-23.24,8.77-54,51.21-55.25,46.4"/><path class="cls-10" d="M439.31,242.94s-10-8.27-22,2c-16.15,13.86-35,1.38-57.84-1.68a97.82,97.82,0,0,0-11.87-1c-14.46-.11-14.51,6.12-26.83,17.8-10.87,10.32-23.74,4.28-32,1.93-17.21-4.92-45.92-8.61-61.11-2.56-11,4.39-23.1,14.68-33.26,24.78-12.85,12.78-22,24.27-22.74,21.58"/><path class="cls-11" d="M438.19,242.67s-10-8.1-22.08,2c-16.21,13.54-35.18,1.31-57.92-1.63a95.71,95.71,0,0,0-11.87-.92c-14.4,0-14.68,6.15-27,17.55-10.95,10.14-23.85,4.19-32.07,1.81-17.42-5-46-8.64-61.16-2.31-11.54,4.83-23.67,14.55-33.83,24.5-13.4,13.14-22.16,24.56-22.93,21.81"/><path class="cls-12" d="M437.08,242.4s-10-7.93-22.14,1.89c-16.27,13.21-35.4,1.25-58-1.59a93.53,93.53,0,0,0-11.87-.84c-14.35.06-14.85,6.18-27.15,17.3-11,10-23.95,4.08-32.11,1.68-17.63-5.18-46.1-8.65-61.22-2-12.06,5.26-24.25,14.4-34.4,24.21-13.94,13.49-22.31,24.85-23.13,22.05"/><path class="cls-13" d="M436,242.14s-10.05-7.77-22.19,1.81c-16.34,12.88-35.61,1.13-58.09-1.54a92,92,0,0,0-11.88-.78c-14.29.16-15,6.22-27.29,17.06-11.11,9.8-24.07,4-32.17,1.56-17.83-5.33-46.17-8.65-61.28-1.79a129.59,129.59,0,0,0-34.95,23.93c-14.5,13.84-22.48,25.14-23.33,22.28"/><path class="cls-14" d="M434.86,241.87s-10.06-7.59-22.25,1.73c-16.4,12.56-35.83,1.07-58.17-1.49a91.65,91.65,0,0,0-11.88-.7c-14.23.27-15.19,6.24-27.45,16.8-11.19,9.64-24.17,3.89-32.22,1.44-18-5.46-46.24-8.62-61.33-1.53A136.77,136.77,0,0,0,186,281.77c-15,14.2-22.63,25.44-23.52,22.52"/><path class="cls-15" d="M433.74,241.61s-10.06-7.43-22.3,1.65c-16.46,12.24-36,1-58.26-1.44a89.68,89.68,0,0,0-11.87-.63c-14.18.36-15.36,6.27-27.61,16.55-11.28,9.47-24.28,3.78-32.27,1.32-18.23-5.61-46.31-8.6-61.38-1.27-13.62,6.61-26,14-36.09,23.37-15.6,14.54-22.78,25.72-23.71,22.74"/><path class="cls-16" d="M432.63,241.34s-10.07-7.26-22.36,1.58c-16.52,11.91-36.26.92-58.34-1.39a88.17,88.17,0,0,0-11.87-.57c-14.13.46-15.54,6.31-27.77,16.31-11.36,9.3-24.38,3.67-32.32,1.19-18.42-5.75-46.38-8.55-61.44-1-14.13,7.08-26.57,13.81-36.64,23.09-16.17,14.89-22.94,26-23.91,23"/><path class="cls-17" d="M431.52,241.07s-10.08-7.09-22.42,1.51c-16.58,11.58-36.47.84-58.42-1.35a88,88,0,0,0-11.88-.49c-14.06.55-15.71,6.33-27.91,16.06-11.45,9.13-24.5,3.57-32.38,1.07-18.62-5.9-46.44-8.51-61.49-.76-14.65,7.55-27.16,13.65-37.21,22.81-16.73,15.23-23.1,26.3-24.11,23.21"/><path class="cls-18" d="M430.41,240.81s-10.09-6.93-22.47,1.43c-16.65,11.25-36.69.77-58.51-1.3a84.85,84.85,0,0,0-11.88-.42c-14,.64-15.9,6.35-28.07,15.8-11.54,9-24.6,3.47-32.43.95-18.82-6-46.5-8.45-61.55-.49s-27.75,13.49-37.77,22.52c-17.29,15.58-23.25,26.59-24.3,23.45"/><path class="cls-19" d="M429.29,240.54s-10.09-6.76-22.52,1.36c-16.71,10.92-36.91.7-58.59-1.26a84.57,84.57,0,0,0-11.88-.34c-14,.73-16.08,6.37-28.23,15.55-11.63,8.79-24.7,3.36-32.47.83-19-6.2-46.57-8.39-61.61-.24-15.67,8.5-28.35,13.33-38.34,22.24-17.85,15.92-23.4,26.89-24.49,23.68"/><path class="cls-20" d="M428.18,240.28s-10.1-6.6-22.58,1.27c-16.77,10.61-37.12.64-58.67-1.2a84.89,84.89,0,0,0-11.89-.28c-13.89.83-16.26,6.4-28.38,15.31-11.72,8.62-24.81,3.25-32.52.7-19.23-6.34-46.62-8.32-61.66,0-16.19,9-28.95,13.17-38.9,22C155.15,294.32,150,305.24,148.89,302"/><path class="cls-21" d="M427.07,240s-10.11-6.43-22.64,1.2c-16.83,10.28-37.34.56-58.76-1.15a81.73,81.73,0,0,0-11.88-.21c-13.84.92-16.45,6.42-28.53,15.06-11.82,8.44-24.92,3.14-32.58.58-19.43-6.5-46.67-8.25-61.72.28-16.69,9.46-29.54,13-39.46,21.67-19,16.6-23.72,27.47-24.88,24.15"/><path class="cls-22" d="M426,239.74s-10.12-6.26-22.7,1.13c-16.89,9.95-37.55.49-58.84-1.11a81.51,81.51,0,0,0-11.88-.13c-13.79,1-16.64,6.44-28.69,14.8s-25,3-32.63.46c-19.62-6.65-46.72-8.17-61.77.54-17.2,9.95-30.14,12.83-40,21.39-19.56,16.94-23.87,27.76-25.08,24.39"/><path class="cls-23" d="M424.84,239.48s-10.12-6.1-22.74,1.05c-17,9.62-37.78.42-58.93-1.06a80.29,80.29,0,0,0-11.88-.07c-13.73,1.1-16.84,6.47-28.85,14.56s-25.13,2.93-32.68.34c-19.82-6.8-46.77-8.09-61.82.79-17.7,10.45-30.75,12.66-40.6,21.11-20.13,17.28-24,28.05-25.27,24.62"/><path class="cls-24" d="M423.73,239.21s-10.13-5.93-22.8,1c-17,9.3-38,.36-59-1a80.22,80.22,0,0,0-11.89,0c-13.67,1.19-17,6.48-29,14.31-12.12,7.92-25.24,2.82-32.74.21-20-6.95-46.81-8-61.88,1.06-18.2,10.95-31.35,12.48-41.15,20.82-20.72,17.61-24.19,28.34-25.47,24.85"/><path class="cls-25" d="M422.62,239s-10.14-5.76-22.86.9c-17.08,9-38.21.29-59.09-1a78.84,78.84,0,0,0-11.89.08c-13.61,1.28-17.22,6.49-29.15,14.06-12.22,7.74-25.34,2.71-32.79.09-20.21-7.11-46.85-7.92-61.93,1.31-18.7,11.45-32,12.31-41.72,20.54-21.29,17.94-24.34,28.64-25.66,25.09"/><path class="cls-26" d="M421.51,238.68s-10.15-5.59-22.92.83c-17.14,8.64-38.42.22-59.17-.92a76.27,76.27,0,0,0-11.89.15c-13.56,1.36-17.42,6.5-29.31,13.8-12.32,7.57-25.45,2.6-32.83,0-20.42-7.27-46.91-7.82-62,1.58-19.2,12-32.57,12.13-42.29,20.25-21.87,18.27-24.49,28.93-25.86,25.32"/><path class="cls-27" d="M420.39,238.41s-10.15-5.42-23,.75c-17.2,8.32-38.64.16-59.26-.87a77.38,77.38,0,0,0-11.88.22c-13.51,1.46-17.62,6.52-29.47,13.56-12.43,7.39-25.55,2.49-32.88-.15-20.62-7.43-46.94-7.73-62.05,1.83-19.69,12.47-33.17,12-42.84,20-22.46,18.59-24.66,29.22-26.06,25.56"/><path class="cls-28" d="M419.28,238.15s-10.16-5.26-23,.67c-17.27,8-38.86.1-59.35-.82a75,75,0,0,0-11.89.29c-13.44,1.55-17.82,6.52-29.61,13.31-12.54,7.21-25.66,2.38-32.94-.28-20.81-7.58-47-7.63-62.1,2.09-20.18,13-33.78,11.79-43.41,19.69-23.05,18.92-24.81,29.51-26.25,25.79"/><path class="cls-29" d="M418.17,237.88s-10.17-5.09-23.08.6c-17.33,7.67-39.08,0-59.43-.78a74.89,74.89,0,0,0-11.89.37c-13.39,1.63-18,6.53-29.77,13.06-12.65,7-25.76,2.26-33-.4-21-7.75-47-7.54-62.15,2.35-20.68,13.5-34.4,11.6-44,19.4-23.63,19.24-25,29.8-26.44,26"/><path class="cls-30" d="M417.05,237.62s-10.17-4.93-23.13.52c-17.39,7.34-39.29,0-59.51-.73a73.85,73.85,0,0,0-11.89.43c-13.34,1.73-18.23,6.54-29.93,12.81-12.76,6.85-25.86,2.16-33-.52-21.2-7.9-47.05-7.44-62.21,2.61-21.16,14-35,11.43-44.54,19.12-24.22,19.55-25.11,30.1-26.63,26.26"/><path class="cls-31" d="M415.94,237.35s-10.18-4.76-23.19.45c-17.45,7-39.51-.1-59.59-.68a74.06,74.06,0,0,0-11.9.5c-13.27,1.81-18.43,6.54-30.08,12.56-12.87,6.66-26,2-33.09-.64-21.39-8.07-47.08-7.34-62.26,2.86-21.64,14.55-35.62,11.25-45.1,18.84-24.82,19.87-25.28,30.39-26.84,26.5"/><path class="cls-32" d="M414.83,237.08s-10.19-4.59-23.24.38c-17.52,6.68-39.73-.16-59.68-.64a72.74,72.74,0,0,0-11.9.58c-13.22,1.9-18.64,6.54-30.23,12.31-13,6.46-26.08,1.93-33.15-.77-21.59-8.23-47.12-7.23-62.32,3.13-22.12,15.07-36.22,11.06-45.66,18.55-25.42,20.18-25.43,30.68-27,26.73"/><path class="cls-33" d="M413.72,236.82s-10.2-4.43-23.3.3c-17.58,6.35-39.95-.22-59.77-.59a71.61,71.61,0,0,0-11.89.65c-13.17,2-18.85,6.53-30.39,12.06-13.11,6.27-26.18,1.81-33.19-.89-21.79-8.4-47.16-7.13-62.38,3.38C170.2,267.33,156,262.61,146.57,270c-26,20.49-25.58,31-27.22,27"/><path class="cls-34" d="M412.6,236.55s-10.2-4.26-23.35.22c-17.64,6-40.16-.27-59.85-.54a71.59,71.59,0,0,0-11.89.72C304.4,239,298.44,243.48,287,248.76c-13.22,6.08-26.28,1.7-33.24-1-22-8.56-47.18-7-62.43,3.64-23.08,16.14-37.46,10.7-46.8,18-26.61,20.78-25.74,31.25-27.41,27.19"/><path class="cls-35" d="M411.49,236.29s-10.21-4.1-23.41.14c-17.71,5.71-40.38-.34-59.93-.49a70.63,70.63,0,0,0-11.9.79c-13.05,2.16-19.27,6.52-30.7,11.56-13.34,5.88-26.38,1.59-33.29-1.13-22.17-8.74-47.21-6.92-62.49,3.9-23.54,16.67-38.06,10.51-47.35,17.71-27.22,21.08-25.9,31.54-27.62,27.43"/><path class="cls-36" d="M410.38,236s-10.22-3.92-23.47.07c-17.77,5.38-40.6-.4-60-.44a68.64,68.64,0,0,0-11.9.86c-13,2.24-19.49,6.51-30.85,11.31-13.46,5.68-26.49,1.47-33.35-1.26-22.37-8.9-47.24-6.81-62.54,4.16-24,17.22-38.68,10.33-47.92,17.43-27.82,21.38-26,31.84-27.81,27.66"/><path class="cls-37" d="M409.27,235.76s-10.23-3.76-23.52,0c-17.84,5.05-40.82-.46-60.1-.4a70.66,70.66,0,0,0-11.9.93c-12.94,2.34-19.7,6.5-31,11.07-13.58,5.47-26.59,1.35-33.4-1.38-22.56-9.08-47.26-6.7-62.59,4.41-24.49,17.76-39.3,10.14-48.49,17.15-28.43,21.67-26.2,32.13-28,27.9"/><path class="cls-38" d="M408.15,235.49s-10.23-3.59-23.57-.08c-17.9,4.73-41-.51-60.18-.35a68.59,68.59,0,0,0-11.9,1c-12.89,2.42-19.92,6.48-31.17,10.81-13.7,5.28-26.69,1.24-33.45-1.5-22.75-9.24-47.29-6.59-62.65,4.68-24.95,18.3-39.91,9.95-49,16.86-29,22-26.36,32.42-28.19,28.13"/><path class="cls-39" d="M407,235.22a46.39,46.39,0,0,0-23.63-.15c-18,4.4-41.25-.57-60.27-.31a68.72,68.72,0,0,0-11.9,1.08c-12.83,2.5-20.13,6.46-31.32,10.56-13.82,5.06-26.79,1.13-33.5-1.62-22.94-9.42-47.31-6.49-62.7,4.93-25.41,18.85-40.53,9.77-49.61,16.58-29.66,22.24-26.52,32.71-28.39,28.37"/><path class="cls-40" d="M405.93,235a49.45,49.45,0,0,0-23.69-.24c-18,4.08-41.47-.62-60.35-.25a68.83,68.83,0,0,0-11.9,1.14c-12.77,2.59-20.35,6.45-31.47,10.32-13.95,4.85-26.91,1-33.55-1.75-23.13-9.59-47.34-6.37-62.76,5.19-25.88,19.41-41.15,9.58-50.18,16.3-30.27,22.52-26.67,33-28.59,28.6"/><path class="cls-41" d="M404.82,234.69a52.94,52.94,0,0,0-23.75-.31c-18.08,3.75-41.68-.68-60.43-.2a67.94,67.94,0,0,0-11.9,1.21c-12.72,2.68-20.57,6.42-31.63,10.07-14.08,4.63-27,.89-33.6-1.87-23.32-9.78-47.37-6.26-62.82,5.45-26.33,20-41.76,9.39-50.74,16-30.89,22.8-26.83,33.3-28.78,28.83"/><path class="cls-42" d="M403.7,234.43a56.73,56.73,0,0,0-23.79-.39c-18.15,3.42-41.91-.73-60.52-.16a67,67,0,0,0-11.91,1.29c-12.66,2.76-20.77,6.4-31.78,9.81-14.2,4.41-27.11.78-33.65-2-23.51-10-47.39-6.15-62.87,5.71-26.79,20.51-42.39,9.2-51.3,15.73-31.52,23.07-27,33.59-29,29.07"/><path class="cls-43" d="M402.59,234.16a61.34,61.34,0,0,0-23.85-.46c-18.21,3.1-42.12-.79-60.6-.11A67,67,0,0,0,306.23,235c-12.6,2.84-21,6.36-31.94,9.56a51.2,51.2,0,0,1-33.7-2.12c-23.7-10.12-47.41-6-62.92,6-27.24,21.07-43,9-51.87,15.45-32.14,23.34-27.14,33.88-29.17,29.3"/><path class="cls-44" d="M401.48,233.89a66.73,66.73,0,0,0-23.91-.53c-18.27,2.77-42.34-.84-60.68-.07A67.05,67.05,0,0,0,305,234.72c-12.55,2.93-21.21,6.34-32.09,9.32a52.62,52.62,0,0,1-33.76-2.24c-23.88-10.31-47.43-5.92-63,6.23-27.69,21.63-43.62,8.81-52.43,15.16C91,286.8,96.43,297.36,94.35,292.73"/><path class="cls-45" d="M400.37,233.63a72.94,72.94,0,0,0-24-.61c-18.33,2.44-42.55-.9-60.77,0a66.1,66.1,0,0,0-11.9,1.5c-12.5,3-21.43,6.3-32.25,9.06a54,54,0,0,1-33.81-2.36c-24.07-10.49-47.44-5.8-63,6.49-28.14,22.19-44.24,8.63-53,14.88C88.25,286.43,94.19,297,92.08,292.34"/><path class="cls-46" d="M399.25,233.36a80.91,80.91,0,0,0-24-.68c-18.39,2.11-42.77-1-60.85,0a65.57,65.57,0,0,0-11.91,1.57c-12.44,3.09-21.64,6.26-32.4,8.81-14.7,3.49-27.51.31-33.86-2.48-24.25-10.68-47.46-5.7-63.09,6.74-28.58,22.76-44.85,8.44-53.55,14.6-34,24.12-27.61,34.75-29.76,30"/><path class="cls-47" d="M398.14,233.1a90.28,90.28,0,0,0-24.07-.77c-18.46,1.8-43-1-60.94.08a65.56,65.56,0,0,0-11.91,1.64c-12.38,3.18-21.86,6.23-32.56,8.57-14.83,3.24-27.61.19-33.9-2.61-24.44-10.86-47.49-5.58-63.15,7-29,23.32-45.48,8.24-54.12,14.31-34.67,24.37-27.76,35.05-29.95,30.24"/><path class="cls-48" d="M397,232.83A102.17,102.17,0,0,0,372.9,232c-18.52,1.47-43.21-1.05-61,.13A65.54,65.54,0,0,0,300,233.83c-12.33,3.26-22.08,6.19-32.71,8.32-15,3-27.72.07-34-2.73-24.63-11-47.5-5.47-63.2,7.26-29.47,23.89-46.1,8-54.69,14C80.1,285.32,87.5,296.05,85.27,291.19"/><path class="cls-49" d="M395.92,232.56a117.56,117.56,0,0,0-24.19-.91c-18.58,1.14-43.42-1.1-61.1.17a64.69,64.69,0,0,0-11.91,1.79c-12.28,3.34-22.29,6.14-32.87,8.06-15.08,2.74-27.82,0-34-2.85-24.81-11.24-47.52-5.35-63.26,7.52-29.9,24.47-46.71,7.86-55.25,13.75C77.38,284.94,85.26,295.72,83,290.8"/><path class="cls-50" d="M394.8,232.3a137.39,137.39,0,0,0-24.24-1c-18.64.81-43.64-1.15-61.18.22a64.94,64.94,0,0,0-11.92,1.86c-12.22,3.42-22.5,6.09-33,7.81-15.2,2.48-27.92-.16-34.06-3-25-11.43-47.53-5.24-63.31,7.78-30.34,25-47.34,7.65-55.81,13.46C74.66,284.55,83,295.39,80.72,290.42"/><path class="cls-51" d="M393.69,232a166.26,166.26,0,0,0-24.3-1.06c-18.7.48-43.85-1.2-61.27.27a64.06,64.06,0,0,0-11.91,1.92A250.28,250.28,0,0,1,263,240.73c-15.33,2.22-28-.28-34.12-3.1-25.17-11.62-47.55-5.12-63.36,8-30.78,25.61-48,7.46-56.38,13.18C71.93,284.16,80.8,295.06,78.45,290"/><path class="cls-52" d="M392.58,231.77a208.43,208.43,0,0,0-24.35-1.14c-18.77.16-44.07-1.25-61.36.31a64.1,64.1,0,0,0-11.91,2,211.88,211.88,0,0,1-33.33,7.32c-15.45,2-28.13-.41-34.17-3.22-25.35-11.82-47.56-5-63.42,8.29-31.21,26.19-48.57,7.27-56.94,12.9-37.9,25.53-28.54,36.5-30.92,31.42"/><path class="cls-53" d="M391.47,231.5s-10.35-1.09-24.41-1.22c-18.83-.16-44.29-1.25-61.44.37a64.08,64.08,0,0,0-11.91,2.07,182.24,182.24,0,0,1-33.49,7.06c-15.57,1.69-28.23-.52-34.22-3.34-25.52-12-47.57-4.89-63.47,8.56-31.64,26.76-49.2,7.07-57.5,12.62-38.56,25.74-28.7,36.79-31.12,31.64"/><path class="cls-54" d="M390.35,231.23s-10.35-.92-24.46-1.29c-18.89-.49-44.5-1.32-61.52.41a64.35,64.35,0,0,0-11.92,2.14,161.18,161.18,0,0,1-33.64,6.82c-15.68,1.41-28.32-.65-34.26-3.46C198.86,223.6,177,231.1,161,244.66,129,272.07,111.2,251.53,103,257c-39.22,25.94-28.85,37.08-31.32,31.88"/><path class="cls-55" d="M389.24,231s-76.6-5.58-98,1.3c-30.36,9.75-58.4,7.64-68.11,3-25.88-12.41-47.6-4.66-63.59,9.08-32.49,27.92-50.43,6.67-58.63,12-39.88,26.15-29,37.37-31.51,32.11"/><path class="cls-56" d="M388.54,230.76c-.93-.15-76.61-5.58-98.17,1.17a148.89,148.89,0,0,1-25.5,5.61c-19.54,2.53-35.66.52-42.72-2.79-25.91-12.13-47.65-4.67-63.7,9.14-32.43,27.87-50,6.65-58.8,12.15-40,24.91-29.35,37.37-31.8,32.23"/><path class="cls-57" d="M387.84,230.54c-1.86-.29-76.61-5.57-98.3,1.05a151.89,151.89,0,0,1-25.54,5.5c-19.44,2.47-35.56.46-42.79-2.84-25.94-11.85-47.69-4.68-63.82,9.2-32.36,27.82-49.46,6.62-59,12.25C58.33,279.47,68.74,293.07,66.35,288"/><path class="cls-58" d="M387.15,230.33c-2.79-.44-76.62-5.58-98.43.92a154.32,154.32,0,0,1-25.6,5.38c-19.34,2.42-35.45.41-42.84-2.88-26-11.59-47.74-4.69-63.95,9.26-32.28,27.77-49,6.59-59.12,12.35-40.09,22.72-30,37.38-32.37,32.46"/><path class="cls-59" d="M386.45,230.12c-3.72-.58-76.62-5.58-98.56.79a158.58,158.58,0,0,1-25.64,5.27c-19.24,2.35-35.35.36-42.91-2.94-26-11.31-47.79-4.69-64.06,9.33C123.06,270.28,106.83,249.13,96,255,56,276.76,65.62,292.4,63.33,287.6"/><path class="cls-60" d="M385.75,229.91c-4.65-.73-76.62-5.58-98.69.66a160.72,160.72,0,0,1-25.69,5.16c-19.14,2.29-35.24.3-43-3-26-11.06-47.83-4.69-64.18,9.39-32.14,27.66-47.93,6.54-59.46,12.56-39.89,20.83-30.71,37.37-32.94,32.68"/><path class="cls-61" d="M385.05,229.7c-5.58-.88-76.62-5.58-98.82.53a166.49,166.49,0,0,1-25.73,5.05c-19.05,2.19-35.13.24-43-3-26-10.81-47.88-4.7-64.31,9.45-32.07,27.61-47.4,6.51-59.62,12.66-39.73,20-31.05,37.37-33.23,32.8"/><path class="cls-62" d="M384.36,229.49c-6.52-1-76.64-5.63-98.95.4a174.44,174.44,0,0,1-25.79,4.94c-19,2.12-35,.18-43.09-3.09-26-10.56-47.92-4.71-64.42,9.51-32,27.56-46.88,6.49-59.79,12.76-39.53,19.19-31.39,37.37-33.51,32.91"/><path class="cls-63" d="M383.66,229.27c-7.44-1.17-76.65-5.63-99.08.28a178.71,178.71,0,0,1-25.83,4.83c-18.85,2.05-34.92.12-43.16-3.14-26-10.32-48-4.72-64.54,9.57-31.93,27.5-46.34,6.48-60,12.86-39.31,18.44-31.73,37.38-33.8,33"/><path class="cls-64" d="M383,229.06c-8.37-1.31-76.65-5.63-99.21.15a182.94,182.94,0,0,1-25.88,4.71c-18.75,2-34.8.07-43.21-3.19-26-10.08-48-4.72-64.66,9.64-31.87,27.45-45.8,6.46-60.12,13-39.06,17.73-32.08,37.38-34.09,33.15"/><path class="cls-65" d="M382.26,228.85c-9.3-1.46-76.65-5.64-99.34,0a187.31,187.31,0,0,1-25.92,4.6c-18.65,1.93-34.7,0-43.28-3.24-26-9.85-48.06-4.73-64.78,9.7-31.8,27.4-45.25,6.45-60.28,13.06-38.78,17.06-32.42,37.38-34.38,33.26"/><path class="cls-66" d="M381.57,228.64c-10.24-1.61-76.66-5.65-99.47-.11a192.14,192.14,0,0,1-26,4.49c-18.55,1.86-34.58-.05-43.34-3.29-26-9.62-48.1-4.74-64.9,9.76-31.72,27.35-44.7,6.45-60.45,13.17C49,269.07,54.68,290,52.77,286"/><path class="cls-67" d="M380.87,228.43c-11.17-1.76-76.66-5.65-99.6-.24a198.58,198.58,0,0,1-26,4.38c-18.46,1.79-34.47-.12-43.41-3.34-26-9.4-48.15-4.75-65,9.82-31.66,27.3-44.15,6.45-60.62,13.27C48,268.12,53.12,289.69,51.27,285.81"/><path class="cls-68" d="M380.17,228.21c-12.09-1.89-76.66-5.65-99.73-.36a203.8,203.8,0,0,1-26.07,4.27c-18.35,1.73-34.36-.18-43.46-3.4-26-9.18-48.2-4.74-65.14,9.89C114.19,265.85,102.18,245.07,85,252c-37.86,15.22-33.43,37.38-35.23,33.6"/><path class="cls-69" d="M379.47,228c-13-2-76.66-5.65-99.86-.5a207.29,207.29,0,0,1-26.11,4.16c-18.26,1.67-34.25-.24-43.53-3.44-26-9-48.24-4.75-65.26,9.95-31.51,27.19-43,6.47-60.94,13.47C46.24,266.3,50,289,48.25,285.36"/><path class="cls-70" d="M378.77,227.79c-13.95-2.19-76.67-5.66-100-.63a213.07,213.07,0,0,1-26.17,4.05c-18.15,1.61-34.13-.31-43.59-3.49-26-8.76-48.28-4.76-65.37,10-31.45,27.14-42.46,6.49-61.11,13.57-37.19,14.12-34.12,37.38-35.81,33.84"/><path class="cls-71" d="M378.08,227.58c-14.89-2.34-76.68-5.66-100.12-.76a221.17,221.17,0,0,1-26.21,3.94c-18.06,1.54-34-.38-43.65-3.54-26-8.55-48.34-4.77-65.5,10.07-31.37,27.09-41.89,6.52-61.27,13.68-36.84,13.59-34.46,37.37-36.09,33.94"/><path class="cls-72" d="M377.38,227.37c-15.82-2.49-76.68-5.66-100.25-.89a225,225,0,0,1-26.26,3.83c-18,1.48-33.9-.44-43.71-3.59-26-8.35-48.38-4.78-65.62,10.13-31.3,27-41.31,6.55-61.44,13.78C43.62,263.72,45.31,288,43.73,284.69"/><path class="cls-73" d="M376.68,227.16c-16.74-2.63-76.68-5.67-100.38-1a234,234,0,0,1-26.3,3.72c-17.86,1.42-33.79-.52-43.78-3.65-26-8.14-48.42-4.78-65.73,10.2-31.24,27-40.74,6.6-61.61,13.88-36.12,12.61-35.14,37.38-36.66,34.17"/><path class="cls-74" d="M376,226.94c-17.67-2.77-76.68-5.66-100.5-1.14a238.58,238.58,0,0,1-26.36,3.6c-17.76,1.36-33.67-.58-43.83-3.69-26-8-48.47-4.79-65.86,10.26-31.16,26.93-40.16,6.65-61.77,14-35.75,12.13-35.48,37.38-36.95,34.29"/><path class="cls-75" d="M375.29,226.73c-18.61-2.92-76.69-5.66-100.64-1.27a248.18,248.18,0,0,1-26.4,3.49c-17.66,1.3-33.56-.65-43.9-3.74-25.94-7.76-48.52-4.8-66,10.32-31.09,26.88-39.58,6.71-61.93,14.08C41.06,261.29,40.62,287,39.2,284"/><path class="cls-76" d="M374.59,226.52c-19.54-3.07-76.69-5.67-100.77-1.4a252.9,252.9,0,0,1-26.45,3.38c-17.56,1.24-33.44-.73-44-3.79-25.92-7.57-48.56-4.8-66.09,10.38-31,26.82-39,6.78-62.1,14.18-35,11.23-36.16,37.38-37.52,34.52"/><path class="cls-77" d="M373.89,226.31c-20.46-3.22-76.69-5.67-100.9-1.53a263.79,263.79,0,0,1-26.5,3.27c-17.45,1.17-33.32-.8-44-3.85-25.91-7.37-48.61-4.8-66.22,10.45C105.31,261.42,97.85,241.5,74,248.94c-34.63,10.78-36.5,37.37-37.81,34.63"/><path class="cls-78" d="M373.19,226.1c-21.39-3.36-76.69-5.67-101-1.66-9.46,1.56-18.36,2.63-26.55,3.16-17.36,1.11-33.21-.88-44.08-3.9-25.89-7.19-48.65-4.81-66.33,10.51-30.89,26.72-37.83,6.94-62.43,14.39C38.53,259,35.93,286,34.68,283.35"/><path class="cls-79" d="M372.5,225.88c-22.33-3.5-76.7-5.66-101.16-1.78-9.49,1.51-18.39,2.54-26.6,3.05-17.25,1-33.09-1-44.14-4-25.87-7-48.7-4.82-66.45,10.57-30.81,26.67-37.23,7-62.6,14.49-33.86,9.95-37.18,37.38-38.38,34.86"/><path class="cls-80" d="M371.8,225.67c-23.26-3.65-76.7-5.66-101.29-1.91-9.51,1.45-18.43,2.46-26.64,2.93a146.27,146.27,0,0,1-44.21-4c-25.84-6.83-48.74-4.83-66.57,10.63-30.74,26.62-36.63,7.15-62.76,14.59-33.48,9.54-37.52,37.38-38.67,35"/><path class="cls-81" d="M371.1,225.46c-24.19-3.8-76.7-5.66-101.42-2-9.54,1.4-18.47,2.37-26.69,2.82a150.39,150.39,0,0,1-44.26-4c-25.83-6.66-48.79-4.84-66.69,10.69-30.67,26.56-36,7.27-62.93,14.69C36,256.72,31.25,285,30.16,282.67"/><path class="cls-82" d="M370.4,225.25c-25.11-3.94-76.7-5.67-101.55-2.17-9.57,1.34-18.51,2.29-26.73,2.71a154.49,154.49,0,0,1-44.33-4.1C172,215.21,149,216.85,131,232.45c-30.6,26.51-35.44,7.4-63.09,14.8-32.71,8.74-38.21,37.37-39.24,35.2"/><path class="cls-83" d="M369.71,225c-26-4.09-76.71-5.67-101.68-2.3-9.6,1.29-18.56,2.2-26.79,2.6a159.18,159.18,0,0,1-44.39-4.15c-25.78-6.3-48.88-4.85-66.93,10.82-30.53,26.46-34.84,7.55-63.25,14.9-32.33,8.36-38.55,37.37-39.53,35.32"/><path class="cls-84" d="M369,224.83c-27-4.24-76.71-5.67-101.81-2.43-9.63,1.24-18.59,2.11-26.83,2.49a164.42,164.42,0,0,1-44.45-4.2c-25.77-6.14-48.93-4.85-67,10.88-30.46,26.41-34.24,7.71-63.42,15C33.51,254.55,26.56,284,25.63,282"/><path class="cls-85" d="M368.31,224.61c-27.91-4.38-76.71-5.65-101.94-2.55-9.65,1.18-18.63,2-26.88,2.37A169.27,169.27,0,0,1,195,220.19c-25.75-6-49-4.86-67.17,10.94-30.39,26.35-33.63,7.88-63.59,15.1C32.67,253.84,25,283.61,24.13,281.78"/><path class="cls-86" d="M367.61,224.4c-28.84-4.53-76.71-5.65-102.07-2.68-9.68,1.13-18.67,1.94-26.92,2.26a174.91,174.91,0,0,1-44.58-4.3c-25.72-5.8-49-4.86-67.29,11-30.32,26.3-33,8.06-63.75,15.2-31.17,7.25-39.57,37.38-40.38,35.67"/><path class="cls-87" d="M366.91,224.19c-29.76-4.67-76.71-5.65-102.19-2.81-9.71,1.08-18.72,1.86-27,2.15a181.16,181.16,0,0,1-44.63-4.35c-25.71-5.64-49.07-4.87-67.41,11.07-30.25,26.25-32.42,8.26-63.92,15.3C31,252.44,21.87,282.93,21.11,281.33"/><path class="cls-88" d="M366.22,224c-30.7-4.82-76.72-5.65-102.33-2.94-9.74,1-18.75,1.77-27,2a188.09,188.09,0,0,1-44.7-4.4c-25.69-5.48-49.11-4.88-67.53,11.13-30.18,26.2-31.81,8.48-64.08,15.41-30.41,6.53-40.25,37.37-41,35.89"/><path class="cls-89" d="M365.52,223.77c-31.63-5-76.72-5.65-102.46-3.07-9.76,1-18.79,1.69-27.07,1.93-16.26.47-31.91-1.79-44.76-4.45-25.66-5.32-49.15-4.89-67.64,11.19-30.11,26.14-31.2,8.71-64.25,15.51-30,6.18-40.59,37.38-41.25,36"/><path class="cls-90" d="M364.82,223.56c-32.56-5.12-76.73-5.65-102.59-3.2-9.79.92-18.83,1.6-27.11,1.81-16.16.42-31.8-1.87-44.82-4.49-25.65-5.16-49.2-4.9-67.77,11.25-30,26.09-30.59,8.95-64.41,15.61-29.66,5.84-40.93,37.38-41.53,36.12"/><path class="cls-91" d="M364.12,223.34c-33.49-5.26-76.73-5.64-102.71-3.33-9.82.88-18.88,1.53-27.17,1.71-16.06.36-31.67-2-44.88-4.55-25.62-5-49.25-4.89-67.89,11.32-30,26-30,9.22-64.57,15.71-29.29,5.5-41.28,37.38-41.82,36.24"/><path class="cls-92" d="M363.43,223.13c-34.42-5.4-76.74-5.63-102.85-3.46-9.85.83-18.91,1.44-27.21,1.6-16,.31-31.56-2.07-45-4.6-25.6-4.85-49.29-4.9-68,11.38-29.9,26-29.36,9.5-64.75,15.81-28.92,5.16-41.61,37.38-42.1,36.35"/><path class="cls-93" d="M362.73,222.92c-35.35-5.55-76.73-5.58-103-3.59-9.87.79-18.95,1.36-27.26,1.49-15.86.25-31.44-2.16-45-4.65-25.58-4.69-49.33-4.91-68.12,11.44-29.83,25.94-28.74,9.8-64.91,15.92C25.9,248.35,12.5,280.9,12.06,280"/><path class="cls-94" d="M362,222.71c-36.28-5.7-76.73-5.58-103.11-3.72-9.9.74-19,1.27-27.3,1.38-15.76.19-31.32-2.26-45.07-4.7-25.57-4.55-49.38-4.92-68.25,11.5-29.76,25.88-28.12,10.12-65.07,16-28.19,4.5-42.29,37.38-42.68,36.58"/><path class="cls-95" d="M361.33,222.5c-37.21-5.85-76.73-5.58-103.23-3.85-9.93.68-19,1.19-27.36,1.27-15.66.14-31.2-2.36-45.13-4.76-25.54-4.39-49.43-4.92-68.36,11.57C87.56,252.56,89.74,237.19,52,242.85c-27.83,4.17-42.64,37.38-43,36.69"/><path class="cls-96" d="M360.64,222.28c-38.15-6-76.75-5.58-103.37-4-10,.63-19.08,1.11-27.4,1.15-15.56.09-31.08-2.45-45.2-4.8-25.52-4.24-49.47-4.93-68.48,11.63-29.62,25.78-26.9,10.82-65.4,16.22-27.48,3.86-43,37.38-43.25,36.81"/><path class="cls-97" d="M359.94,222.07c-39.07-6.13-76.75-5.58-103.5-4.1-10,.57-19.11,1-27.45,1-15.46.07-31-2.56-45.25-4.85-25.51-4.1-49.52-4.94-68.61,11.69-29.54,25.73-26.28,11.2-65.56,16.32C22.44,245.71,6.25,279.55,6,279.09"/><path class="cls-98" d="M359.24,221.86c-40-6.28-76.75-5.58-103.63-4.23-10,.52-19.15,1-27.49.93-15.37,0-30.85-2.66-45.32-4.9-25.49-3.95-49.56-4.95-68.72,11.75C84.6,251.08,88.41,237,48.34,241.83c-26.78,3.23-43.65,37.38-43.82,37"/><path class="cls-99" d="M358.54,221.65c-40.93-6.43-76.75-5.58-103.75-4.36-10,.47-19.2.87-27.55.82-15.26-.06-30.72-2.77-45.38-5-25.47-3.81-49.61-4.95-68.84,11.81-29.41,25.62-25,12-65.9,16.53-26.44,2.91-44,37.38-44.1,37.15"/><path class="cls-100" d="M357.84,221.44C316,214.86,281.09,215.86,254,217c-10.07.41-19.24.78-27.6.71-15.16-.12-30.6-2.87-45.43-5-25.45-3.66-49.66-5-69,11.88C82.63,250.1,87.53,237,45.9,241.16c-26.11,2.6-44.34,37.38-44.39,37.26"/><path class="cls-101" d="M357.15,221.23c-58.65-9.21-100.71-3.66-131.66-4-40.58-.47-83.76-20-114.58,6.89-29.27,25.52-23.83,13-66.23,16.73C18.9,243.11,0,278.2,0,278.2"/></g></g></g></g></g></svg>