<svg xmlns="http://www.w3.org/2000/svg" xmlns:xlink="http://www.w3.org/1999/xlink" viewBox="0 0 112 112"><defs><style>.cls-1{isolation:isolate;}.cls-2{fill:url(#radial-gradient);}.cls-3{mix-blend-mode:hard-light;fill:url(#linear-gradient);}.cls-4{fill:#43474a;}.cls-18,.cls-5,.cls-6{fill:none;}.cls-5,.cls-6{stroke:#000;}.cls-16,.cls-5,.cls-6{stroke-linecap:round;}.cls-16,.cls-18,.cls-5,.cls-6{stroke-miterlimit:10;}.cls-5{stroke-width:0.29px;}.cls-6{stroke-width:0.31px;}.cls-7{fill:#3c4b54;}.cls-8{fill:#c22f38;}.cls-9{fill:#31383b;}.cls-10{fill:#e3e8ed;}.cls-11{fill:#dae3e7;}.cls-12{opacity:0.41;fill:url(#linear-gradient-2);}.cls-13,.cls-15{opacity:0.42;}.cls-13{fill:url(#linear-gradient-3);}.cls-14{fill:#607360;}.cls-15{fill:url(#linear-gradient-4);}.cls-16,.cls-17{fill:#fff;}.cls-16,.cls-18{stroke:#fff;}.cls-16{stroke-width:0.08px;}.cls-18{stroke-width:0.23px;}.cls-19{fill:#787d80;}.cls-20{fill:#de6d74;}.cls-21{fill:#302f2f;}.cls-22{fill:#3b3939;}.cls-23{fill:#cececc;}</style><radialGradient id="radial-gradient" cx="-599.85" cy="-271.51" r="2297.78" gradientTransform="translate(55.41 59.61) scale(0.06 0.09)" gradientUnits="userSpaceOnUse"><stop offset="0" stop-color="#fcfcf2"/><stop offset="0.38" stop-color="#e2eaeb"/><stop offset="0.73" stop-color="#d2dfe7"/><stop offset="1" stop-color="#ccdbe6"/></radialGradient><linearGradient id="linear-gradient" x1="15.54" y1="113.22" x2="68.06" y2="70.11" gradientUnits="userSpaceOnUse"><stop offset="0" stop-color="#95a7c7" stop-opacity="0.02"/><stop offset="1" stop-opacity="0.55"/></linearGradient><linearGradient id="linear-gradient-2" x1="45.48" y1="72.53" x2="62.41" y2="73.4" gradientTransform="translate(-6.61 -9.81) rotate(-2.96)" gradientUnits="userSpaceOnUse"><stop offset="0" stop-color="#d4d4d4"/><stop offset="0" stop-color="#d3d3d3"/><stop offset="0.27" stop-color="#a0a2a3" stop-opacity="0.75"/><stop offset="0.52" stop-color="#787b7d" stop-opacity="0.56"/><stop offset="0.73" stop-color="#5b5f61" stop-opacity="0.42"/><stop offset="0.9" stop-color="#4a4d50" stop-opacity="0.33"/><stop offset="1" stop-color="#43474a" stop-opacity="0.3"/></linearGradient><linearGradient id="linear-gradient-3" x1="67.36" y1="77.68" x2="106.81" y2="84.88" gradientTransform="matrix(0.87, 0.05, 0.05, 1.06, -0.67, -30.15)" gradientUnits="userSpaceOnUse"><stop offset="0" stop-color="#b5acac"/><stop offset="0.21" stop-color="#a29b9c"/><stop offset="0.63" stop-color="#727072"/><stop offset="1" stop-color="#43474a"/></linearGradient><linearGradient id="linear-gradient-4" x1="21.14" y1="59" x2="67.26" y2="59" gradientUnits="userSpaceOnUse"><stop offset="0" stop-color="#faebeb"/><stop offset="0.02" stop-color="#f1e3e3" stop-opacity="0.97"/><stop offset="0.12" stop-color="#c9bfc0" stop-opacity="0.84"/><stop offset="0.22" stop-color="#a59fa0" stop-opacity="0.72"/><stop offset="0.33" stop-color="#878486" stop-opacity="0.62"/><stop offset="0.44" stop-color="#6e6e70" stop-opacity="0.54"/><stop offset="0.56" stop-color="#5b5d5f" stop-opacity="0.48"/><stop offset="0.68" stop-color="#4e5053" stop-opacity="0.43"/><stop offset="0.82" stop-color="#46494c" stop-opacity="0.41"/><stop offset="1" stop-color="#43474a" stop-opacity="0.4"/></linearGradient></defs><g class="cls-1"><g id="Layer_1" data-name="Layer 1"><rect class="cls-2" y="1.16" width="112" height="112"/><path class="cls-3" d="M36.9,77.53c-5.68,1.5-20.83,7.72-13.53,4.65,1-.42-11.5,5.16-11.5,5.16l-8.64,4.8H29.35l26.34.25s7.07-2.68,14-5.72c2.94-1.28,8.72-3.24,11-4.06,5.73-2,18.83-7.22,18.83-7.22l-30.33.38S44.14,75.62,36.9,77.53Z"/><path class="cls-4" d="M70.41,41.85s2.18-.43,5.82-1.12l5.31-1,4.68-1,4.31-.85,10.72-2.06s-13,3.06-19.48,4.34c-1.4.27-5.75,1.22-7,1.47s-3.25.78-3.25.78Z"/><path class="cls-5" d="M73.26,41.83l1.63-.31-2,.41c3.35-.75,6.88-1.4,10.28-2.12,6-1.26,11.57-2.73,17.71-3.88"/><path class="cls-4" d="M62.14,38.71l6-1.16,5.49-1.07,4.84-1,4.46-.87L94,32.43s-13.49,3.18-20.13,4.51c-1.46.29-6,1.27-7.25,1.53s-3.35.82-3.35.82Z"/><path class="cls-6" d="M67.06,38.22c9-1.75,18-4,27-5.73"/><path class="cls-7" d="M69.57,82.83s.38,1.2.58,1.65l0,.1a4.54,4.54,0,0,0,2.19,2.09A6.45,6.45,0,0,0,75,87.1a7.73,7.73,0,0,0,4.1-1.68,6.48,6.48,0,0,0,2.54-4c.3-1.19.78-5.92.78-5.92l-.71-4.67-4.19-1.42L74,71.28S72.42,74.9,72.11,75a45.78,45.78,0,0,0-2.42,5.68A3.93,3.93,0,0,0,69.57,82.83Z"/><path class="cls-7" d="M94,74.87s-.28,1.8-.27,2.41a2.87,2.87,0,0,0,.41,1.42,2.45,2.45,0,0,0,.83.79,2.76,2.76,0,0,0,1.83.4,3.53,3.53,0,0,0,1.54-.6,3.92,3.92,0,0,0,.91-1,4.6,4.6,0,0,0,.47-1A6.53,6.53,0,0,0,100,75.7l.21-2.7.25-3.4-3.38-.55-2.3,1.32-.55,1.43Z"/><path class="cls-8" d="M16.5,68.33c0,3.44,0,8.56,0,8.56l.75,5a12.2,12.2,0,0,0,4.1,2C25.05,85.09,32.93,86,32.93,86l12.89,1.35,6.3.41a6.72,6.72,0,0,0,2.28-.24l7.39-2.09,6.66-1.78,3.61-.87c2.23-.61,1.58,0,1.68-2.63a16.47,16.47,0,0,1,.65-5.07A4.23,4.23,0,0,1,76,73.18a3.53,3.53,0,0,1,4.72,1.43,7,7,0,0,1,.43,1.18c.62,2.44.92,4.27.92,4.27l6.88-1.67,6.63-1.68a14.5,14.5,0,0,1,.38-3.28,2.16,2.16,0,0,1,2-1.64c1,.11,1.39,1.27,1.46,1.49a.15.15,0,0,1,0,.07l.2,2,1.81-.63.11-8.75,0-6.37a.6.6,0,0,0-.26-.46l-6.63-4.67-6-3.78-5.11-3.47-4.72-3.19-8.29-5.45-6.14-3.73A54,54,0,0,0,58.22,32a12.74,12.74,0,0,0-1.92-.52,84.85,84.85,0,0,0-13,.89c-2.77.37-13,2.33-13,2.33-5.39,1.26-8.72,2.52-9.27,3s-.43,1-1.17,2.77c0,0-.65,2.81-.81,3.76-.2,1.18-.83,3.91-1.05,5.57s-.84,7.26-.92,8.94"/><path class="cls-9" d="M20.45,41.75s-5.26-.74-6.15-.4a3.42,3.42,0,0,0-1.94,1.47,9.24,9.24,0,0,0-1.13,3.28A10.38,10.38,0,0,0,11,48.34a2,2,0,0,0,.86,1.56l.2.13.22.11a2.3,2.3,0,0,0,1,.08s.31-.06.41-.2.2-.81.15-2.52a7.06,7.06,0,0,1,.3-2.65,2.14,2.14,0,0,1,2.27-1.4,13.69,13.69,0,0,1,1.68.33c.37.07,1.67.26,1.67.26Z"/><path class="cls-4" d="M21.29,44.11c-.92.53-2,6.43-2.07,7.06-.74,5.3-1,11.19-1.13,13.63-.15,5-.16,5.08.07,6.28.71,3.7,2.47,4.38,3,4.44,1.4.14,1.81,2.15,3.19,2.2,5.69.2,9.87.29,11.69.23,3.65-.13,5.39-.26,7-.39A40.23,40.23,0,0,0,49,76.8c1-.21,3.09-1.91,3.23-1.19.22,1.16-.09-1.34.16-3.92.12-1.2.41-5.16.63-6.83.29-2.16.32-5.89.9-10.19.41-3,.61-5,1.12-8.82.11-.79.88-6.36,1-7.61a.65.65,0,0,0-.71-.65,45.15,45.15,0,0,0-5.56.54c-3.12.49-6.33,1-9.16,1.49-1.8.29-5.17,1-8.18,1.73C30.48,41.82,22.15,43.61,21.29,44.11Z"/><path class="cls-4" d="M58.38,40.53a18.19,18.19,0,0,0-1.06,5.39c0,.22-.19,2.62-.2,2.85L57,51l-.28,4.52L56.4,61.4l-.29,5.53c0,.19,0,2,0,2.23A1.93,1.93,0,0,0,57,71c0,.52,1.51,0,2.06-.2A14.09,14.09,0,0,1,63.22,70c.3-.09,1.39-.31,4-1,3.18-.84,6.89-.75,9.35-1a62.28,62.28,0,0,1,6.82-.32c1,0,4.85-.36,7.19-.21s4.59-.68,6.47-.5c1.37.13,2.36-.58,3-.46s1.18.13,1.18,0c0-1.68.07-5.07,0-5.14a7.83,7.83,0,0,1-2.48-1.19C97.59,59.45,97,59.1,97,59.1l-1.47.53c-.47.07-.42-.69-.42-.69s-.7-1-.7-1C94,56,89,54.64,89,54.64c-.06.43-3.25-2.51-3.39-1.83L85.44,54l-.09.76a1.89,1.89,0,0,1-.56-1.22L84.38,52,82.29,50.4,79.3,49c-2.47-2.21-4-1.88-4-1.88L74,48.53c0,.42-.74,1.79-.81,1.37,0,0-.12-2.86-.22-4.24s-1.34-.81-1.34-.81-1.38-.5-1.83-.81a15.46,15.46,0,0,0-3.37-1.43c-1.48-.76-3.92-1.74-4.35-1.92C60.35,40,59.25,38,58.38,40.53Z"/><path class="cls-10" d="M76,83s.94-.55,1.22-.77a3.58,3.58,0,0,0,.83-.82,4.42,4.42,0,0,0,.43-.71,6.28,6.28,0,0,0,.41-1.41c.11-.66.31-2.48.31-2.48s.28,2.24.28,2.92a3.73,3.73,0,0,1-.2,1.23,2.72,2.72,0,0,1-1,1.3A5.85,5.85,0,0,1,76,83Z"/><path class="cls-11" d="M97.09,77.67a2,2,0,0,0,.64-.8,4.13,4.13,0,0,0,.32-1.12,5.77,5.77,0,0,0,0-1c0-.29-.06-1.14-.06-1.14a11.38,11.38,0,0,1,.52,1.78,2,2,0,0,1-.36,1.49A2.48,2.48,0,0,1,97.09,77.67Z"/><path class="cls-12" d="M53.28,34s-3.81,3.5-5,7.24c-1.55,4.92-1.33,4.84-2.12,9.55a107.1,107.1,0,0,0-1.69,16.7,50.7,50.7,0,0,0,.75,10.91c.62,4.44.38,4.54,2,8,.63,1.29,1.26-5.18,2.39-10.14.55-2.44,1.49-12.69,1.71-16,.18-2.83.81-7.64,1.38-13.59C53.05,43.54,53.28,34,53.28,34Z"/><path class="cls-13" d="M62.13,41.44a63.84,63.84,0,0,0-.91,6.84c-.43,5.33-.38,15.21-.38,15.21.36,8,2.23,6,4,5.58a66.16,66.16,0,0,1,26.12-.55s.35-3.59,1.15-10.08l-.66.6s-3.15-2.15-6.48-4.26c-4.47-2.83-7.24-5.15-11.25-8C69.93,44.14,62.13,41.44,62.13,41.44Z"/><path d="M20.71,42.9s3.88-1.15,6.83-1.74c.32-.06,6-1.14,7.77-1.42,2.44-.4,8.23-1.36,9.9-1.51,2.23-.21,5-.61,6.55-.75.68-.06,4.38-.28,4.38-.28l-1,7.88s-4.92.06-7.89.3c-4.58.37-6.18.66-9.36.91-4.4.35-8.23,1-11.46,1.47-2.59.42-6.82,1.48-6.82,1.48Z"/><path class="cls-14" d="M26.33,43.19s2.38-.63,4.2-1c.2,0,3.71-.64,4.8-.8,1.51-.23,5.09-.77,6.12-.87,1.38-.12,3.11-.35,4.06-.44.41,0,2.71-.18,2.71-.18l-.49,3.67s-2.23.25-4.82.49-4.47.42-6.6.74c-2.7.4-4.73.63-6.72.92-2.25.34-3.85.76-3.85.76Z"/><path d="M45.61,82.52a11.82,11.82,0,0,0,3.88-.27,28.74,28.74,0,0,0,3.18-.69l0,3.73s-2,0-3.62,0a32.24,32.24,0,0,1-3.82-.26Z"/><path d="M17.92,78.42,18,80.94s1,.57,1.39.76a8,8,0,0,0,1.75.59l-.19-1.89Z"/><path d="M17.91,69.05a54.5,54.5,0,0,0,8,2,82.69,82.69,0,0,0,9.38.77,75.55,75.55,0,0,0,11.37-.71,26.85,26.85,0,0,0,6.16-2.08l-.31,7.28-9,4.53a75.09,75.09,0,0,1-8.9.19c-1.51-.06-5.58-.62-8.08-1.06a36.13,36.13,0,0,1-4.31-1.27l-4.23-4.08Z"/><path class="cls-15" d="M25.54,36.63a117,117,0,0,0-3.69,12.61A136.68,136.68,0,0,0,20,64.46c-.64,8.82.73,12.93,1.11,17.83,0,.44,19.9,3.28,19.9,3.28a96.25,96.25,0,0,1-.4-18.16c.34-5,1.37-12.14,2.61-20.31.58-3.81,3.88-14.67,3.88-14.67s-4.46.6-6.25.9c-3.08.52-7.41,1.54-10.13,2.09S25.54,36.63,25.54,36.63Z"/><path class="cls-16" d="M51.55,74.59S48.49,76,47.22,76.81c0,0-.8.54-1.29.89-.09.06-.7.72-.7.72l1-.45c1.56-.72,3.42-1.74,3.42-1.74s1-.62,1.19-.77A10.15,10.15,0,0,0,51.55,74.59Z"/><path class="cls-16" d="M18.7,73.5s1.77,1.34,2.48,2c0,0,.42.43.69.73.05.06.4.64.4.64l-.57-.4c-.88-.63-1.93-1.54-1.93-1.54s-.79-.67-.89-.8A2.5,2.5,0,0,1,18.7,73.5Z"/><path class="cls-17" d="M20.82,72.71A11.24,11.24,0,0,1,22.65,74c.52.5,1.14,1.47,1.66,2.09a3.23,3.23,0,0,0,1.33,1,19.2,19.2,0,0,0,4.69.92,55.77,55.77,0,0,0,6.08.49,20.2,20.2,0,0,0,3.83-.2,6.87,6.87,0,0,0,3-1.16,9.19,9.19,0,0,0,1.44-1.35,9.71,9.71,0,0,1,2.15-1.61,23.25,23.25,0,0,1,2.67-1.29l3-1.26s-4,2.5-4.87,3a10.69,10.69,0,0,0-2.22,1.62c-.74.78-1.39,1.74-2,2-1.34.51-3.27.63-6.15.61a63.38,63.38,0,0,1-7.47-.61c-2.86-.45-5.29-.74-5.93-1.63a13.56,13.56,0,0,0-1.76-2.13,44.88,44.88,0,0,0-3.74-3.18A24.81,24.81,0,0,1,20.82,72.71Z"/><path d="M58.05,37.59l-.83,7.88s11,3.15,15,4.63c6.15,2.25,8,2.94,11.27,4.38,2.67,1.19,11,5.14,11,5.14l6.76,3.55V61.43S94.09,57,92.07,55.78c-3.17-1.84-8.24-5.24-11.24-7-3.45-2-8.39-4.7-12.2-6.58S58.05,37.59,58.05,37.59Z"/><path d="M56.14,68.9s4.51-.44,8.11-.83c6.08-.65,13.3-1.42,17.06-1.56C86.37,66.31,91,66,93.63,66c2.16,0,7.59.14,7.59.14l0,1.08L94.09,68l-.87,2.66L82.4,72.28l-2.35-2.92S73.6,70.48,72,70.72s-4.68,1-8.14,1.74c-1.89.42-7.69,2-7.69,2Z"/><polygon points="48.99 79.72 48.1 81.79 52.67 80.8 52.66 78.24 48.99 79.72"/><polygon points="17.99 75.92 17.99 77.97 20.03 79.29 19.84 77.31 17.99 75.92"/><path class="cls-18" d="M30.22,75.07c0-.52.87-.87,1.85-.78s1.74.58,1.7,1.1-.87.87-1.85.78S30.18,75.59,30.22,75.07Z"/><path class="cls-9" d="M13.74,45.05c-.12-.71-2.09-.74-2.51-.16s-.76,3.57-.88,4.87-.51,4.38.23,5.36c.45.61,2.32.6,2.84.07.68-.68.64-4,.64-5.43A29.57,29.57,0,0,0,13.74,45.05Z"/><path class="cls-19" d="M60.57,41.83c-.12-.72-2.09-.74-2.5-.16s-.75,3.56-.87,4.87-.5,4.37.24,5.36a2.61,2.61,0,0,0,2.85.07c.67-.69.62-4,.62-5.43A29.73,29.73,0,0,0,60.57,41.83Z"/><path class="cls-20" d="M72.08,82.14s0-2.51,0-3.43a17.1,17.1,0,0,1,.43-3.39,6.37,6.37,0,0,1,1.26-2.68A3.51,3.51,0,0,1,76,71.06a2.93,2.93,0,0,1,2.2,0,3.42,3.42,0,0,1,1.43,1,5.86,5.86,0,0,1,.88,1.4L81,75a8.09,8.09,0,0,0-.86-1.68,5.12,5.12,0,0,0-1.66-1.25,5.34,5.34,0,0,0-1.71-.1,7,7,0,0,0-1.36.53s-.7.64-.92.91a5.64,5.64,0,0,0-.84,1.6,14.23,14.23,0,0,0-.41,2.1,18.58,18.58,0,0,0-.12,2.49c0,.57.07,2.28.07,2.28Z"/><path class="cls-20" d="M94.82,76.26s0-1.2,0-1.64A7.5,7.5,0,0,1,95,73a3,3,0,0,1,.65-1.28A1.74,1.74,0,0,1,96.82,71a1.6,1.6,0,0,1,1.12,0,1.73,1.73,0,0,1,.73.45,3.11,3.11,0,0,1,.45.67l.25.75a4.11,4.11,0,0,0-.43-.81,2.81,2.81,0,0,0-.86-.59,2.9,2.9,0,0,0-.87,0,3.93,3.93,0,0,0-.69.26,6,6,0,0,0-.47.43,2.79,2.79,0,0,0-.43.76,7.64,7.64,0,0,0-.21,1,9.23,9.23,0,0,0-.06,1.19c0,.27,0,1.09,0,1.09Z"/><path class="cls-21" d="M71.58,82.94l2.09-.47a7.06,7.06,0,0,0,.52,1.89,4,4,0,0,0,1.17,1.35,2.18,2.18,0,0,0,1.75.42,4.17,4.17,0,0,0,1.37-.39l.78-.44-.08.06a14.93,14.93,0,0,1-1.33.87,8,8,0,0,1-1.17.52,4,4,0,0,1-1.34.32,6.41,6.41,0,0,1-2.17,0,5.11,5.11,0,0,1-2-1.13,8,8,0,0,1-1-1.31,7.76,7.76,0,0,1-.44-1.2Z"/><path class="cls-22" d="M94.46,76.8l1.2-.36a6.88,6.88,0,0,0,.3,1.45,3,3,0,0,0,.68,1,1,1,0,0,0,1,.32,1.88,1.88,0,0,0,.79-.29l.45-.35s.1-.1,0,.06a8.27,8.27,0,0,1-.76.66,5.22,5.22,0,0,1-.68.4c-.28.16-.17.11-.77.25a2.67,2.67,0,0,1-1.24,0,2.87,2.87,0,0,1-1.14-.87,6.15,6.15,0,0,1-.57-1,6.63,6.63,0,0,1-.26-.92Z"/><path class="cls-23" d="M58.86,41.33,58.23,43a13.3,13.3,0,0,0-.53,2,16.7,16.7,0,0,0-.19,1.79,11.3,11.3,0,0,0,.06,2.4,13.62,13.62,0,0,0,.55,2.55,13.42,13.42,0,0,0,.25-2.49l0-1.23s0-.94.05-1.58.09-1.29.14-2.21C58.63,43.57,58.86,41.33,58.86,41.33Z"/><path class="cls-23" d="M12,44l-.63,1.65a13.3,13.3,0,0,0-.53,2,14.67,14.67,0,0,0-.19,1.79,11.29,11.29,0,0,0,.06,2.4,13.62,13.62,0,0,0,.55,2.55,13.2,13.2,0,0,0,.25-2.48l0-1.24s0-.94.05-1.58.09-1.29.14-2.2C11.75,46.23,12,44,12,44Z"/></g></g></svg>