<svg id="Layer_1" data-name="Layer 1" xmlns="http://www.w3.org/2000/svg" xmlns:xlink="http://www.w3.org/1999/xlink" viewBox="0 0 444 280"><defs><style>.cls-1,.cls-10,.cls-11,.cls-12,.cls-13,.cls-14,.cls-15,.cls-16,.cls-17,.cls-18,.cls-19,.cls-20,.cls-21,.cls-22,.cls-23,.cls-24,.cls-25,.cls-26,.cls-27,.cls-28,.cls-29,.cls-30,.cls-31,.cls-32,.cls-33,.cls-34,.cls-35,.cls-36,.cls-37,.cls-39,.cls-43,.cls-6,.cls-7,.cls-8,.cls-9{fill:none;}.cls-2{clip-path:url(#clip-path);}.cls-3,.cls-39,.cls-43{stroke:#000;stroke-width:0.43px;}.cls-10,.cls-11,.cls-12,.cls-13,.cls-14,.cls-15,.cls-16,.cls-17,.cls-18,.cls-19,.cls-20,.cls-21,.cls-22,.cls-23,.cls-24,.cls-25,.cls-26,.cls-27,.cls-28,.cls-29,.cls-3,.cls-30,.cls-31,.cls-32,.cls-33,.cls-34,.cls-35,.cls-36,.cls-37,.cls-43,.cls-6,.cls-7,.cls-8,.cls-9{stroke-miterlimit:10;}.cls-3{fill:url(#linear-gradient);}.cls-4{fill:url(#linear-gradient-2);}.cls-5{fill:url(#linear-gradient-3);}.cls-6{stroke:#94469e;}.cls-10,.cls-11,.cls-12,.cls-13,.cls-14,.cls-15,.cls-16,.cls-17,.cls-18,.cls-19,.cls-20,.cls-21,.cls-22,.cls-23,.cls-24,.cls-25,.cls-26,.cls-27,.cls-28,.cls-29,.cls-30,.cls-31,.cls-32,.cls-33,.cls-34,.cls-35,.cls-36,.cls-37,.cls-6,.cls-8,.cls-9{stroke-width:1.28px;}.cls-7{stroke:#9649a0;stroke-width:1.28px;}.cls-8{stroke:#984ca1;}.cls-9{stroke:#9b50a3;}.cls-10{stroke:#9d53a4;}.cls-11{stroke:#9f56a6;}.cls-12{stroke:#a159a7;}.cls-13{stroke:#a45ca9;}.cls-14{stroke:#a660aa;}.cls-15{stroke:#a863ac;}.cls-16{stroke:#aa66ad;}.cls-17{stroke:#ac69af;}.cls-18{stroke:#af6cb1;}.cls-19{stroke:#b170b2;}.cls-20{stroke:#b373b4;}.cls-21{stroke:#b576b5;}.cls-22{stroke:#b879b7;}.cls-23{stroke:#ba7cb8;}.cls-24{stroke:#bc7fba;}.cls-25{stroke:#be83bb;}.cls-26{stroke:#c186bd;}.cls-27{stroke:#c389bf;}.cls-28{stroke:#c58cc0;}.cls-29{stroke:#c78fc2;}.cls-30{stroke:#c993c3;}.cls-31{stroke:#cc96c5;}.cls-32{stroke:#ce99c6;}.cls-33{stroke:#d09cc8;}.cls-34{stroke:#d29fc9;}.cls-35{stroke:#d5a3cb;}.cls-36{stroke:#d7a6cc;}.cls-37{stroke:#d9a9ce;}.cls-38{fill:#fff;}.cls-39{stroke-linecap:round;stroke-linejoin:round;}.cls-40{opacity:0.98;}.cls-41{clip-path:url(#clip-path-2);}.cls-42{fill:#f2c615;}.cls-44{fill:#f1c616;}.cls-45{font-size:14.71px;fill:#f7e8d2;font-family:Roboto-Regular, Roboto;}</style><clipPath id="clip-path"><rect class="cls-1" width="444" height="280"/></clipPath><linearGradient id="linear-gradient" x1="-38.71" y1="111.54" x2="417.16" y2="161.42" gradientUnits="userSpaceOnUse"><stop offset="0" stop-color="#e67ad7"/><stop offset="0.51" stop-color="#be51ae"/><stop offset="1" stop-color="#9c2d8b"/></linearGradient><linearGradient id="linear-gradient-2" x1="33.53" y1="-246.3" x2="464.79" y2="138.51" gradientUnits="userSpaceOnUse"><stop offset="0" stop-color="#d480ca"/><stop offset="0.22" stop-color="#d17cc7"/><stop offset="0.44" stop-color="#c970be"/><stop offset="0.66" stop-color="#bb5bae"/><stop offset="0.89" stop-color="#a83f98"/><stop offset="1" stop-color="#9c2d8b"/></linearGradient><linearGradient id="linear-gradient-3" x1="-172.05" y1="-59.62" x2="67.51" y2="177.77" gradientTransform="matrix(1.05, -0.23, 0.29, 1.32, 260.48, 36.13)" gradientUnits="userSpaceOnUse"><stop offset="0" stop-color="#d582cb"/><stop offset="0.3" stop-color="#c66cba"/><stop offset="0.93" stop-color="#a13490"/><stop offset="1" stop-color="#9c2d8b"/></linearGradient><clipPath id="clip-path-2"><rect class="cls-1" x="71.67" y="11.9" width="24.75" height="26.26"/></clipPath></defs><g class="cls-2"><path class="cls-3" d="M460.19,20.75V258.48c0,18.17-15.27,32.9-34.1,32.9H9.62c-18.83,0-34.11-14.73-34.11-32.9V20.75c0-18.17,15.28-32.91,34.11-32.91H426.09C444.92-12.16,460.19,2.58,460.19,20.75Z"/><polygon id="_Path_" data-name="&lt;Path&gt;" class="cls-4" points="617.88 166.01 204.79 -235.32 70.15 -104.51 483.25 296.82 617.88 166.01"/><polygon class="cls-5" points="31.68 -23.29 393.69 329.63 455.59 306.15 81.39 -53.01 31.68 -23.29"/><path class="cls-6" d="M357,483.26C367,470.88,389.23,454.78,408.63,416c15.95-31.86,23.83-79.39,21.82-130.58,0-.64-.05-1.28-.08-1.92-3.8-85.67-39.2-167.36-100.43-230-2.67-2.72-5.35-5.39-8.05-8-33.39-31.94-68-45.15-106.22-66"/><path class="cls-7" d="M345.44,478.29c9.11-9.88,23.25-21.45,39.6-44.49a212.18,212.18,0,0,0,13.22-21.43c7.1-13,12.85-28.72,16.92-46.2a354.16,354.16,0,0,0,8.75-81c0-.63,0-1.26,0-1.89a345.18,345.18,0,0,0-10.51-80.12c-13.85-54.73-41.74-105.92-80.8-148.9q-3.77-4.12-7.6-8.05a226.88,226.88,0,0,0-24.67-21.74c-15.21-11.6-31.1-20.1-47.07-29.51-.65-.39-1.36-.72-2-1-8.9-4.4-17.81-10.16-27.08-15.29"/><path class="cls-8" d="M333.92,473.32c10.34-10,23.2-21.17,40.28-43.78a222.12,222.12,0,0,0,13.68-20.82A176.41,176.41,0,0,0,406,363.86a356.6,356.6,0,0,0,11.38-79c0-.62,0-1.23,0-1.85a343,343,0,0,0-7.66-79c-11.72-54.23-37.88-105.48-74.55-149-2.34-2.79-4.73-5.5-7.13-8.14a228,228,0,0,0-23.23-22.06c-14.3-11.87-29.6-20.19-44.31-30.22a13.33,13.33,0,0,0-1.89-1c-8.62-4.08-17.05-10.87-26-15.9"/><path class="cls-9" d="M322.41,468.34c11.56-10.19,23.13-20.87,40.94-43a232,232,0,0,0,14.16-20.22,168.55,168.55,0,0,0,19.38-43.52,362.5,362.5,0,0,0,14-77l.12-1.8a340.26,340.26,0,0,0-4.81-77.91c-9.59-53.72-34-105-68.29-149.2-2.18-2.82-4.42-5.56-6.67-8.22A234,234,0,0,0,309.45,25C296.05,12.89,281.31,4.71,267.9-5.91a8.56,8.56,0,0,0-1.77-1c-8.36-3.74-16.31-11.59-24.93-16.52"/><path class="cls-10" d="M310.9,463.37c12.77-10.34,23-20.58,41.61-42.33,4.83-5.66,9.58-12.32,14.62-19.62a162.39,162.39,0,0,0,20.62-42.18c7.29-22.66,13.73-47.61,16.63-75,.06-.58.12-1.17.17-1.76a336.75,336.75,0,0,0-1.95-76.8c-7.48-53.19-30.14-104.56-62-149.36-2-2.84-4.11-5.61-6.22-8.3A240.67,240.67,0,0,0,314,25.32C301.52,12.91,287.3,4.82,275.22-6.33a5.63,5.63,0,0,0-1.66-.91c-8.1-3.36-15.55-12.3-23.85-17.13"/><path class="cls-11" d="M299.38,458.4c14-10.5,22.95-20.29,42.28-41.61,5-5.47,9.84-12,15.1-19a156.36,156.36,0,0,0,21.84-40.85c7.86-22.12,15.35-46.16,19.26-73,.08-.58.17-1.15.24-1.73a334.68,334.68,0,0,0,.91-75.69C393.62,153.89,372.74,102.47,343.23,57c-1.86-2.87-3.8-5.67-5.76-8.39a251.42,251.42,0,0,0-18.9-23c-11.58-12.68-25.3-20.74-36-32.36A4,4,0,0,0,281-7.62c-7.85-2.92-14.8-13-22.77-17.74"/><path class="cls-12" d="M287.87,453.42c15.21-10.65,22.84-20,42.95-40.88,5.08-5.28,10.1-11.63,15.56-18.42a151.84,151.84,0,0,0,23.08-39.51c8.43-21.6,17-44.72,21.88-70.95.11-.56.21-1.12.3-1.69a329.82,329.82,0,0,0,3.77-74.58C392.1,155.31,373,103.82,345.89,57.72c-1.7-2.89-3.49-5.71-5.3-8.47A265.69,265.69,0,0,0,323.13,25.9C312.45,13,299.24,4.85,289.86-7.17A2.77,2.77,0,0,0,288.43-8c-7.63-2.39-14.05-13.74-21.71-18.36"/><path class="cls-13" d="M276.35,448.45c16.44-10.81,22.72-19.71,43.62-40.17,5.21-5.09,10.37-11.28,16-17.82a147.71,147.71,0,0,0,24.31-38.16c9-21.08,18.56-43.28,24.51-68.94.13-.55.26-1.1.37-1.65a326.14,326.14,0,0,0,6.62-73.48c-1.25-51.5-18.53-103-43.26-149.81-1.54-2.92-3.18-5.77-4.85-8.55a282.87,282.87,0,0,0-16-23.67C317.92,13,307.28,3.12,297.18-7.59a1.51,1.51,0,0,0-1.32-.78c-6.83-3.35-13.3-14.45-20.63-19"/><path class="cls-14" d="M264.84,443.48c17.66-11,22.59-19.43,44.29-39.45,5.32-4.91,10.64-10.94,16.5-17.22,10-10.74,19.21-23.26,25.54-36.82,9.61-20.58,20.15-41.83,27.13-66.92.15-.54.3-1.08.44-1.62a321.69,321.69,0,0,0,9.47-72.37c.8-50.91-14.66-102.49-37-150-1.39-2.95-2.88-5.83-4.39-8.64-4.73-8.8-9.72-16.61-14.57-24C323.39,13,313.58,3,304.5-8a1.17,1.17,0,0,0-1.21-.74c-6.49-3.16-12.54-15.17-19.55-19.58"/><path class="cls-15" d="M253.32,438.5c18.88-11.12,22.45-19.15,45-38.72,5.44-4.72,10.91-10.59,17-16.62,10.48-10.42,20.16-22.49,26.78-35.49,10.22-20.07,21.75-40.38,29.76-64.9.17-.52.34-1,.49-1.58a315.87,315.87,0,0,0,12.33-71.26C387.43,159.62,373.8,108,353.87,59.81c-1.23-3-2.57-5.87-3.93-8.72-4.25-8.86-8.77-16.79-13.13-24.31-8-13.77-16.92-24-25-35.21a.91.91,0,0,0-1.09-.7c-6.17-3-11.8-15.88-18.48-20.19"/><path class="cls-16" d="M241.81,433.53c20.1-11.28,22.29-18.88,45.63-38,5.54-4.54,11.19-10.24,17.44-16,10.92-10.08,21.12-21.72,28-34.15,10.85-19.58,23.35-38.93,32.39-62.89.19-.51.38-1,.56-1.53A310.53,310.53,0,0,0,381,210.78c4.82-49.7-7-101.36-24.48-150.27-1.07-3-2.26-5.93-3.48-8.81-3.76-8.92-7.82-17-11.68-24.63C334.32,13,326.2,2.68,319.14-8.85c-.08-.74-.9-.82-1-.66-5.83-2.77-11-16.6-17.4-20.81"/><path class="cls-17" d="M230.29,428.56c21.33-11.44,22.13-18.62,46.3-37.28,5.65-4.37,11.47-9.89,17.91-15.42,11.37-9.75,22.1-20.95,29.24-32.81,11.49-19.09,24.93-37.48,35-60.88.21-.49.43-1,.62-1.49a303.6,303.6,0,0,0,18-69.05c6.79-49.08-3.14-100.78-18.22-150.42-.92-3-1.95-6-3-8.89-3.28-9-6.87-17.14-10.24-25-6.14-14.31-13.42-24.83-19.47-36.63,0-.78-.84-.83-.87-.62-5.49-2.58-10.29-17.31-16.32-21.42"/><path class="cls-18" d="M218.78,423.59c22.54-11.6,21.94-18.38,47-36.57,5.76-4.18,11.76-9.53,18.39-14.81C296,362.8,307.22,352,314.6,340.74c12.15-18.6,26.52-36,37.63-58.86.24-.48.47-1,.69-1.46a298.19,298.19,0,0,0,20.9-67.94c8.73-48.46.67-100.18-12-150.58-.76-3-1.65-6-2.56-9-2.81-9-5.93-17.31-8.8-25.28C345.25,13.07,338.81,2.39,333.78-9.7c.05-.8-.79-.83-.75-.57-5.16-2.39-9.54-18-15.25-22"/><path class="cls-19" d="M207.26,418.61C231,406.86,229,400.48,254.9,382.77c5.86-4,12-9.18,18.85-14.21,12.29-9.07,24.1-19.41,31.7-30.13,12.84-18.12,28.11-34.59,40.27-56.85.25-.47.51-.94.75-1.42a291.64,291.64,0,0,0,23.75-66.83c10.66-47.84,4.46-99.57-5.71-150.73-.61-3.06-1.34-6.08-2.11-9.06-2.32-9.09-5-17.48-7.35-25.6-4.33-14.85-9.93-25.7-13.95-38.06.11-.84-.74-.84-.64-.53-4.82-2.2-8.79-18.74-14.17-22.64"/><path class="cls-20" d="M195.75,413.64c25-11.91,21.56-17.9,48.3-35.12,6-3.84,12.33-8.82,19.32-13.61,12.76-8.73,25.12-18.63,32.94-28.8C309.85,318.5,326,303,339.2,281.28c.27-.45.55-.91.81-1.38a284.45,284.45,0,0,0,26.61-65.72c12.56-47.23,8.24-98.95.55-150.88-.46-3.09-1-6.13-1.65-9.15-1.85-9.14-4-17.65-5.9-25.92-3.43-15.12-8.19-26.14-11.2-38.77.17-.88-.69-.85-.52-.48-4.49-2-8-19.46-13.1-23.26"/><path class="cls-21" d="M184.23,408.67c26.21-12.07,21.37-17.68,49-34.4,6.06-3.67,12.61-8.47,19.79-13,13.22-8.38,26.15-17.84,34.16-27.46,14.27-17.11,31.27-31.69,45.52-52.81.3-.45.6-.89.88-1.35A278.57,278.57,0,0,0,363,215c14.45-46.61,12-98.33,6.81-151-.3-3.1-.73-6.18-1.19-9.22-1.39-9.2-3.08-17.83-4.46-26.25C361.65,13.13,357.74,2,355.74-11c.24-.92-.64-.86-.41-.44-4.15-1.82-7.29-20.18-12-23.87"/><path class="cls-22" d="M172.72,403.69c27.43-12.22,21.15-17.46,49.64-33.67,6.16-3.51,12.91-8.1,20.26-12.41,13.7-8,27.2-17.05,35.4-26.12,15-16.6,32.84-30.25,48.14-50.8.32-.43.64-.86.94-1.3a272.12,272.12,0,0,0,32.32-63.51c16.31-46,15.72-97.7,13.07-151.19-.15-3.12-.43-6.23-.74-9.31-.91-9.24-2.13-18-3-26.56-1.62-15.67-4.7-27-5.68-40.2.3-1-.59-.87-.3-.4-3.81-1.63-6.53-20.89-10.95-24.49"/><path class="cls-23" d="M161.21,398.72c28.64-12.38,20.94-17.27,50.31-33,6.25-3.34,13.19-7.73,20.73-11.8,14.16-7.66,28.25-16.25,36.63-24.78,15.76-16.07,34.4-28.82,50.76-48.79.34-.41.69-.83,1-1.26a266.24,266.24,0,0,0,35.17-62.4c18.15-45.42,19.43-97.08,19.33-151.35,0-3.14-.13-6.27-.28-9.39-.45-9.29-1.18-18.17-1.57-26.88-.71-15.94-2.95-27.46-2.92-40.91.36-1-.54-.88-.18-.36-3.48-1.44-5.79-21.61-9.88-25.1"/><path class="cls-24" d="M149.69,393.75c29.87-12.54,20.72-17.09,51-32.24,6.36-3.18,13.49-7.36,21.2-11.2,14.64-7.3,29.33-15.44,37.86-23.44,16.55-15.52,36-27.38,53.4-46.78.36-.4.72-.8,1.07-1.22a261,261,0,0,0,38-61.29c20-44.83,23.12-96.47,25.59-151.5.14-3.16.17-6.32.18-9.48,0-9.34-.24-18.34-.13-27.2.19-16.21-3.36-28.23-.16-41.62.26-1.09-.49-.89-.07-.32-3.14-1.24-5-22.32-8.8-25.71"/><path class="cls-25" d="M138.18,388.77c31.09-12.69,20.5-16.92,51.65-31.51,6.45-3,13.78-7,21.67-10.6,15.11-6.92,30.4-14.62,39.09-22.11,17.35-14.95,37.54-25.94,56-44.75.38-.39.76-.78,1.13-1.19a255.78,255.78,0,0,0,40.89-60.18c21.77-44.26,26.78-95.86,31.84-151.65.29-3.18.47-6.38.64-9.56.47-9.4.7-18.53,1.31-27.53C383.52,13.21,381,.93,385-12.64c.33-1.13-.43-.9,0-.28-2.8-1.05-4.28-23-7.72-26.32"/><path class="cls-26" d="M126.66,383.8C159,371,146.94,367,179,353c6.55-2.87,14.08-6.62,22.14-10,15.59-6.54,31.49-13.77,40.32-20.76,18.17-14.35,39.12-24.51,58.65-42.74.4-.38.81-.75,1.2-1.15A252,252,0,0,0,345,219.28c23.56-43.71,30.43-95.26,38.1-151.81.43-3.2.77-6.42,1.09-9.64.93-9.45,1.66-18.7,2.76-27.85,2-16.75.52-29.27,5.35-43,.42-1.16-.37-.9.17-.23C390-14.16,389-37,385.85-40.23"/><path class="cls-27" d="M115.15,378.83c33.53-13,20-16.63,53-30.07,6.65-2.71,14.37-6.25,22.61-9.41,16.07-6.15,32.58-12.93,41.56-19.42,19-13.73,40.68-23.08,61.27-40.73q.65-.54,1.26-1.11a247.61,247.61,0,0,0,46.6-58c25.35-43.17,34.07-94.67,44.36-152,.58-3.22,1.07-6.47,1.55-9.73,1.39-9.5,2.6-18.87,4.2-28.17,2.91-17,2.46-29.74,8.11-43.76.49-1.2-.32-.91.28-.18-2.13-.67-2.78-24.47-5.57-27.55"/><path class="cls-28" d="M103.63,373.85c34.76-13.16,19.82-16.49,53.66-29.34C164,342,172,338.64,180.37,335.7c16.54-5.77,33.67-12.07,42.79-18.08C243,304.54,265.4,296,287.05,278.9c.45-.35.9-.7,1.33-1.06A244.53,244.53,0,0,0,337.83,221c27.13-42.64,37.69-94.1,50.62-152.11.72-3.25,1.37-6.53,2-9.82,1.84-9.56,3.55-19,5.64-28.49C399.92,13.27,400.49.37,407-13.91c.57-1.24-.27-.92.39-.14-1.79-.48-2-25.19-4.49-28.17"/><path class="cls-29" d="M92.12,368.88c36-13.31,19.59-16.38,54.32-28.63,6.84-2.41,15-5.48,23.55-8.2,17-5.38,34.76-11.2,44-16.75,20.69-12.38,43.81-20.23,66.53-36.69l1.39-1a242,242,0,0,0,52.3-55.75c28.9-42.14,41.3-93.53,56.88-152.27.86-3.27,1.67-6.57,2.46-9.89,2.3-9.62,4.5-19.22,7.09-28.82C405.39,13.29,407,.23,414.29-14.33c.65-1.28-.22-.93.51-.1-1.47-.29-1.28-25.9-3.42-28.78"/><path class="cls-30" d="M80.6,363.91c37.2-13.47,19.37-16.28,55-27.91,6.93-2.26,15.24-5.1,24-7.6,17.49-5,35.85-10.32,45.25-15.41,21.54-11.66,45.37-18.81,69.15-34.68.48-.32,1-.65,1.45-1,18.28-13,36.93-29.88,55.16-54.64,30.66-41.64,44.91-93,63.14-152.42,1-3.3,2-6.63,2.92-10,2.75-9.68,5.45-19.39,8.53-29.14,5.63-17.82,8.25-31,16.39-45.89.72-1.31-.17-.94.62-.06-1.13-.1-.52-26.62-2.35-29.39"/><path class="cls-31" d="M69.09,358.93c38.42-13.62,19.14-16.18,55.66-27.18,7-2.12,15.54-4.72,24.49-7,18-4.58,36.94-9.42,46.49-14.07,22.4-10.91,46.93-17.39,71.77-32.67.51-.31,1-.62,1.52-.95,19-12.42,38.6-28.89,58-53.53,32.43-41.16,48.5-92.45,69.4-152.57,1.15-3.32,2.26-6.68,3.38-10.07,3.2-9.74,6.39-19.56,10-29.45,6.54-18.1,10.16-31.44,19.15-46.61.8-1.34-.12-1,.73,0-.79.1.23-27.33-1.27-30"/><path class="cls-32" d="M57.57,354c39.64-13.78,18.92-16.1,56.34-26.46,7.12-2,15.82-4.33,25-6.4,18.43-4.17,38-8.52,47.71-12.73,23.25-10.12,48.5-16,74.4-30.65.53-.3,1.06-.6,1.58-.92,19.81-11.85,40.28-27.91,60.88-52.42,34.18-40.7,52.09-91.93,75.65-152.73q1.94-5,3.83-10.15c3.65-9.8,7.35-19.73,11.42-29.77,7.45-18.37,12.07-31.82,21.91-47.32.87-1.38-.07-1,.85,0-.46.29,1-28-.2-30.61"/><path class="cls-33" d="M46.06,349c40.86-13.94,18.7-16,57-25.74,7.22-1.84,16.11-3.95,25.43-5.8,18.9-3.77,39.11-7.6,48.95-11.39,24.1-9.3,50.07-14.57,77-28.64l1.65-.88c20.58-11.29,41.95-26.94,63.73-51.31,35.94-40.25,55.67-91.42,81.91-152.88,1.43-3.37,2.86-6.79,4.29-10.23,4.1-9.87,8.29-19.91,12.86-30.1,8.35-18.64,14-32.19,24.67-48,.95-1.41,0-1,1,.06-.12.48,1.73-28.76.88-31.22"/><path class="cls-34" d="M34.54,344C76.62,329.92,53,328,92.22,319c7.31-1.69,16.39-3.55,25.89-5.19,19.37-3.35,40.18-6.67,50.18-10.06,24.94-8.44,51.64-13.15,79.66-26.62l1.71-.83c21.35-10.74,43.62-26,66.58-50.22C354,186.26,375.5,135.16,404.41,73c1.58-3.39,3.15-6.84,4.75-10.31,4.55-9.94,9.24-20.09,14.3-30.42,9.26-18.91,15.87-32.55,27.43-48.75,1-1.43,0-1,1.07.11.22.68,2.49-29.47,2-31.83"/><path class="cls-35" d="M23,339c43.3-14.25,18.27-15.92,58.34-24.3,7.42-1.55,16.68-3.16,26.37-4.59,19.83-2.94,41.24-5.74,51.41-8.72,25.76-7.55,53.18-11.79,82.28-24.61l1.77-.79c22.13-10.18,45.3-25,69.44-49.11,39.48-39.38,62.85-90.43,94.42-153.18q2.6-5.14,5.21-10.4c5-10,10.19-20.26,15.75-30.74,10.17-19.18,17.76-32.9,30.19-49.46,1.1-1.46.2-1.09,1.19.16.63.8,3.23-30.2,3-32.46"/><path class="cls-36" d="M11.51,334.07c44.53-14.41,18.07-15.89,59-23.58,7.53-1.41,17-2.77,26.84-4,20.3-2.52,42.3-4.79,52.65-7.38,26.57-6.65,54.76-10.36,84.9-22.59l1.84-.76c22.91-9.63,47-24.07,72.29-48,41.25-39,66.43-90,100.68-153.33,1.87-3.46,3.75-7,5.67-10.49,5.44-10.08,11.13-20.43,17.19-31.06,11.07-19.45,19.64-33.24,32.95-50.17,1.17-1.49.18-1,1.3.2.93,1,4-30.91,4.11-33.07"/><path class="cls-37" d="M0,329.1c45.74-14.57,17.86-15.86,59.68-22.86,23.35-3.91,65.54-6.17,81.18-9.43,48.66-10.16,102.4-12.43,164.58-68.19,52-46.65,80.62-111.36,131.7-195.44,12-19.72,21.52-33.58,35.71-50.88,1.25-1.52.19-1,1.41.24s4.74-31.62,5.19-33.68"/></g><path class="cls-38" d="M47.41,17.6l-6.78,0v.05a5.09,5.09,0,0,0,4.56,3h0l29.06-.08.68-3Z"/><path class="cls-39" d="M47.41,17.6l-6.78,0v.05a5.09,5.09,0,0,0,4.56,3h0l29.06-.08.68-3Z"/><path class="cls-38" d="M54.26,20.67H47.77v0a5.09,5.09,0,0,0,4.57,3H80l1.3-3.05Z"/><path class="cls-39" d="M54.26,20.67H47.77v0a5.09,5.09,0,0,0,4.57,3H80l1.3-3.05Z"/><path class="cls-38" d="M61.7,23.79H55.2v0a5.08,5.08,0,0,0,4.56,3H87.4l1.29-3.05Z"/><path class="cls-39" d="M61.7,23.79H55.2v0a5.08,5.08,0,0,0,4.56,3H87.4l1.29-3.05Z"/><path class="cls-38" d="M89.33,29.84l0-2.81-14.62-.14s0,0,0,0l-9.15,0v.05a5.08,5.08,0,0,0,4.56,3H89.33Z"/><path class="cls-39" d="M89.33,29.84l0-2.81-14.62-.14s0,0,0,0l-9.15,0v.05a5.08,5.08,0,0,0,4.56,3H89.33Z"/><path class="cls-38" d="M121,17.73l-27.95-.06.74,3,29.07,0h0a5.08,5.08,0,0,0,4.56-3v-.05Z"/><path class="cls-39" d="M121,17.73l-27.95-.06.74,3,29.07,0h0a5.08,5.08,0,0,0,4.56-3v-.05Z"/><path class="cls-38" d="M113.83,20.81l-27-.06,1.3,3.05h27.62a5.1,5.1,0,0,0,4.57-3v-.05Z"/><path class="cls-39" d="M113.83,20.81l-27-.06,1.3,3.05h27.62a5.1,5.1,0,0,0,4.57-3v-.05Z"/><path class="cls-38" d="M106.39,23.93l-27-.06,1.29,3.05h27.63a5.1,5.1,0,0,0,4.56-3v-.05Z"/><path class="cls-39" d="M106.39,23.93l-27-.06,1.29,3.05h27.63a5.1,5.1,0,0,0,4.56-3v-.05Z"/><path class="cls-38" d="M93.41,27l0,0-14.63.14,0,2.81H98a5.08,5.08,0,0,0,4.57-3V27Z"/><path class="cls-39" d="M93.41,27l0,0-14.63.14,0,2.81H98a5.08,5.08,0,0,0,4.57-3V27Z"/><g class="cls-40"><g class="cls-41"><path class="cls-42" d="M71.8,25c0-7.17,5.48-13,12.24-13s12.25,5.82,12.25,13S90.81,38,84,38,71.8,32.21,71.8,25"/><ellipse class="cls-43" cx="84.04" cy="25.03" rx="12.24" ry="12.99"/></g></g><path class="cls-38" d="M74.26,25c0-5.73,4.38-10.38,9.78-10.38S93.82,19.3,93.82,25,89.45,35.41,84,35.41,74.26,30.76,74.26,25"/><ellipse class="cls-43" cx="84.04" cy="25.03" rx="9.78" ry="10.38"/><path d="M80,29.23V20.75a.83.83,0,0,1,.8-.85h6.25a.83.83,0,0,1,.8.85v8.48a.83.83,0,0,1-.8.85H80.83a.83.83,0,0,1-.8-.85"/><path d="M79.61,28.44v-7a.58.58,0,0,1,.56-.6h7.57a.58.58,0,0,1,.56.6v7a.58.58,0,0,1-.56.61H80.17a.58.58,0,0,1-.56-.61"/><path class="cls-38" d="M80,25.62V22.77a.72.72,0,0,1,.7-.73h6.45a.72.72,0,0,1,.7.73v2.85a.72.72,0,0,1-.7.74H80.73a.72.72,0,0,1-.7-.74"/><path class="cls-44" d="M80.55,28.4h0a.37.37,0,0,1,.37-.39h.45a.38.38,0,0,1,.37.39h0a.39.39,0,0,1-.37.4h-.45a.38.38,0,0,1-.37-.4"/><path class="cls-43" d="M80.55,28.4h0a.37.37,0,0,1,.37-.39h.45a.38.38,0,0,1,.37.39h0a.39.39,0,0,1-.37.4h-.45A.38.38,0,0,1,80.55,28.4Z"/><path class="cls-44" d="M86.19,28.44v-.08a.34.34,0,0,1,.33-.35h.56a.3.3,0,0,1,.29.31v.17a.3.3,0,0,1-.29.31h-.56a.35.35,0,0,1-.33-.36"/><path class="cls-43" d="M86.19,28.44v-.08a.34.34,0,0,1,.33-.35h.56a.3.3,0,0,1,.29.31v.17a.3.3,0,0,1-.29.31h-.56A.35.35,0,0,1,86.19,28.44Z"/><path class="cls-42" d="M81.06,20.69h0a.3.3,0,0,1,.29-.31h5.21a.3.3,0,0,1,.29.31h0a.3.3,0,0,1-.29.31H81.35a.3.3,0,0,1-.29-.31"/><path d="M88.3,23.6v-.83a.29.29,0,0,1,.28-.3h0a.28.28,0,0,1,.28.3v.83a.28.28,0,0,1-.28.29h0a.29.29,0,0,1-.28-.29"/><path d="M79.05,23.6v-.83a.28.28,0,0,1,.28-.3h0a.29.29,0,0,1,.28.3v.83a.29.29,0,0,1-.28.29h0a.28.28,0,0,1-.28-.29"/><path d="M80.62,30.39v-.31h1v.31a.47.47,0,0,1-.46.49h-.11a.48.48,0,0,1-.47-.49"/><path d="M86.33,30.39v-.31h1v.31a.47.47,0,0,1-.46.49H86.8a.48.48,0,0,1-.47-.49"/><path d="M83.43,19.89,86.25,15A.18.18,0,0,1,86.5,15h0a.22.22,0,0,1,.06.27L83.75,20.1a.18.18,0,0,1-.26.06h0a.2.2,0,0,1-.06-.27"/><path d="M84.43,19.84l2.63-4.55a.17.17,0,0,1,.25-.06h0a.2.2,0,0,1,.06.27L84.75,20a.2.2,0,0,1-.26.07h0a.19.19,0,0,1-.06-.26"/><polygon class="cls-44" points="103.28 20.32 99.79 26.06 103.27 23.32 103.77 24.24 107.36 18.88 103.69 21.5 103.28 20.32"/><polygon class="cls-39" points="103.28 20.32 99.79 26.06 103.27 23.32 103.77 24.24 107.36 18.88 103.69 21.5 103.28 20.32"/><polygon class="cls-44" points="64.8 20.32 68.3 26.06 64.81 23.32 64.32 24.24 60.73 18.88 64.39 21.5 64.8 20.32"/><polygon class="cls-43" points="64.8 20.32 68.3 26.06 64.81 23.32 64.32 24.24 60.73 18.88 64.39 21.5 64.8 20.32"/><text class="cls-45" transform="translate(141.08 27.92) scale(1.02 1)"><tspan xml:space="preserve">Троллейбус   г.Иваново   МУП «ИПТ»</tspan></text></svg>