<svg id="Layer_1" data-name="Layer 1" xmlns="http://www.w3.org/2000/svg" xmlns:xlink="http://www.w3.org/1999/xlink" viewBox="0 0 444 280"><defs><style>.cls-1,.cls-10,.cls-11,.cls-12,.cls-13,.cls-14,.cls-15,.cls-16,.cls-17,.cls-18,.cls-19,.cls-20,.cls-21,.cls-22,.cls-23,.cls-24,.cls-25,.cls-26,.cls-27,.cls-28,.cls-29,.cls-30,.cls-31,.cls-32,.cls-33,.cls-34,.cls-35,.cls-36,.cls-37,.cls-39,.cls-43,.cls-6,.cls-7,.cls-8,.cls-9{fill:none;}.cls-2{clip-path:url(#clip-path);}.cls-3,.cls-39,.cls-43{stroke:#000;stroke-width:0.43px;}.cls-10,.cls-11,.cls-12,.cls-13,.cls-14,.cls-15,.cls-16,.cls-17,.cls-18,.cls-19,.cls-20,.cls-21,.cls-22,.cls-23,.cls-24,.cls-25,.cls-26,.cls-27,.cls-28,.cls-29,.cls-3,.cls-30,.cls-31,.cls-32,.cls-33,.cls-34,.cls-35,.cls-36,.cls-37,.cls-43,.cls-6,.cls-7,.cls-8,.cls-9{stroke-miterlimit:10;}.cls-3{fill:url(#linear-gradient);}.cls-4{fill:url(#linear-gradient-2);}.cls-5{fill:url(#linear-gradient-3);}.cls-6{stroke:#bf2242;}.cls-10,.cls-11,.cls-12,.cls-13,.cls-14,.cls-15,.cls-16,.cls-17,.cls-18,.cls-19,.cls-20,.cls-21,.cls-22,.cls-23,.cls-24,.cls-25,.cls-26,.cls-27,.cls-28,.cls-29,.cls-30,.cls-31,.cls-32,.cls-33,.cls-34,.cls-35,.cls-36,.cls-37,.cls-6,.cls-7,.cls-8,.cls-9{stroke-width:1.3px;}.cls-7{stroke:#c02645;}.cls-8{stroke:#c22949;}.cls-9{stroke:#c32d4c;}.cls-10{stroke:#c5314f;}.cls-11{stroke:#c63553;}.cls-12{stroke:#c83856;}.cls-13{stroke:#c93c59;}.cls-14{stroke:#ca405d;}.cls-15{stroke:#cc4460;}.cls-16{stroke:#cd4764;}.cls-17{stroke:#cf4b67;}.cls-18{stroke:#d04f6a;}.cls-19{stroke:#d1536e;}.cls-20{stroke:#d35671;}.cls-21{stroke:#d45a74;}.cls-22{stroke:#d65e78;}.cls-23{stroke:#d7627b;}.cls-24{stroke:#d9657e;}.cls-25{stroke:#da6982;}.cls-26{stroke:#db6d85;}.cls-27{stroke:#dd7188;}.cls-28{stroke:#de748c;}.cls-29{stroke:#e0788f;}.cls-30{stroke:#e17c93;}.cls-31{stroke:#e28096;}.cls-32{stroke:#e48399;}.cls-33{stroke:#e5879d;}.cls-34{stroke:#e78ba0;}.cls-35{stroke:#e88fa3;}.cls-36{stroke:#ea92a7;}.cls-37{stroke:#eb96aa;}.cls-38{fill:#fff;}.cls-39{stroke-linecap:round;stroke-linejoin:round;}.cls-40{opacity:0.98;}.cls-41{clip-path:url(#clip-path-2);}.cls-42{fill:#f2c615;}.cls-44{fill:#f1c616;}.cls-45{fill:#ede3be;}</style><clipPath id="clip-path"><rect class="cls-1" y="-0.27" width="444" height="280"/></clipPath><linearGradient id="linear-gradient" x1="14.96" y1="127.02" x2="420.04" y2="152.19" gradientUnits="userSpaceOnUse"><stop offset="0" stop-color="#ed244c"/><stop offset="0.14" stop-color="#e02046"/><stop offset="0.46" stop-color="#c7173a"/><stop offset="0.76" stop-color="#b81233"/><stop offset="1" stop-color="#b31031"/></linearGradient><linearGradient id="linear-gradient-2" x1="26.05" y1="-244.82" x2="510.49" y2="167.99" gradientTransform="translate(120.61 -236.26) rotate(44.97)" gradientUnits="userSpaceOnUse"><stop offset="0" stop-color="#f7234d"/><stop offset="1" stop-color="#bc193a"/></linearGradient><linearGradient id="linear-gradient-3" x1="-157.54" y1="-29.12" x2="132.67" y2="215.87" gradientTransform="matrix(1.05, -0.23, 0.29, 1.32, 260.48, 36.13)" gradientUnits="userSpaceOnUse"><stop offset="0" stop-color="#e22046"/><stop offset="1" stop-color="#b31031"/></linearGradient><clipPath id="clip-path-2"><rect class="cls-1" x="73.35" y="8.14" width="24.75" height="27.06"/></clipPath></defs><g class="cls-2"><path class="cls-3" d="M461.87,17.26V262.2a34,34,0,0,1-34.1,33.91H11.3A34,34,0,0,1-22.81,262.2V17.26A34,34,0,0,1,11.3-16.65H427.77A34,34,0,0,1,461.87,17.26Z"/><rect class="cls-4" x="250.44" y="-264.69" width="190.5" height="584.5" transform="translate(81.65 252.39) rotate(-44.97)"/><polygon class="cls-5" points="33.36 -28.12 395.38 335.51 457.27 311.33 83.07 -58.74 33.36 -28.12"/><path class="cls-6" d="M358.64,493.81c10.05-12.75,32.27-29.35,51.68-69.28,15.94-32.83,23.82-81.8,21.81-134.54,0-.66-.05-1.32-.08-2a366.91,366.91,0,0,0-100.43-237q-4-4.2-8.05-8.21c-33.38-32.9-68-46.52-106.22-68"/><path class="cls-7" d="M347.12,488.69c9.09-10.15,23.15-22,39.46-45.62A220.1,220.1,0,0,0,400,420.76c6.92-13.07,12.56-28.72,16.6-46.15a373.21,373.21,0,0,0,9.15-85c0-.65,0-1.29,0-1.94a366.17,366.17,0,0,0-9.53-78.57C402.64,151.22,374.34,97,334.33,51.68c-2.5-2.84-5.05-5.6-7.6-8.29a228.47,228.47,0,0,0-22.94-21C288.3,10,272.11,1,255.84-8.86c-.66-.4-1.39-.76-2-1.09-9.18-4.68-18.37-10.76-27.94-16.21"/><path class="cls-8" d="M335.61,483.56c10.31-10.3,23.1-21.74,40.13-44.88A230.34,230.34,0,0,0,389.61,417a183.38,183.38,0,0,0,17.82-44.82A376.1,376.1,0,0,0,419.3,289.3c0-.64,0-1.27.05-1.91a362.51,362.51,0,0,0-6.82-77.51C401.16,152.51,374.61,98.24,337,52.3c-2.34-2.86-4.73-5.65-7.14-8.37a229.51,229.51,0,0,0-21.6-21.3C293.72,10,278.13,1.17,263.13-9.31a14.2,14.2,0,0,0-1.93-1c-8.89-4.35-17.59-11.48-26.83-16.82"/><path class="cls-9" d="M324.09,478.44c11.53-10.47,23-21.45,40.81-44.14a242.28,242.28,0,0,0,14.35-21.06,174.48,174.48,0,0,0,19.05-43.49A381.73,381.73,0,0,0,412.88,289l.12-1.87a360.2,360.2,0,0,0-4.1-76.46c-9.23-56.81-34-111.12-69.15-157.7-2.18-2.89-4.43-5.7-6.68-8.45A237.27,237.27,0,0,0,312.8,22.89C299.13,10,284.1,1.31,270.42-9.76a8.75,8.75,0,0,0-1.81-1c-8.62-4-16.83-12.2-25.73-17.43"/><path class="cls-10" d="M312.58,473.32c12.75-10.64,23-21.16,41.48-43.41,4.9-5.89,9.71-12.82,14.84-20.44a166.8,166.8,0,0,0,20.26-42.15c7.59-23.67,14.3-49.86,17.31-78.72l.18-1.83a355.58,355.58,0,0,0-1.39-75.4c-7.09-56.23-30.09-110.6-62.8-157.82-2-2.92-4.12-5.76-6.23-8.53A244.85,244.85,0,0,0,317.3,23.14C304.55,10,290.05,1.39,277.71-10.21a5.81,5.81,0,0,0-1.7-1C267.65-14.78,260-24.1,251.39-29.23"/><path class="cls-11" d="M301.06,468.19c14-10.79,22.87-20.86,42.15-42.67,5-5.69,10-12.46,15.34-19.81A161.14,161.14,0,0,0,380,364.89c8.16-23.12,16-48.35,20-76.63.09-.6.17-1.2.24-1.79a352.05,352.05,0,0,0,1.34-74.36c-5-55.63-26.18-110-56.45-157.94-1.87-3-3.82-5.81-5.78-8.61A256.43,256.43,0,0,0,321.8,23.4C310,10,296,1.41,285-10.66a4.12,4.12,0,0,0-1.58-.92c-8.12-3.15-15.29-13.66-23.52-18.67"/><path class="cls-12" d="M289.55,463.07c15.19-11,22.76-20.58,42.82-41.94,5.17-5.5,10.26-12.1,15.82-19.18a155.48,155.48,0,0,0,22.7-39.49c8.76-22.57,17.62-46.84,22.75-74.55.1-.58.21-1.17.3-1.75A347.21,347.21,0,0,0,398,212.85c-2.87-55-22.26-109.47-50.1-158-1.71-3-3.51-5.87-5.32-8.7A271.67,271.67,0,0,0,326.3,23.66c-10.92-13.72-24.39-22.3-34-34.77a2.94,2.94,0,0,0-1.47-.87c-7.88-2.6-14.51-14.39-22.42-19.29"/><path class="cls-13" d="M278,457.94c16.42-11.11,22.65-20.28,43.5-41.2,5.29-5.3,10.54-11.74,16.31-18.56A151.31,151.31,0,0,0,361.76,360c9.35-22,19.28-45.33,25.46-72.47.13-.57.26-1.14.37-1.71a342.27,342.27,0,0,0,6.77-72.25C393.57,159.21,376,104.71,350.6,55.42c-1.55-3-3.2-5.92-4.87-8.77-4.87-8.34-9.94-15.76-14.93-22.74-10-14-22.94-22.69-31.22-35.47a1.92,1.92,0,0,0-1.35-.83c-7.06-3.57-13.75-15.11-21.32-19.9"/><path class="cls-14" d="M266.52,452.82c17.64-11.28,22.52-20,44.17-40.47,5.41-5.11,10.82-11.38,16.8-17.93,9.84-10.79,18.86-23.28,25.14-36.82,10-21.51,20.93-43.82,28.18-70.38.15-.56.3-1.12.43-1.68a335.93,335.93,0,0,0,9.48-71.2c1.28-53.75-14.44-108.29-37.41-158.29-1.39-3-2.89-6-4.41-8.86-4.42-8.4-9.07-15.91-13.6-23C326.22,9.93,316.19-.56,306.87-12a1.23,1.23,0,0,0-1.24-.78c-6.71-3.37-13-15.85-20.21-20.52"/><path class="cls-15" d="M255,447.7C273.87,436.25,277.39,428,299.85,408c5.53-4.92,11.1-11,17.28-17.31,10.28-10.45,19.81-22.5,26.36-35.48,10.6-21,22.59-42.3,30.9-68.3.17-.54.35-1.09.5-1.63a330.2,330.2,0,0,0,12.2-70.16C390.4,162,376.54,107.42,356,56.67c-1.23-3.05-2.59-6-4-8.94-4-8.45-8.19-16.07-12.26-23.3C331.63,9.92,322.46-.73,314.16-12.46A1,1,0,0,0,313-13.2c-6.37-3.16-12.21-16.57-19.11-21.13"/><path class="cls-16" d="M243.49,442.57c20.08-11.6,22.23-19.44,45.52-39,5.64-4.73,11.39-10.66,17.77-16.68,10.73-10.13,20.76-21.74,27.58-34.15C345.6,332.26,358.59,312,368,286.52q.3-.79.57-1.59a322.91,322.91,0,0,0,14.91-69.1c5.33-52.44-6.66-107-24.71-158.54-1.08-3.07-2.29-6.06-3.51-9-3.52-8.51-7.31-16.23-10.93-23.6C337.05,9.91,328.73-.9,321.45-12.91c-.08-.76-.91-.85-1-.69-6-3-11.43-17.3-18-21.76"/><path class="cls-17" d="M232,437.45c21.31-11.77,22.07-19.18,46.2-38.26,5.75-4.55,11.68-10.3,18.25-16.06,11.18-9.8,21.73-21,28.8-32.82,11.92-20,25.88-39.27,36.34-64.13q.33-.78.63-1.56a315.94,315.94,0,0,0,17.63-68.05c7.32-51.77-2.8-106.36-18.37-158.65-.92-3.09-2-6.12-3.05-9.1-3.08-8.56-6.44-16.38-9.6-23.88-6.33-15-13.81-26-20.06-38.3,0-.8-.86-.86-.89-.65-5.68-2.76-10.67-18-16.9-22.37"/><path class="cls-18" d="M220.46,432.32C243,420.4,242.35,413.4,267.33,394.8c5.86-4.37,12-9.94,18.74-15.44,11.63-9.45,22.71-20.2,30-31.48,12.59-19.46,27.52-37.76,39.05-62.05.24-.5.48-1,.7-1.52a308.84,308.84,0,0,0,20.34-67c9.29-51.1,1.05-105.69-12-158.77-.77-3.11-1.67-6.16-2.6-9.18-2.63-8.6-5.56-16.53-8.26-24.16-5.42-15.3-12-26.45-17.27-39,0-.84-.81-.87-.78-.6-5.33-2.56-9.89-18.76-15.79-23"/><path class="cls-19" d="M208.94,427.2c23.75-12.09,21.72-18.68,47.55-36.79,6-4.19,12.27-9.57,19.23-14.81,12.09-9.12,23.71-19.43,31.24-30.15,13.29-18.94,29.15-36.24,41.77-60,.26-.49.52-1,.76-1.48a301.24,301.24,0,0,0,23.06-65.94c11.22-50.43,4.88-105-5.68-158.89-.61-3.13-1.37-6.22-2.14-9.26-2.2-8.66-4.68-16.69-6.93-24.46-4.5-15.56-10.27-26.87-14.48-39.71.1-.88-.76-.88-.66-.56-5-2.35-9.13-19.48-14.69-23.6"/><path class="cls-20" d="M197.43,422.07c25-12.25,21.52-18.44,48.22-36.05,6.07-4,12.57-9.2,19.71-14.19,12.56-8.77,24.72-18.64,32.46-28.81,14-18.43,30.79-34.73,44.49-57.88.28-.48.57-1,.83-1.44a293.9,293.9,0,0,0,25.77-64.9c13.14-49.76,8.69-104.32.67-159-.46-3.15-1.06-6.26-1.68-9.34-1.76-8.7-3.81-16.84-5.6-24.74-3.58-15.83-8.5-27.31-11.69-40.42.17-.91-.71-.88-.55-.51-4.64-2.16-8.35-20.21-13.58-24.22"/><path class="cls-21" d="M185.92,417c26.19-12.41,21.32-18.22,48.89-35.32,6.18-3.83,12.87-8.82,20.2-13.56,13-8.42,25.74-17.86,33.68-27.48,14.76-17.9,32.42-33.22,47.21-55.8.3-.46.6-.93.89-1.4a287,287,0,0,0,28.49-63.84c15-49.11,12.47-103.63,7-159.13-.31-3.17-.76-6.31-1.23-9.42-1.32-8.75-2.92-17-4.25-25-2.68-16.1-6.75-27.74-8.91-41.13.23-.95-.65-.89-.43-.47-4.3-1.95-7.59-20.94-12.48-24.83"/><path class="cls-22" d="M174.4,411.83c27.42-12.58,21.12-18,49.57-34.59,6.28-3.66,13.17-8.44,20.69-12.93,13.49-8.07,26.77-17.08,34.89-26.15,15.53-17.37,34.05-31.71,49.93-53.72.33-.45.65-.9,1-1.36a279.71,279.71,0,0,0,31.2-62.79C378.55,171.84,377.87,117.35,375,61c-.17-3.19-.46-6.36-.78-9.5-.89-8.8-2.05-17.15-2.92-25.32-1.76-16.35-5-28.16-6.12-41.83.29-1-.6-.9-.32-.42-3.95-1.75-6.81-21.67-11.38-25.46"/><path class="cls-23" d="M162.89,406.7c28.63-12.74,20.9-17.8,50.24-33.85,6.38-3.49,13.47-8.06,21.17-12.31,14-7.7,27.83-16.27,36.12-24.82,16.32-16.81,35.67-30.19,52.65-51.62.34-.44.69-.88,1-1.33A273.4,273.4,0,0,0,358,221c18.75-47.8,20-102.24,19.71-159.37,0-3.2-.16-6.4-.33-9.58-.45-8.84-1.17-17.31-1.58-25.6-.84-16.62-5.6-28.78-3.33-42.54.17-1.07-.55-.91-.2-.38-3.61-1.55-6-22.39-10.28-26.07"/><path class="cls-24" d="M151.37,401.58c29.86-12.9,20.69-17.62,50.92-33.11,6.48-3.33,13.77-7.69,21.66-11.69,14.44-7.34,28.88-15.46,37.34-23.49,17.12-16.24,37.29-28.69,55.36-49.54.37-.42.74-.85,1.09-1.29a267.47,267.47,0,0,0,36.64-60.68C375,174.61,378.05,120.22,380.43,62.29c.13-3.23.14-6.45.13-9.66,0-8.89-.29-17.47-.25-25.89.07-16.89-3.65-29.34-.54-43.25.25-1.12-.5-.92-.09-.33-3.26-1.35-5.27-23.13-9.17-26.69"/><path class="cls-25" d="M139.86,396.45c31.08-13.06,20.47-17.44,51.59-32.37,6.58-3.16,14.08-7.3,22.14-11.07,14.92-7,29.95-14.64,38.56-22.15,18-15.65,38.91-27.19,58.09-47.46.38-.41.77-.82,1.14-1.24a261.18,261.18,0,0,0,39.36-59.64c22.39-46.55,27.37-100.88,32.4-159.61.28-3.24.44-6.49.59-9.74.4-8.94.58-17.62,1.08-26.18,1-17.15-1.69-29.86,2.25-43.95.32-1.16-.45-.93,0-.29-2.92-1.14-4.51-23.85-8.07-27.3"/><path class="cls-26" d="M128.34,391.33c32.31-13.22,20.25-17.29,52.27-31.64,6.67-3,14.38-6.91,22.63-10.44,15.4-6.59,31-13.81,39.78-20.82,18.79-15,40.52-25.69,60.8-45.37.41-.4.82-.8,1.21-1.21a256.5,256.5,0,0,0,42.08-58.59c24.19-45.94,31-100.2,38.74-159.72.43-3.27.74-6.55,1-9.83.83-9,1.46-17.77,2.42-26.46,1.91-17.42.27-30.37,5-44.66.4-1.2-.39-.94.14-.24-2.57-.94-3.73-24.58-7-27.92"/><path class="cls-27" d="M116.83,386.21c33.52-13.39,20-17.14,52.94-30.91,6.77-2.84,14.68-6.52,23.12-9.81,15.87-6.21,32.1-13,41-19.49,19.65-14.39,42.15-24.2,63.53-43.29.43-.38.86-.77,1.27-1.17A251.93,251.93,0,0,0,343.47,224c26-45.36,34.7-99.55,45.1-159.85.56-3.28,1-6.59,1.49-9.9,1.25-9,2.34-17.93,3.75-26.76,2.82-17.67,2.23-30.83,7.83-45.36.48-1.24-.34-.95.26-.2-2.23-.74-3-25.3-5.86-28.53"/><path class="cls-28" d="M105.31,381.08c34.75-13.55,19.8-17,53.61-30.17,6.88-2.68,15-6.12,23.61-9.19,16.35-5.81,33.19-12.11,42.22-18.15,20.51-13.71,43.76-22.71,66.24-41.21.45-.37.9-.74,1.34-1.13a248.28,248.28,0,0,0,47.51-56.48c27.75-44.78,38.34-98.91,51.44-160,.71-3.31,1.33-6.65,2-10,1.67-9.08,3.21-18.08,5.08-27,3.74-17.94,4.19-31.28,10.62-46.07.55-1.28-.29-1,.37-.15-1.88-.54-2.19-26-4.75-29.16"/><path class="cls-29" d="M93.8,376c36-13.71,19.57-16.89,54.28-29.44,7-2.52,15.3-5.73,24.1-8.56,16.82-5.42,34.27-11.25,43.44-16.82,21.39-13,45.37-21.22,69-39.12.47-.36.94-.72,1.4-1.1a244.47,244.47,0,0,0,50.22-55.43c29.53-44.22,42-98.27,57.79-160.08.85-3.33,1.63-6.69,2.4-10.07,2.1-9.13,4.1-18.23,6.42-27.32C407.47,9.81,409-3.69,416.22-18.76c.63-1.31-.24-1,.49-.11-1.54-.33-1.43-26.76-3.65-29.77"/><path class="cls-30" d="M82.28,370.83c37.19-13.87,19.36-16.77,55-28.7,7.08-2.37,15.6-5.33,24.59-7.94,17.29-5,35.35-10.36,44.65-15.48,22.27-12.25,47-19.74,71.68-37,.49-.34,1-.69,1.47-1.05a242.43,242.43,0,0,0,52.94-54.38C363.86,182.55,378.16,128.58,396.7,66c1-3.35,1.93-6.74,2.86-10.14,2.51-9.19,5-18.39,7.75-27.62C412.88,9.8,415.4-3.84,423.5-19.21c.72-1.35-.17-1,.61-.06-1.19-.14-.65-27.49-2.54-30.39"/><path class="cls-31" d="M70.77,365.71c38.41-14,19.13-16.68,55.63-28,7.18-2.22,15.91-4.94,25.07-7.32,17.77-4.62,36.43-9.47,45.88-14.15,23.15-11.47,48.6-18.26,74.39-35,.52-.33,1-.66,1.54-1,18.28-12.56,37.08-29.09,55.65-53.33,33.06-43.16,49.21-97.06,70.48-160.32,1.14-3.38,2.22-6.79,3.31-10.23,2.94-9.24,5.85-18.55,9.09-27.9,6.49-18.74,10-32.5,19-48.19.79-1.38-.12-1,.73,0-.85.07.11-28.22-1.45-31"/><path class="cls-32" d="M59.25,360.59c39.64-14.2,18.91-16.6,56.31-27.23,7.28-2.07,16.21-4.53,25.56-6.69,18.24-4.22,37.5-8.57,47.09-12.82,24-10.65,50.22-16.78,77.12-32.87l1.6-1c19-12,38.68-28.16,58.37-52.27,34.82-42.66,52.81-96.48,76.83-160.45,1.27-3.4,2.51-6.84,3.76-10.31,3.35-9.29,6.73-18.7,10.42-28.18,7.41-19,12-32.88,21.77-48.9.87-1.41-.07-1,.84,0-.5.28.89-28.94-.34-31.61"/><path class="cls-33" d="M47.74,355.46c40.86-14.36,18.69-16.53,57-26.49,7.38-1.92,16.5-4.13,26-6.07,18.72-3.8,38.58-7.65,48.32-11.48,24.91-9.8,51.83-15.31,79.83-30.79.56-.31,1.12-.62,1.67-.94,19.76-11.49,40.27-27.23,61.08-51.22,36.58-42.16,56.41-95.9,83.18-160.56q2.12-5.14,4.22-10.39c3.77-9.36,7.6-18.86,11.75-28.48,8.32-19.26,13.89-33.24,24.56-49.6.95-1.44,0-1,1,.07-.16.47,1.65-29.67.76-32.23"/><path class="cls-34" d="M36.22,350.34c42.08-14.52,18.48-16.47,57.66-25.76,7.48-1.78,16.8-3.72,26.53-5.44,19.18-3.39,39.64-6.73,49.54-10.15,25.78-8.91,53.45-13.83,82.55-28.71.58-.29,1.15-.59,1.73-.9,20.5-10.95,41.86-26.32,63.8-50.17,38.34-41.68,60-95.34,89.52-160.68q2.34-5.18,4.67-10.47c4.19-9.41,8.48-19,13.1-28.76C434.55,9.77,441.12-4.29,452.66-21c1-1.47,0-1,1.07.11.19.68,2.43-30.4,1.87-32.85"/><path class="cls-35" d="M24.71,345.21C68,330.53,43,328.8,83,320.19c7.59-1.63,17.1-3.31,27-4.81,19.64-3,40.69-5.8,50.75-8.82,26.64-8,55-12.42,85.27-26.62l1.8-.86c21.24-10.43,43.45-25.43,66.51-49.12,40.11-41.22,63.61-94.8,95.87-160.8,1.7-3.48,3.4-7,5.13-10.56,4.6-9.47,9.36-19.16,14.43-29C440,9.76,447.53-4.38,460-21.46c1.1-1.5.21-1.12,1.19.16.62.82,3.19-31.13,3-33.47"/><path class="cls-36" d="M13.2,340.09c44.52-14.85,18.05-16.37,59-24.29,7.69-1.48,17.39-2.91,27.5-4.19,20.11-2.55,41.74-4.85,52-7.48,27.47-7.05,56.67-10.92,88-24.54l1.86-.82c22-9.91,45-24.53,69.23-48.07C352.64,189.94,378,136.44,413,69.78c1.84-3.5,3.69-7.05,5.59-10.63q7.5-14.32,15.76-29.34c11.06-20.06,19.62-34.27,32.92-51.72,1.17-1.53.18-1.07,1.3.2.92,1.05,4-31.85,4.08-34.08"/><path class="cls-37" d="M1.68,335c45.74-15,17.86-16.33,59.68-23.55,23.36-4,65.54-6.35,81.18-9.71,48.66-10.47,102.4-12.81,164.58-70.26,52-48.07,80.62-114.74,131.7-201.37,12-20.32,21.52-34.6,35.71-52.43,1.25-1.56.19-1,1.41.25s4.74-32.58,5.19-34.7"/><path class="cls-38" d="M49.09,14H42.31v0a5.09,5.09,0,0,0,4.56,3.06h0L76,17l.67-3Z"/><path class="cls-39" d="M49.09,14H42.31v0a5.09,5.09,0,0,0,4.56,3.06h0L76,17l.67-3Z"/><path class="cls-38" d="M55.94,17.18H49.45v0A5.09,5.09,0,0,0,54,20.27H81.64l1.3-3.14Z"/><path class="cls-39" d="M55.94,17.18H49.45v0A5.09,5.09,0,0,0,54,20.27H81.64l1.3-3.14Z"/><path class="cls-38" d="M63.38,20.4l-6.5,0v.05a5.08,5.08,0,0,0,4.56,3.05H89.08l1.29-3.15Z"/><path class="cls-39" d="M63.38,20.4l-6.5,0v.05a5.08,5.08,0,0,0,4.56,3.05H89.08l1.29-3.15Z"/><path class="cls-38" d="M91,26.62l0-2.89-14.63-.15,0,0-9.15,0v.05a5.08,5.08,0,0,0,4.56,3.05H91Z"/><path class="cls-39" d="M91,26.62l0-2.89-14.63-.15,0,0-9.15,0v.05a5.08,5.08,0,0,0,4.56,3.05H91Z"/><path class="cls-38" d="M122.71,14.15l-27.95-.07.74,3.11,29.07,0h0a5.08,5.08,0,0,0,4.56-3.05v0Z"/><path class="cls-39" d="M122.71,14.15l-27.95-.07.74,3.11,29.07,0h0a5.08,5.08,0,0,0,4.56-3.05v0Z"/><path class="cls-38" d="M115.51,17.32l-27-.06,1.3,3.15h27.62a5.08,5.08,0,0,0,4.57-3V17.3Z"/><path class="cls-39" d="M115.51,17.32l-27-.06,1.3,3.15h27.62a5.08,5.08,0,0,0,4.57-3V17.3Z"/><path class="cls-38" d="M108.08,20.53l-27-.05,1.29,3.14H110a5.08,5.08,0,0,0,4.56-3.05v0Z"/><path class="cls-39" d="M108.08,20.53l-27-.05,1.29,3.14H110a5.08,5.08,0,0,0,4.56-3.05v0Z"/><path class="cls-38" d="M95.09,23.68l0,0-14.63.15,0,2.89H99.67a5.08,5.08,0,0,0,4.56-3.05v-.05Z"/><path class="cls-39" d="M95.09,23.68l0,0-14.63.15,0,2.89H99.67a5.08,5.08,0,0,0,4.56-3.05v-.05Z"/><g class="cls-40"><g class="cls-41"><path class="cls-42" d="M73.48,21.67c0-7.39,5.48-13.38,12.24-13.38S98,14.28,98,21.67,92.49,35.06,85.72,35.06s-12.24-6-12.24-13.39"/><ellipse class="cls-43" cx="85.72" cy="21.67" rx="12.24" ry="13.39"/></g></g><path class="cls-38" d="M76,21.67C76,15.77,80.32,11,85.72,11s9.78,4.79,9.78,10.69-4.37,10.69-9.78,10.69S76,27.58,76,21.67"/><ellipse class="cls-43" cx="85.72" cy="21.67" rx="9.78" ry="10.69"/><path d="M81.71,26V17.26a.85.85,0,0,1,.8-.88h6.25a.85.85,0,0,1,.8.88V26a.84.84,0,0,1-.8.88H82.51a.84.84,0,0,1-.8-.88"/><path d="M81.29,25.19V18a.6.6,0,0,1,.57-.63h7.56A.6.6,0,0,1,90,18v7.21a.59.59,0,0,1-.56.62H81.86a.59.59,0,0,1-.57-.62"/><path class="cls-38" d="M81.71,22.28V19.34a.73.73,0,0,1,.7-.75h6.46a.73.73,0,0,1,.69.75v2.94a.73.73,0,0,1-.69.76H82.41a.73.73,0,0,1-.7-.76"/><path class="cls-44" d="M82.23,25.15h0a.39.39,0,0,1,.37-.4h.45a.39.39,0,0,1,.37.4h0a.39.39,0,0,1-.37.4H82.6a.39.39,0,0,1-.37-.4"/><path class="cls-43" d="M82.23,25.15h0a.39.39,0,0,1,.37-.4h.45a.39.39,0,0,1,.37.4h0a.39.39,0,0,1-.37.4H82.6A.39.39,0,0,1,82.23,25.15Z"/><path class="cls-44" d="M87.87,25.18v-.07a.35.35,0,0,1,.33-.37h.56a.31.31,0,0,1,.3.32v.17a.31.31,0,0,1-.3.32H88.2a.35.35,0,0,1-.33-.37"/><path class="cls-43" d="M87.87,25.18v-.07a.35.35,0,0,1,.33-.37h.56a.31.31,0,0,1,.3.32v.17a.31.31,0,0,1-.3.32H88.2A.35.35,0,0,1,87.87,25.18Z"/><path class="cls-42" d="M82.74,17.19h0a.3.3,0,0,1,.29-.32h5.21a.31.31,0,0,1,.3.32h0a.32.32,0,0,1-.3.33H83a.31.31,0,0,1-.29-.33"/><path d="M90,20.2v-.86a.29.29,0,0,1,.28-.3h0a.28.28,0,0,1,.27.3v.86a.29.29,0,0,1-.27.3h0a.3.3,0,0,1-.28-.3"/><path d="M80.73,20.2v-.86A.28.28,0,0,1,81,19h0a.29.29,0,0,1,.28.3v.86a.3.3,0,0,1-.28.3h0a.29.29,0,0,1-.28-.3"/><path d="M82.3,27.19v-.32h1v.32a.49.49,0,0,1-.47.51h-.11a.49.49,0,0,1-.47-.51"/><path d="M88,27.19v-.32h1v.32a.49.49,0,0,1-.47.51h-.11a.49.49,0,0,1-.47-.51"/><path d="M85.11,16.38l2.82-5a.17.17,0,0,1,.25-.06h0a.23.23,0,0,1,.06.28l-2.82,5a.18.18,0,0,1-.26.07h0a.22.22,0,0,1-.06-.28"/><path d="M86.11,16.32l2.63-4.68a.17.17,0,0,1,.25-.07h0a.21.21,0,0,1,.06.28l-2.62,4.68a.19.19,0,0,1-.26.07h0a.22.22,0,0,1-.06-.28"/><polygon class="cls-44" points="104.97 16.81 101.47 22.73 104.95 19.91 105.45 20.85 109.04 15.34 105.38 18.04 104.97 16.81"/><polygon class="cls-39" points="104.97 16.81 101.47 22.73 104.95 19.91 105.45 20.85 109.04 15.34 105.38 18.04 104.97 16.81"/><polygon class="cls-44" points="66.48 16.81 69.98 22.73 66.5 19.91 66 20.85 62.41 15.34 66.07 18.04 66.48 16.81"/><polygon class="cls-43" points="66.48 16.81 69.98 22.73 66.5 19.91 66 20.85 62.41 15.34 66.07 18.04 66.48 16.81"/><path class="cls-45" d="M151.36,15h-3.43v9.62h-1.4V15h-3.41V13.87h8.24Z"/><path class="cls-45" d="M159.42,20.73a4.8,4.8,0,0,1-.83,2.95,2.64,2.64,0,0,1-2.24,1.12,2.9,2.9,0,0,1-2.27-.93v3.86h-1.35V16.64H154l.06.89a2.78,2.78,0,0,1,2.3-1,2.68,2.68,0,0,1,2.26,1.09,4.9,4.9,0,0,1,.83,3Zm-1.35-.15a3.55,3.55,0,0,0-.57-2.14,1.84,1.84,0,0,0-1.57-.79,2,2,0,0,0-1.85,1.11v3.82a2,2,0,0,0,1.86,1.1,1.82,1.82,0,0,0,1.55-.78A3.85,3.85,0,0,0,158.07,20.58Z"/><path class="cls-45" d="M160.78,20.57a4.72,4.72,0,0,1,.46-2.12,3.35,3.35,0,0,1,3.14-2A3.35,3.35,0,0,1,167,17.62a4.43,4.43,0,0,1,1,3v.09a4.76,4.76,0,0,1-.44,2.1,3.43,3.43,0,0,1-1.26,1.45,3.56,3.56,0,0,1-1.9.52,3.32,3.32,0,0,1-2.61-1.14,4.37,4.37,0,0,1-1-3Zm1.36.16a3.44,3.44,0,0,0,.62,2.14,2,2,0,0,0,3.27,0,3.75,3.75,0,0,0,.61-2.29,3.48,3.48,0,0,0-.62-2.14,2,2,0,0,0-1.64-.81,1.93,1.93,0,0,0-1.62.8A3.76,3.76,0,0,0,162.14,20.73Z"/><path class="cls-45" d="M176.19,16.64v8h-1.36V17.77h-2.7l-.16,3a6.81,6.81,0,0,1-.68,2.95,2,2,0,0,1-1.76.93H169V23.44l.39,0a1.11,1.11,0,0,0,.94-.77,8.57,8.57,0,0,0,.37-2.57l.15-3.43Z"/><path class="cls-45" d="M184.86,16.64v8h-1.37V17.77H180.8l-.16,3a6.81,6.81,0,0,1-.68,2.95,2,2,0,0,1-1.76.93h-.54V23.44l.39,0a1.11,1.11,0,0,0,.94-.77,8.57,8.57,0,0,0,.37-2.57l.14-3.43Z"/><path class="cls-45" d="M190.32,24.8a3.45,3.45,0,0,1-2.62-1.07,4,4,0,0,1-1-2.87v-.25a4.89,4.89,0,0,1,.45-2.13A3.53,3.53,0,0,1,188.4,17a3.15,3.15,0,0,1,1.75-.53,2.94,2.94,0,0,1,2.4,1,4.51,4.51,0,0,1,.86,2.95V21H188a2.87,2.87,0,0,0,.69,1.91,2.11,2.11,0,0,0,1.66.73,2.32,2.32,0,0,0,1.22-.3,3.06,3.06,0,0,0,.87-.78l.83.65A3.33,3.33,0,0,1,190.32,24.8Zm-.17-7.18a1.82,1.82,0,0,0-1.38.6,2.88,2.88,0,0,0-.68,1.69h4v-.1a2.63,2.63,0,0,0-.55-1.62A1.7,1.7,0,0,0,190.15,17.62Z"/><path class="cls-45" d="M200.1,16.64h1.36v8H200.1V18.81l-3.65,5.84h-1.36v-8h1.36v5.85Zm.37-2.93a1.84,1.84,0,0,1-.61,1.45,2.56,2.56,0,0,1-3.17,0,1.85,1.85,0,0,1-.61-1.45h1.11a1.09,1.09,0,0,0,.28.81,1,1,0,0,0,.81.3,1.09,1.09,0,0,0,.8-.29,1.12,1.12,0,0,0,.29-.82Z"/><path class="cls-45" d="M207.11,17.1a3,3,0,0,1,2.39,1,3.84,3.84,0,0,1,.89,2.66v.12a4.58,4.58,0,0,1-.43,2,3.14,3.14,0,0,1-1.24,1.38,3.5,3.5,0,0,1-1.86.5,3.29,3.29,0,0,1-2.57-1.08,4.15,4.15,0,0,1-1-2.89v-.67a7.51,7.51,0,0,1,.93-4A3.87,3.87,0,0,1,207,14.34a3.66,3.66,0,0,0,1.38-.46.85.85,0,0,0,.36-.73h1.11a2.26,2.26,0,0,1-.41,1.44,2.35,2.35,0,0,1-1.32.74l-1,.23a3.38,3.38,0,0,0-1.82,1,3.57,3.57,0,0,0-.78,1.83A3.31,3.31,0,0,1,207.11,17.1Zm-.27,1.12a2,2,0,0,0-1.58.68,2.78,2.78,0,0,0-.58,1.88v.11a3.17,3.17,0,0,0,.59,2,1.89,1.89,0,0,0,1.59.76,1.92,1.92,0,0,0,1.59-.76,3.49,3.49,0,0,0,.59-2.21,2.68,2.68,0,0,0-.59-1.81A2,2,0,0,0,206.84,18.22Z"/><path class="cls-45" d="M214.51,22.64l1.84-6h1.45l-3.18,9.24c-.49,1.34-1.28,2-2.35,2l-.26,0-.5-.09V26.65l.36,0A1.8,1.8,0,0,0,213,26.4a2.07,2.07,0,0,0,.63-1l.3-.81-2.83-7.92h1.48Z"/><path class="cls-45" d="M222.19,23.68a1.93,1.93,0,0,0,1.27-.45,1.55,1.55,0,0,0,.6-1.11h1.28a2.52,2.52,0,0,1-.47,1.31,3.11,3.11,0,0,1-1.15,1,3.39,3.39,0,0,1-1.53.37,3.23,3.23,0,0,1-2.57-1.1,4.34,4.34,0,0,1-1-3v-.23a4.75,4.75,0,0,1,.43-2.08A3.31,3.31,0,0,1,220.3,17a3.49,3.49,0,0,1,1.88-.5,3.16,3.16,0,0,1,2.22.81,2.87,2.87,0,0,1,.94,2.09h-1.28a2,2,0,0,0-.58-1.28,1.83,1.83,0,0,0-1.3-.49,1.9,1.9,0,0,0-1.6.75,3.6,3.6,0,0,0-.56,2.17v.26a3.46,3.46,0,0,0,.56,2.13A1.9,1.9,0,0,0,222.19,23.68Z"/><path class="cls-45" d="M243.12,17.77h-3.66v6.88H238.1v-8h5Z"/><path class="cls-45" d="M244.32,23.93a.9.9,0,0,1,.2-.59.95.95,0,0,1,1.26,0,.82.82,0,0,1,.22.59.77.77,0,0,1-.22.57,1,1,0,0,1-1.26,0A.84.84,0,0,1,244.32,23.93Z"/><path class="cls-45" d="M255.17,13.87h1.4V24.65h-1.4V16.34l-5.25,8.31H248.5V13.87h1.42v8.31Z"/><path class="cls-45" d="M259.05,24.65v-8h3.09a4.31,4.31,0,0,1,2.42.56,1.83,1.83,0,0,1,.85,1.64,1.64,1.64,0,0,1-.33,1,2,2,0,0,1-1,.68,2.22,2.22,0,0,1,1.15.67,1.75,1.75,0,0,1,.44,1.19,2,2,0,0,1-.81,1.68,3.78,3.78,0,0,1-2.26.59ZM260.4,20h1.75c1.27,0,1.91-.38,1.91-1.13s-.6-1.14-1.81-1.16H260.4Zm0,1.09v2.42h2.24a2.1,2.1,0,0,0,1.27-.32,1.07,1.07,0,0,0,.42-.9q0-1.2-1.74-1.2Z"/><path class="cls-45" d="M272.38,24.65a2.91,2.91,0,0,1-.19-.85,3,3,0,0,1-2.26,1,2.81,2.81,0,0,1-1.92-.67,2.19,2.19,0,0,1-.75-1.7,2.31,2.31,0,0,1,.94-1.95,4.42,4.42,0,0,1,2.65-.69h1.32v-.63a1.51,1.51,0,0,0-.43-1.14,1.7,1.7,0,0,0-1.25-.43,2,2,0,0,0-1.21.37,1.11,1.11,0,0,0-.5.9h-1.36a1.9,1.9,0,0,1,.42-1.16,2.93,2.93,0,0,1,1.15-.88,3.76,3.76,0,0,1,1.58-.33,3.14,3.14,0,0,1,2.15.69,2.54,2.54,0,0,1,.8,1.91v3.69a4.44,4.44,0,0,0,.28,1.75v.12Zm-2.25-1a2.37,2.37,0,0,0,1.21-.33,2,2,0,0,0,.83-.87V20.76h-1.06q-2.49,0-2.49,1.47a1.26,1.26,0,0,0,.42,1A1.63,1.63,0,0,0,270.13,23.6Z"/><path class="cls-45" d="M282.12,24.65h-1.36V21.23h-3.64v3.42h-1.36v-8h1.36v3.47h3.64V16.64h1.36Z"/><path class="cls-45" d="M283.93,20.57a4.85,4.85,0,0,1,.46-2.12,3.38,3.38,0,0,1,3.14-2,3.35,3.35,0,0,1,2.62,1.13,4.44,4.44,0,0,1,1,3v.09a4.76,4.76,0,0,1-.45,2.1,3.43,3.43,0,0,1-1.26,1.45,3.54,3.54,0,0,1-1.9.52,3.32,3.32,0,0,1-2.61-1.14,4.37,4.37,0,0,1-1-3Zm1.37.16a3.44,3.44,0,0,0,.61,2.14,2,2,0,0,0,3.27,0,3.75,3.75,0,0,0,.61-2.29,3.48,3.48,0,0,0-.62-2.14,2,2,0,0,0-1.64-.81,1.93,1.93,0,0,0-1.62.8A3.76,3.76,0,0,0,285.3,20.73Z"/><path class="cls-45" d="M293,24.65v-8h3.09a4.37,4.37,0,0,1,2.43.56,1.84,1.84,0,0,1,.84,1.64,1.64,1.64,0,0,1-.33,1,2,2,0,0,1-1,.68,2.18,2.18,0,0,1,1.15.67,1.75,1.75,0,0,1,.44,1.19,2,2,0,0,1-.81,1.68,3.75,3.75,0,0,1-2.26.59ZM294.32,20h1.75c1.27,0,1.91-.38,1.91-1.13s-.6-1.14-1.8-1.16h-1.86Zm0,1.09v2.42h2.24a2.1,2.1,0,0,0,1.27-.32,1.07,1.07,0,0,0,.42-.9q0-1.2-1.74-1.2Z"/><path class="cls-45" d="M301.05,20.57a4.72,4.72,0,0,1,.46-2.12A3.4,3.4,0,0,1,302.78,17a3.48,3.48,0,0,1,1.87-.51,3.31,3.31,0,0,1,2.61,1.13,4.39,4.39,0,0,1,1,3v.09a4.76,4.76,0,0,1-.44,2.1,3.45,3.45,0,0,1-1.27,1.45,3.53,3.53,0,0,1-1.89.52,3.32,3.32,0,0,1-2.61-1.14,4.32,4.32,0,0,1-1-3Zm1.36.16a3.51,3.51,0,0,0,.61,2.14,2,2,0,0,0,1.64.81,1.92,1.92,0,0,0,1.64-.82,3.75,3.75,0,0,0,.61-2.29,3.48,3.48,0,0,0-.62-2.14,2,2,0,0,0-1.64-.81,1.93,1.93,0,0,0-1.62.8A3.76,3.76,0,0,0,302.41,20.73Z"/><path class="cls-45" d="M323.13,13.87l3.48,8.79,3.49-8.79h1.82V24.65h-1.41v-4.2l.13-4.53-3.49,8.73h-1.08l-3.49-8.71.14,4.51v4.2h-1.41V13.87Z"/><path class="cls-45" d="M338.06,20.12l2.46-6.25h1.63l-3.77,9a5,5,0,0,1-.71,1.22,2.11,2.11,0,0,1-.78.54,2.71,2.71,0,0,1-1.1.19,2.67,2.67,0,0,1-.74-.06l0-1.13.67,0a1.21,1.21,0,0,0,1.14-.75l.18-.38.28-.66-3.63-8h1.57Z"/><path class="cls-45" d="M352,24.65h-1.42V15H345.3v9.62h-1.41V13.87H352Z"/><path class="cls-45" d="M359.05,20.59l1.89,2.94h-1l-2.16-2.87v-.14l2.16-2.88h1Zm2.41,0,1.89,2.94h-1l-2.16-2.87v-.14l2.16-2.88h1Z"/><path class="cls-45" d="M372,13.87h1.41V24.65H372V16.34l-5.25,8.31h-1.41V13.87h1.41v8.31Z"/><path class="cls-45" d="M384.1,24.65h-1.41V15h-5.26v9.62H376V13.87h8.08Z"/><path class="cls-45" d="M394,15H390.6v9.62h-1.4V15h-3.42V13.87H394Z"/><path class="cls-45" d="M396.15,17.62l2.16,2.88v.14l-2.16,2.88h-1L397,20.58l-1.89-3Zm2.56,0,2.16,2.88v.14l-2.16,2.88h-1l1.89-2.94-1.89-3Z"/></g></svg>