<svg width="1829" height="480" viewBox="0 0 1829 480" fill="none" xmlns="http://www.w3.org/2000/svg">
<path d="M534.111 175.3C532.639 173.803 531.777 172.432 530.559 170.528C529.924 169.562 529.239 168.522 528.478 167.404C530.584 164.968 532.361 162.15 533.705 159.052L539.084 146.79L525.839 144.886C523.606 144.556 520.003 143.617 515.791 142.5C507.671 140.367 497.244 137.625 485.876 136.432C489.759 134.731 493.057 131.659 495.365 127.495L497.547 123.56C497.547 123.56 496.964 118.052 494.833 116.326C495.645 114.625 496.279 112.746 496.71 110.689L498.512 101.905L490.037 99.0116C488.717 98.5545 487.399 98.2233 486.105 98.0206C485.623 96.4216 484.912 94.7205 483.948 92.9174L478.924 83.702L469.865 89.0079C467.608 90.3287 465.704 91.8523 464.157 93.552C462.812 93.299 461.365 93.1718 459.843 93.1718C459.843 93.1718 454.667 92.5875 448.958 94.6701L441.65 87.0789L432.998 77.8383C424.903 69.1807 413.942 66.6171 402.778 70.8817C398.516 66.6171 391.868 63.0878 381.541 63.0878C378.039 63.0878 374.968 63.5197 373.167 63.7476C373.167 63.7476 358.958 66.3376 350.965 73.9288L341.273 69.3078C334.777 79.5394 323.664 82.7879 323.664 82.7879C322.902 79.7924 321.609 76.9997 319.757 74.4362L320.39 70.8314C320.39 70.7294 322.572 58.5185 329.22 48.1598L340.791 30.1343L324.399 31.9877C324.451 30.3635 324.374 28.4346 324.146 26.1492L322.674 12.1353L309.835 17.9486C308.414 18.5832 307.221 19.2178 306.106 19.802L303.567 14.3941L297.681 17.4412C297.097 15.9945 296.337 14.3438 295.297 12.44L288.521 0L278.905 10.3839C277.915 11.4504 277.078 12.44 276.368 13.3793L270.532 7.56603L264.644 13.4045C263.909 12.4652 263.097 11.4756 262.107 10.4091L252.39 0L245.589 12.4904C244.549 14.3941 243.813 16.0197 243.23 17.4664L237.369 14.4206L234.831 19.8272C233.715 19.2443 232.523 18.6084 231.101 17.9486L218.212 12.1605L216.791 26.2248C216.563 28.4849 216.486 30.3887 216.537 32.0142L200.12 30.1608L211.716 48.1849C218.39 58.5185 220.52 70.7294 220.52 70.8314L221.129 74.4362C219.277 77.0249 217.958 79.8176 217.222 82.8144C217.222 82.8144 206.718 78.3206 199.688 69.3078L189.793 74.0295C178.502 66.4131 171.499 63.4429 159.32 63.0878C148.993 62.8083 142.345 66.6171 138.082 70.8817C126.892 66.6423 115.956 69.2058 107.888 77.8635C107.888 77.8635 102.585 83.6265 99.2355 87.1041C95.8863 90.6082 90.9381 93.5017 90.9381 93.5017C90.9381 93.5017 83.91 91.9278 76.6778 93.5785C75.1304 91.8774 73.2028 90.3539 70.9188 89.0079L61.8346 83.702L56.836 92.9691C55.8715 94.7457 55.1866 96.4216 54.7309 98.0206C53.4365 98.2233 52.117 98.5545 50.7975 99.0116L42.373 101.955L44.1244 110.689C44.5549 112.796 45.1644 114.675 46.0017 116.376C45.5194 117.315 45.0889 118.305 44.7338 119.346L43.3123 123.586L45.4691 127.52C47.7531 131.659 51.0253 134.756 54.9336 136.458C43.5401 137.651 33.1377 140.392 24.9927 142.525C20.8063 143.617 17.2028 144.581 14.9704 144.911L1.67458 146.841L4.69383 153.695L7.10501 159.154C8.47487 162.2 10.2766 165.018 12.3566 167.456C11.5696 168.572 8.22049 173.828 6.72345 175.325L0 182.154L6.44525 189.263C7.25603 190.126 14.4882 197.717 26.185 197.742C29.3818 197.742 32.5534 197.185 35.6999 196.066C38.8211 200.942 42.5253 205.891 45.901 208.329C39.6836 215.641 32.6051 221.988 22.5312 226.786L14.108 230.796L17.7353 240.419C20.0962 246.232 24.688 252.604 33.5682 255.042C31.6658 260.728 30.753 266.111 29.9409 270.909C28.0371 282.308 27.225 287.03 17.2028 290.559L8.19533 293.707L10.784 302.897C12.864 310.386 15.9853 315.337 19.3596 318.612L13.3714 325.212C13.3714 325.212 27.5814 335.876 41.5105 337.17C41.7132 337.195 53.5889 337.957 58.9173 331.153C61.0489 338.871 64.4232 345.98 67.4928 352.428C73.7857 365.68 77.1349 373.524 72.9233 380.684L63.4084 396.831L82.1082 396.044C90.2784 395.714 97.8656 395.206 104.437 393.581C104.437 393.936 104.412 394.267 104.386 394.597L102.864 408.458L119.255 405.005C120.981 404.497 122.604 403.812 124.076 403.025C134.225 414.906 151.48 424.172 174.721 424.172H176.066L149.348 435.14L168.81 445.27C181.623 451.947 195.857 457.532 212.097 462.279L209.838 470.073L219.607 472.941C225.24 474.592 245.615 480 270.43 480C295.245 480 315.595 474.592 321.254 472.941L330.996 470.073L328.738 462.304C345.002 457.558 359.238 451.972 372.051 445.295L391.513 435.165L364.769 424.199H366.113C389.356 424.199 406.584 414.932 416.733 403.051C418.205 403.838 419.829 404.522 421.554 405.031L437.945 408.484L436.448 394.647C436.423 394.317 436.398 393.962 436.398 393.606C442.945 395.232 450.556 395.714 458.701 396.069L477.401 396.856L467.938 380.735C463.699 373.576 467.074 365.73 473.341 352.478C476.412 346.03 479.787 338.921 481.918 331.204C485.52 333.945 489.404 335.596 493.26 336.46C493.26 336.46 496.254 337.348 499.121 337.424C507.393 337.677 511.528 335.317 517.213 331.737L527.54 325.237L521.5 318.637C524.876 315.387 527.995 310.438 530.077 302.974L532.691 293.757L523.657 290.609C513.609 287.081 512.822 282.358 510.92 270.96C510.108 266.161 509.22 260.755 507.291 255.092C516.172 252.629 520.739 246.258 523.099 240.469L526.702 230.823L518.278 226.811C508.204 222.013 501.126 215.666 494.883 208.354C498.284 205.918 501.988 200.967 505.134 196.093C508.256 197.21 511.427 197.742 514.649 197.767C526.346 197.767 533.603 190.178 534.39 189.314L540.836 182.205L534.111 175.3Z" fill="white"/>
<path fill-rule="evenodd" clip-rule="evenodd" d="M187.963 300.408V222.977C187.963 215.767 185.882 208.556 183.396 201.931H243.455C248.961 209.495 258.958 214.573 270.427 214.573C281.845 214.573 291.842 209.495 297.374 201.931H357.433C354.896 208.583 352.84 215.767 352.84 222.977V300.408H187.963ZM270.402 406.223C262.004 397.871 256.015 396.957 233.382 396.957C206.333 396.957 187.963 381.09 187.963 355.727V304.952H352.815V355.727C352.815 381.09 334.47 396.957 307.371 396.957C284.763 396.932 278.774 397.871 270.402 406.223Z" fill="#FFDD2D"/>
<path d="M197.527 415.794V431.255L184.105 436.663C195.447 441.817 209.529 446.945 226.073 450.727L233.684 425.924C217.446 422.597 206.129 419.12 197.527 415.794Z" fill="white"/>
<path d="M270.41 436.741C254.552 436.741 241.206 435.09 235.877 433.872L227.833 459.894C240.469 462.991 255.262 465.276 270.41 465.276C285.508 465.276 300.301 463.016 312.987 459.894L304.919 433.872C299.59 435.116 286.295 436.741 270.41 436.741Z" fill="white"/>
<path d="M343.276 415.794C334.65 419.12 323.359 422.572 307.119 425.949L314.757 450.752C331.326 446.97 345.357 441.842 356.699 436.688L343.301 431.28V415.794H343.276Z" fill="white"/>
<path d="M169.42 166.363C190.429 155.014 241.784 130.033 206.972 103.097C202.228 99.4421 197 96.142 192.611 92.0536C187.18 96.2426 194.64 106.652 196.518 110.459C196.518 110.459 184.923 111.628 182.157 111.628C164.244 111.551 145.467 100.939 154.982 80.6045C147.852 82.0764 146.989 88.931 144.807 94.7959C140.239 91.6985 132.299 85.0466 126.183 85.9859C131.157 101.905 152.09 116.249 168.328 119.497C151.912 128.434 121.464 135.085 105.452 115.842C94.2127 137.599 109.868 146.688 125.219 158.086C66.7836 184.768 75.4108 214.701 37.0719 238.26C42.0453 240.596 64.2214 235.9 66.2007 235.62C57.8782 246.409 53.9952 250.979 51.5602 256.234C49.2258 261.16 48.1845 266.719 45.8767 278.702C44.0749 288.172 40.7761 297.616 29.2568 303.887C33.7731 312.061 43.7954 305.663 47.9818 304.572C47.4241 305.435 46.0025 315.285 42.248 320.034C61.9374 318.763 52.828 277.23 72.5188 287.232C78.075 290.025 79.7496 296.575 77.1874 301.931C64.2466 328.64 93.6549 352.174 92.0559 375.58C99.2867 375.53 106.772 375.326 111.492 365.553C113.954 370.427 117.759 377.282 119.89 383.882L125.778 373.854C129.405 390.458 144.883 405.792 165.791 407.163C155.819 391.371 167.771 369.818 143.538 346.893C146.558 344.455 153.535 339.759 156.022 336.561C126.285 340.063 95.2526 316.529 109.335 305.359C118.546 298.073 122.58 313.204 136.79 310.664L131.232 305.867C133.186 303.937 135.418 301.424 137.728 299.52C131.689 298.783 125.092 294.924 125.092 294.924L128.695 288.959C93.8576 288.908 92.9687 262.252 107.128 261.185C113.775 260.703 122.377 272.964 143.818 270.401C141.077 267.1 139.986 262.099 138.692 258.418C143.868 257.935 149.958 257.986 154.855 255.6C144.376 254.254 141.737 250.726 133.009 244.124L143.133 240.419C128.442 233.08 129.33 220.312 128.873 207.008C136.56 211.425 145.594 218.28 155.236 215.107C157.519 214.345 158.991 213.278 159.041 210.892C145.29 205.384 136.46 184.185 169.42 166.363ZM144.325 168.445C125.929 188.12 133.896 199.9 137.602 203.53C130.75 202.057 120.525 193.324 122.859 184.87C120.677 187.486 118.445 190.329 116.161 193.248C111.593 199.341 107.509 205.307 103.88 211.095C98.2971 227.699 108.523 244.836 125.929 252.427C106.594 249.582 97.9168 232.37 97.9685 221.403C88.7319 238.87 84.3176 254.813 84.723 268.192C84.9005 273.168 85.3324 277.814 85.9922 282.206C90.4316 290.634 97.5618 293.732 110.273 295.281C98.7289 296.016 92.6136 295.483 87.5899 290.203C95.4553 324.044 132.247 353.341 147.217 378.424C132.222 358.926 101.19 329.884 90.3309 308.888C89.4937 316.479 91.5233 335.926 100.961 347.883C87.0573 334.2 85.9657 313.484 86.8798 301.348C83.3531 292.615 81.1195 282.866 80.8148 271.772C80.5366 261.565 81.2467 252.705 82.7941 244.759C74.0158 257.25 61.328 262.074 55.0868 281.089C56.3043 256.564 74.5987 256.184 88.3 226.405C93.6032 213.38 101.318 202.134 109.843 189.389C99.0085 192.944 90.8887 195.482 78.3546 209.216C87.26 188.145 138.717 164.459 162.29 141.534C155.21 143.033 126.31 143.768 114.309 135.746C136.053 141.636 184.441 134.907 202.71 122.417C190.099 140.57 162.645 141.61 129.228 177.711C133.491 174.309 139.174 170.882 144.325 168.445Z" fill="white"/>
<path d="M494.912 278.701C492.603 266.719 491.588 261.16 489.254 256.234C486.844 250.978 482.936 246.409 474.588 235.62C476.568 235.898 498.794 240.596 503.742 238.26C465.403 214.7 474.031 184.768 415.569 158.086C430.921 146.687 446.576 137.599 435.335 115.816C419.325 135.085 388.877 128.434 372.46 119.472C388.724 116.222 409.633 101.903 414.606 85.9604C408.465 85.0211 400.523 91.673 395.957 94.7439C393.773 88.8803 392.936 82.0257 385.807 80.5273C395.322 100.888 376.52 111.5 358.581 111.576C355.841 111.576 344.27 110.409 344.27 110.409C346.122 106.601 353.582 96.192 348.127 92.0029C343.737 96.1151 338.561 99.3901 333.791 103.047C298.953 129.983 350.36 154.989 371.369 166.312C404.279 184.133 395.525 205.332 381.746 210.765C381.798 213.151 383.269 214.217 385.578 214.979C395.17 218.179 404.253 211.324 411.89 206.88C411.46 220.184 412.372 232.979 397.681 240.291L407.78 243.997C399.051 250.598 396.437 254.126 385.959 255.472C390.831 257.858 396.971 257.808 402.122 258.29C400.803 261.972 399.661 266.973 396.971 270.273C418.437 272.811 427.063 260.575 433.661 261.058C447.769 262.124 446.932 288.781 412.068 288.831L415.671 294.797C415.671 294.797 409.074 298.656 403.01 299.393C405.319 301.271 407.576 303.809 409.531 305.74L403.974 310.537C418.158 313.077 422.217 297.946 431.428 305.231C445.51 316.402 414.504 339.936 384.741 336.433C387.252 339.631 394.23 344.354 397.25 346.79C372.993 369.69 384.918 391.27 374.998 407.086C395.854 405.689 411.332 390.356 415.011 373.752L420.898 383.781C423.004 377.179 426.861 370.325 429.272 365.451C433.966 375.225 441.501 375.428 448.758 375.478C447.109 352.071 476.491 328.537 463.602 301.83C461.013 296.498 462.688 289.948 468.245 287.13C487.985 277.128 478.825 318.662 498.541 319.931C494.76 315.183 493.365 305.333 492.832 304.471C496.994 305.562 506.991 311.96 511.507 303.759C500.063 297.616 496.765 288.171 494.912 278.701ZM458.045 244.733C459.593 252.705 460.38 261.54 460.023 271.746C459.694 282.84 457.486 292.588 453.96 301.321C454.847 313.457 453.782 334.173 439.877 347.857C449.291 335.874 451.346 316.452 450.509 308.862C439.599 329.857 408.593 358.901 393.571 378.398C408.566 353.315 445.358 323.993 453.25 290.177C448.174 295.433 442.111 295.99 430.54 295.254C443.227 293.705 450.356 290.609 454.797 282.179C455.457 277.813 455.889 273.141 456.066 268.167C456.497 254.787 452.057 238.843 442.821 221.377C442.897 232.345 434.219 249.557 414.859 252.4C432.214 244.784 442.466 227.647 436.909 211.07C433.306 205.281 429.247 199.289 424.628 193.223C422.344 190.303 420.112 187.46 417.903 184.845C420.238 193.298 410.013 202.032 403.162 203.505C406.892 199.874 414.834 188.095 396.464 168.418C401.615 170.856 407.298 174.283 411.585 177.634C378.17 141.534 350.74 140.518 338.079 122.341C356.374 134.832 404.761 141.584 426.48 135.669C414.504 143.692 385.578 142.955 378.499 141.457C402.071 164.382 453.579 188.068 462.46 209.141C449.926 195.406 441.781 192.867 430.997 189.312C439.547 202.082 447.21 213.303 452.513 226.328C466.241 256.107 484.56 256.462 485.753 281.012C479.511 262.047 466.849 257.224 458.045 244.733Z" fill="white"/>
<path d="M297.355 201.904C291.849 209.47 281.827 214.548 270.433 214.548C267.769 214.548 265.207 214.243 262.771 213.786C263.455 216.909 265.054 220.132 268.378 222.9C267.034 231.963 270.941 240.443 280.66 242.651C281.7 247.272 284.541 250.75 289.362 252.401L282.587 260.22C279.975 263.215 276.574 264.18 273.834 263.824L243.589 260.397C244.908 257.045 241.407 253.161 231.815 254.812L243.691 221.555L236.458 206.145L222.732 217.873L221.717 252.756L215.804 249.886C208.192 246.586 205.935 260.473 213.191 260.524L216.109 260.55C215.906 261.971 216.364 263.545 217.504 264.052C216.134 264.611 215.729 267.175 217.429 268.089C215.704 268.928 215.449 271.568 216.844 272.71C215.347 275.274 215.069 280.834 220.372 282.23C224.736 283.372 227.476 278.701 228.365 275.985L275.432 290.557C282.055 292.462 286.825 291.395 292.356 286.546L304.637 275.807C303.089 282.84 305.602 289.16 310.955 291.268C310.955 291.268 310.118 297.716 310.448 300.381L326.916 300.408H352.846V222.976C352.846 215.765 354.902 208.556 357.439 201.904H326.916H297.355Z" fill="white"/>
<path d="M226.869 332.195L227.783 333.337C229.051 334.911 229.812 334.531 231.259 333.692L233.389 332.55C234.735 331.534 243.489 334.886 243.971 327.599C244.935 333.032 238.465 344.482 242.372 350.879L247.625 359.486L230.472 359.739C228.595 359.739 227.605 360.883 227.098 361.898L222.607 371.215C221.44 373.678 221.515 376.216 222.987 377.917L226.031 381.345C226.031 381.345 228.518 379.238 229.33 376.471L227.985 375.074C226.869 374.008 226.869 372.992 227.478 371.672L230.244 365.934C231.309 363.675 232.401 363.193 234.836 363.776L248.716 366.772C249.731 367.026 251.38 367.508 252.369 365.807C254.07 362.786 257.064 362.584 260.108 363.066C267.721 364.208 285.304 366.036 291.571 358.699C298.929 368.473 313.317 368.473 312.378 373.601L309.333 390.408H313.9L316.691 373.221C316.996 371.215 318.239 368.473 316.082 366.924C315.194 366.239 314.788 365.884 312.783 362.431C310.171 357.861 310.296 351.006 307.785 345.091C310.171 342.273 312.758 341.309 315.017 341.841C320.091 343.085 321.462 351.845 328.668 358.978C327.856 355.805 327.501 352.327 325.801 349.305C325.801 349.305 330.799 353.19 332.092 357.734C332.904 360.578 333.742 362.659 336.305 363.98C338.005 364.588 340.035 363.776 342.064 361.34C342.064 361.34 337.32 354.586 333.844 350.169C329.073 344.101 322.705 338.008 314.027 338.719C311.286 338.948 308.648 340.192 306.135 341.69C296.265 336.155 288.603 342.02 285.558 342.02L267.086 340.928C263.457 340.699 260.591 336.485 260.591 336.485C260.134 320.847 247.574 314.627 243.235 314.627C243.235 314.627 243.641 311.809 242.499 310.818L238.642 315.667L227.935 311.757L236.333 318.638L227.224 329.225C226.286 330.265 226.413 331.636 226.869 332.195Z" fill="white"/>
<path d="M214.768 354.156C212.179 356.162 212.307 358.954 213.855 362.077L215.403 364.972L219.437 361.899L218.524 359.919C217.864 358.522 217.889 357.101 219.031 356.213L224.816 351.847C226.44 350.653 226.947 350.526 228.673 350.78L240.878 353.344C240.878 353.344 239.026 350.653 238.416 347.911L226.922 346.388C225.298 346.184 224.308 346.871 222.888 347.962L214.768 354.156Z" fill="white"/>
<path d="M292.809 390.408H297.427L304.837 372.155C305.09 371.52 305.445 371.241 305.724 370.707C302.4 369.387 300.446 368.473 297.681 366.874C299.533 369.362 300.979 370.429 300.218 372.739L292.809 390.408Z" fill="white"/>
<path d="M296.744 143.515L305.296 94.3389L272.894 105.357V156.056L296.744 143.515ZM278.374 110.333L299.866 102.412C299.866 102.412 295.679 105.814 290.681 109.242C286.24 112.313 278.374 115.588 278.374 115.588V110.333ZM278.374 122.24L298.039 115.207C298.039 115.207 295.679 117.695 290.706 121.123C286.266 124.168 278.4 127.445 278.4 127.445V122.24H278.374ZM278.374 134.882L295.679 128.232C295.679 128.232 295.679 130.338 290.681 133.74C286.24 136.813 278.374 140.087 278.374 140.087V134.882Z" fill="white"/>
<path d="M239.092 187.002L239.802 188.144H246.475L246.552 189.312C246.628 190.429 246.882 191.571 247.262 192.74C248.302 195.913 250.357 199.239 253.656 201.93C257.487 205.027 263.02 207.261 270.378 207.261C286.338 207.261 293.544 196.929 294.228 189.312L294.279 188.144H300.978L301.688 187.002C307.981 177.152 315.669 166.21 324.6 164.635L300.242 150.495L270.378 166.743L240.487 150.495L216.154 164.635C225.086 166.184 232.774 177.152 239.092 187.002Z" fill="white"/>
<path d="M267.866 156.056V105.357L235.514 94.3389L244.014 143.515L267.866 156.056ZM262.41 140.138C262.41 140.138 254.545 136.838 250.104 133.791C245.105 130.388 245.105 128.257 245.105 128.257L262.435 134.907V140.138H262.41ZM262.41 110.333V115.588C262.41 115.588 254.545 112.313 250.104 109.242C245.08 105.814 240.867 102.412 240.867 102.412L262.41 110.333ZM262.41 122.24V127.47C262.41 127.47 254.545 124.195 250.104 121.148C245.08 117.721 242.746 115.233 242.746 115.233L262.41 122.24Z" fill="white"/>
<path d="M270.407 72.6592C251.91 72.6592 238.031 78.7268 235.011 85.8345L270.407 99.8232L305.752 85.8345C302.758 78.7268 288.904 72.6592 270.407 72.6592Z" fill="white"/>
<path d="M270.406 52.3502C284.032 52.3502 297.683 56.4889 306.868 61.8452C308.365 56.8943 309.964 53.3664 312.146 49.3296L303.773 50.624L296.998 36.153L284.337 42.8804L270.406 29.0957L256.452 42.8804L243.816 36.153L236.99 50.624L228.616 49.3296C230.798 53.3664 232.372 56.8943 233.919 61.8452C243.131 56.4889 256.73 52.3502 270.406 52.3502Z" fill="white"/>
<path d="M501.306 163.8C505.873 163.217 509.552 161.694 514.043 158.342C504.376 155.779 484.128 148.442 466.849 151.742C461.139 152.504 457.968 154.814 459.997 156.134C469.284 162.303 480.753 176.597 489.101 193.276C496.434 184.162 493.364 172.204 491.817 168.776C506.431 177.586 510.262 181.876 517.037 180.202C513.409 174.641 508.309 169.64 501.306 163.8Z" fill="white"/>
<path d="M51.7089 193.251C60.0566 176.571 71.5255 162.278 80.8376 156.109C82.9176 154.788 79.6957 152.478 74.0374 151.716C56.7326 148.441 36.4337 155.753 26.7665 158.318C31.308 161.668 34.9115 163.192 39.5298 163.776C32.5017 169.64 27.4011 174.616 23.7725 180.176C30.5979 181.852 34.4041 177.561 48.9943 168.752C47.4973 172.205 44.4012 184.137 51.7089 193.251Z" fill="white"/>
<path fill-rule="evenodd" clip-rule="evenodd" d="M153.035 348.062C159.758 342.731 165.341 340.065 165.062 327.143C154.963 332.321 126.316 332.043 114.34 315.541C110.965 310.845 114.569 308.483 117.841 312.19C126.036 321.482 141.211 317.268 146.742 314.602C145.853 311.403 143.393 307.239 141.337 305.462C143.418 303.431 149.279 300.384 150.471 295.155C147.35 293.454 135.196 292.235 135.196 292.235C137.15 290.357 139.587 287.741 138.115 280.76C125.707 284.568 110.356 279.39 106.88 274.794C103.455 270.275 106.956 266.036 109.849 269.031C116.039 275.531 146.539 282.969 157.881 271.671C153.668 270.504 149.026 266.747 148.189 264.411C158.693 263.345 167.066 257.15 167.751 249.432C161.94 249.432 150.979 249.001 147.224 246.208C152.248 244.355 155.445 242.527 157.044 236.891C137.835 235.722 136.313 221.455 136.212 219.095C148.721 226.304 170.745 223.105 165.036 205.334C154.633 204.776 144.153 187.944 172.75 172.484C198.757 158.393 228.318 143.212 225.704 118.204C224.004 102.21 197.692 91.2934 194.343 83.1948C183.356 88.4252 181.148 94.4929 186.096 104.673C186.096 104.673 161.61 107.11 159.683 92.03C158.846 85.2774 163.362 78.9554 168.208 74.1066C165.467 74.1066 147.02 69.1557 141.464 84.1858C131.137 77.1285 122.282 77.3815 115.329 84.8456C126.443 91.4458 133.319 114.092 151.69 120.769C138.622 127.852 117.486 124.882 105.155 103.099C93.4831 120.692 86.7596 138.109 111.803 156.717C66.2567 177.458 66.5866 217.114 26.9534 236.002C30.9623 246.791 39.4371 246.791 50.2463 245.117C33.1191 267.382 47.7093 290.686 20.585 300.207C23.122 309.296 28.2225 316.556 38.2196 313.891C35.3779 318.334 33.5006 318.232 29.085 323.106C43.9031 332.449 61.4874 325.696 65.4711 295.713C66.1812 290.357 73.5393 293.708 71.0022 298.963C54.1029 333.922 96.8322 360.223 81.7094 385.864C95.0304 385.305 105.205 384.265 110.737 379.771C113.452 385.154 115.101 390.485 114.492 395.739C121.85 394.242 124.539 389.901 125.047 384.874C129.868 398.964 147.122 414.019 174.729 414.019C160.088 393.1 173.714 371.9 153.035 348.062ZM125.783 373.831L119.897 383.858C117.791 377.258 113.959 370.403 111.498 365.529C106.754 375.303 99.2685 375.507 92.0615 375.557C93.6606 352.15 64.2523 328.616 77.1931 301.908C79.7818 296.577 78.0807 290.027 72.5244 287.209C52.8098 277.206 61.9431 318.739 42.2537 320.009C46.0095 315.262 47.4297 305.412 47.9888 304.548C43.8011 305.64 33.7788 312.037 29.2625 303.863C40.7818 297.593 44.0806 288.148 45.8824 278.678C48.1663 266.695 49.2315 261.136 51.5406 256.211C53.977 250.955 57.8587 246.386 66.1812 235.597C64.2019 235.875 42.051 240.573 37.0524 238.237C75.3913 214.676 66.7641 184.745 125.199 158.063C109.874 146.664 94.2183 137.575 105.434 115.818C121.445 135.061 151.868 128.411 168.309 119.474C152.07 116.224 131.137 101.907 126.189 85.9624C132.304 85.0231 140.246 91.675 144.788 94.7724C146.995 88.8823 147.859 82.0528 154.988 80.581C145.473 100.916 164.25 111.527 182.164 111.604C184.954 111.604 196.525 110.436 196.525 110.436C194.673 106.628 187.187 96.2191 192.617 92.03C197.007 96.1436 202.233 99.4186 206.979 103.074C241.816 130.035 190.435 155.016 169.426 166.364C136.465 184.187 145.295 205.411 159.048 210.819C158.997 213.205 157.526 214.271 155.242 215.033C145.6 218.231 136.567 211.351 128.88 206.934C129.335 220.237 128.422 233.032 143.139 240.343L133.014 244.025C141.718 250.65 144.383 254.155 154.862 255.526C149.964 257.912 143.9 257.861 138.698 258.344C140.017 262.024 141.084 267.025 143.823 270.327C122.383 272.865 113.782 260.628 107.134 261.11C92.9756 262.176 93.8633 288.833 128.701 288.885L125.099 294.85C125.099 294.85 131.695 298.71 137.76 299.445C135.451 301.323 133.218 303.863 131.264 305.792L136.82 310.591C122.587 313.129 118.578 297.998 109.341 305.285C95.2596 316.455 126.291 339.99 156.029 336.485C153.542 339.685 146.539 344.406 143.545 346.844C167.776 369.744 155.825 391.322 165.797 407.139C144.89 405.768 129.412 390.408 125.783 373.831Z" fill="black"/>
<path fill-rule="evenodd" clip-rule="evenodd" d="M87.5424 290.205C92.5926 295.46 98.6814 296.018 110.227 295.281C97.5143 293.734 90.3841 290.637 85.9446 282.208C85.31 277.842 84.8782 273.17 84.7006 268.194C84.2952 254.815 88.7095 238.871 97.9462 221.404C97.8958 232.347 106.548 249.559 125.908 252.428C108.501 244.812 98.276 227.676 103.857 211.097C107.486 205.309 111.572 199.318 116.139 193.251C118.423 190.331 120.655 187.488 122.837 184.872C120.503 193.326 130.729 202.059 137.579 203.533C133.875 199.901 125.908 188.147 144.303 168.473C139.178 170.909 133.494 174.336 129.181 177.688C162.572 141.587 190.051 140.571 202.662 122.394C184.393 134.884 136.007 141.637 114.261 135.722C126.263 143.745 155.164 143.008 162.242 141.511C138.696 164.436 87.239 188.122 78.3071 209.193C90.8412 195.434 98.961 192.919 109.821 189.391C101.27 202.161 93.5822 213.383 88.279 226.405C74.5777 256.16 56.2581 256.541 55.0645 281.065C61.307 262.05 73.9935 257.226 82.773 244.736C81.2243 252.707 80.489 261.542 80.7686 271.747C81.0733 282.843 83.3056 292.591 86.8323 301.324C85.9446 313.459 87.0098 334.175 100.915 347.859C91.4758 335.902 89.4461 316.455 90.2834 308.865C101.168 329.859 132.201 358.903 147.196 378.401C132.201 353.343 95.4343 324.046 87.5424 290.205Z" fill="black"/>
<path fill-rule="evenodd" clip-rule="evenodd" d="M431.021 189.39C441.805 192.944 449.95 195.457 462.484 209.217C453.604 188.146 402.07 164.459 378.524 141.535C385.602 143.008 414.528 143.768 426.505 135.746C404.784 141.662 356.398 134.909 338.104 122.417C350.74 140.595 378.194 141.611 411.61 177.711C407.323 174.361 401.639 170.934 396.488 168.496C414.858 188.171 406.916 199.951 403.187 203.581C410.037 202.109 420.262 193.376 417.928 184.922C420.136 187.536 422.369 190.381 424.653 193.299C429.244 199.392 433.305 205.359 436.934 211.147C442.515 227.75 432.264 244.886 414.908 252.477C434.269 249.634 442.947 232.396 442.845 221.454C452.107 238.921 456.521 254.863 456.116 268.243C455.938 273.219 455.506 277.865 454.846 282.257C450.38 290.685 443.25 293.783 430.564 295.331C442.135 296.043 448.199 295.509 453.274 290.255C445.382 324.096 408.616 353.393 393.595 378.476C408.616 358.978 439.598 329.934 450.533 308.94C451.37 316.53 449.34 335.977 439.901 347.935C453.806 334.251 454.872 313.534 453.984 301.399C457.485 292.666 459.693 282.918 460.048 271.822C460.378 261.617 459.592 252.757 458.068 244.811C466.873 257.301 479.534 262.125 485.802 281.14C484.61 256.591 466.29 256.209 452.562 226.455C447.234 213.356 439.571 202.134 431.021 189.39Z" fill="black"/>
<path fill-rule="evenodd" clip-rule="evenodd" d="M490.596 245.063C501.378 246.764 509.853 246.765 513.887 235.975C474.254 217.086 474.584 177.457 429.039 156.69C454.082 138.107 447.334 120.666 435.687 103.072C423.381 124.853 402.168 127.825 389.152 120.741C407.471 114.064 414.399 91.419 425.513 84.8175C418.56 77.3548 409.68 77.1004 399.351 84.1577C393.77 69.129 375.348 74.0798 372.584 74.0798C377.405 78.9035 381.971 85.2242 381.109 92.0033C379.205 107.082 354.72 104.646 354.72 104.646C359.668 94.4648 357.461 88.3971 346.474 83.1681C343.125 91.2667 316.838 102.183 315.112 118.178C312.474 143.184 342.084 158.366 368.067 172.455C396.662 187.916 386.183 204.773 375.805 205.307C370.045 223.078 392.07 226.276 404.604 219.067C404.554 221.427 402.955 235.696 383.748 236.863C385.371 242.5 388.544 244.327 393.567 246.18C389.811 248.998 378.85 249.405 373.066 249.405C373.751 257.122 382.149 263.342 392.653 264.383C391.816 266.719 387.147 270.476 382.961 271.645C394.303 282.941 424.801 275.502 430.993 269.004C433.835 266.007 437.31 270.248 433.911 274.767C430.409 279.387 415.084 284.567 402.65 280.733C401.23 287.689 403.615 290.33 405.569 292.208C405.569 292.208 393.415 293.426 390.269 295.127C391.461 300.357 397.347 303.378 399.403 305.434C397.322 307.212 394.86 311.376 393.973 314.574C399.556 317.265 414.729 321.454 422.874 312.163C426.172 308.481 429.775 310.817 426.4 315.513C414.424 332.015 385.777 332.27 375.653 327.116C375.374 340.038 380.956 342.704 387.68 348.035C366.976 371.874 380.652 393.072 366.011 413.941C393.593 413.941 410.846 398.885 415.667 384.796C416.226 389.797 418.865 394.164 426.198 395.662C425.639 390.407 427.263 385.075 429.952 379.693C435.535 384.187 445.71 385.228 459.031 385.786C443.933 360.145 486.662 333.843 469.713 298.884C467.201 293.63 474.559 290.278 475.269 295.636C479.227 325.618 496.837 332.37 511.68 323.028C507.214 318.154 505.362 318.256 502.52 313.812C512.517 316.478 517.593 309.218 520.155 300.128C493.158 290.633 507.748 267.328 490.596 245.063ZM492.878 304.572C493.411 305.434 494.807 315.285 498.588 320.032C478.872 318.763 488.007 277.229 468.292 287.232C462.735 290.025 461.085 296.575 463.649 301.931C476.538 328.638 447.156 352.172 448.806 375.58C441.548 375.529 434.013 375.326 429.318 365.552C426.908 370.427 423.026 377.282 420.92 383.882L415.033 373.854C411.38 390.457 395.902 405.792 375.044 407.188C384.965 391.396 373.039 369.818 397.297 346.893C394.252 344.455 387.274 339.734 384.763 336.534C414.526 340.038 445.532 316.504 431.449 305.333C422.239 298.047 418.18 313.178 403.995 310.639L409.553 305.841C407.598 303.912 405.34 301.399 403.032 299.494C409.096 298.758 415.693 294.899 415.693 294.899L412.09 288.933C446.927 288.882 447.764 262.225 433.683 261.159C427.06 260.676 418.433 272.939 396.992 270.374C399.708 267.074 400.823 262.073 402.143 258.392C396.967 257.909 390.851 257.961 385.98 255.573C396.459 254.229 399.098 250.699 407.801 244.099L397.703 240.392C412.394 233.055 411.455 220.285 411.912 206.983C404.249 211.4 395.165 218.254 385.6 215.081C383.316 214.32 381.819 213.253 381.769 210.867C395.547 205.434 404.325 184.236 371.391 166.413C350.406 155.065 299.001 130.084 333.813 103.148C338.582 99.4925 343.759 96.191 348.123 92.104C353.579 96.293 346.119 106.702 344.267 110.51C344.267 110.51 355.837 111.678 358.578 111.678C376.516 111.601 395.317 100.99 385.803 80.6297C392.933 82.1016 393.77 88.9814 395.952 94.8463C400.519 91.7489 408.436 85.1222 414.601 86.0615C409.603 101.98 388.721 116.324 372.456 119.574C388.874 128.51 419.32 135.162 435.332 115.918C446.547 137.675 430.917 146.763 415.566 158.162C474.026 184.819 465.374 214.777 503.738 238.336C498.791 240.672 476.563 235.975 474.584 235.696C482.958 246.485 486.865 251.054 489.25 256.31C491.584 261.235 492.6 266.769 494.908 278.777C496.735 288.247 500.059 297.692 511.528 303.962C507.037 312.061 497.04 305.663 492.878 304.572Z" fill="black"/>
<path fill-rule="evenodd" clip-rule="evenodd" d="M214.505 370.099L222.853 363.017L221.585 360.478C220.671 358.65 221.153 358.548 222.118 357.838L226.532 354.563C227.547 353.725 228.613 353.827 229.856 354.131L243.076 357.229H229.121C225.899 357.431 224.959 358.675 223.792 361.061L222.828 363.017L219.251 370.379C218.032 372.918 217.397 376.294 220.595 380.103L223.132 383.124L218.007 393.507H222.32L225.872 386.296C226.152 386.043 231.405 381.245 232.52 376.294C230.998 375.05 229.933 374.188 230.77 372.461L232.368 369.008C232.902 367.866 233.079 367.409 234.601 367.688L248.455 370.684C250.18 371.166 252.718 371.928 254.57 369.135C256.473 366.241 256.727 366.546 261.141 366.977L268.221 367.738C277.888 368.653 287.556 366.241 291.31 363.245C292.63 366.241 295.244 368.552 296.461 370.886C296.918 371.75 296.158 372.969 295.573 374.492L287.631 393.482H299.887L306.815 376.167C307.448 374.518 308.387 373.197 309.097 372.537L305.113 393.507H317.014L320.161 372.766C320.846 368.145 320.439 366.672 318.232 364.768C313.284 360.579 313.386 351.796 311.787 346.465C312.624 345.982 313.614 345.728 314.781 345.88C317.369 346.108 319.323 352.735 322.368 356.999C328.458 365.555 336.754 375 346.27 361.696C345.356 360.174 344.366 358.803 343.199 357.482L340.535 354.359C338.988 352.633 331.63 344.204 328.559 341.184C321.581 334.152 310.874 335.218 306.611 338.645C296.943 333.567 286.744 338.898 284.334 338.696L267.689 337.68C266.927 337.629 265.785 337.375 264.973 336.081L268.069 335.066C265.176 323.006 257.894 312.927 245.181 311.175C245.181 311.175 244.446 307.368 242.492 306.631L238.686 311.1C237.621 311.252 236.453 311.582 235.489 311.987L219.251 305.946L231.43 318.259C231.43 318.259 225.112 327.22 223.31 329.048C222.118 330.724 222.218 332.019 223.563 333.618L225.924 336.715C227.141 338.314 228.486 338.264 230.44 337.274L233.104 335.878C234.271 334.913 238.178 336.817 239.853 335.294C238.788 338.798 238.255 342.173 238.001 344.839L227.066 343.519C224.68 343.19 223.589 343.519 222.143 344.661L212.805 351.846C209.761 354.182 208.822 358.218 210.699 362.153L214.505 370.099ZM304.835 372.157L297.426 390.435H292.807L300.217 372.74C300.977 370.456 299.532 369.389 297.68 366.901C300.42 368.45 302.399 369.465 305.723 370.735C305.443 371.243 305.088 371.522 304.835 372.157ZM233.383 332.578L231.277 333.695C229.806 334.532 229.07 334.913 227.801 333.338L226.887 332.171C226.431 331.612 226.279 330.267 227.217 329.201L236.301 318.614L227.928 311.734L238.585 315.669L242.492 310.795C243.634 311.76 243.229 314.577 243.229 314.577C247.542 314.577 260.101 320.823 260.584 336.462C260.584 336.462 263.425 340.65 267.054 340.879L285.551 341.996C288.621 341.996 296.284 336.157 306.128 341.666C308.615 340.168 311.279 338.975 314.02 338.671C322.698 338.036 329.091 344.077 333.837 350.171C337.313 354.588 342.083 361.341 342.083 361.341C340.028 363.779 338.023 364.591 336.324 363.981C333.76 362.662 332.923 360.604 332.112 357.736C330.818 353.192 325.819 349.308 325.819 349.308C327.519 352.355 327.874 355.807 328.686 358.98C321.455 351.821 320.084 343.088 315.035 341.869C312.803 341.311 310.189 342.275 307.778 345.068C310.316 350.983 310.189 357.838 312.803 362.433C314.781 365.86 315.213 366.165 316.1 366.926C318.232 368.45 317.039 371.217 316.71 373.222L313.97 390.41H309.352L312.396 373.603C313.335 368.475 298.948 368.475 291.59 358.701C285.322 366.037 267.739 364.21 260.127 363.067C257.057 362.61 254.063 362.814 252.388 365.835C251.399 367.536 249.749 367.028 248.735 366.774L234.854 363.779C232.419 363.22 231.353 363.702 230.288 365.937L227.522 371.674C226.913 373.019 226.939 374.01 228.054 375.102L229.374 376.498C228.588 379.239 226.076 381.347 226.076 381.347L223.056 377.945C221.585 376.219 221.508 373.731 222.675 371.293L227.167 361.9C227.699 360.859 228.664 359.742 230.541 359.742L247.693 359.487L242.442 350.932C238.533 344.509 245.029 333.06 244.039 327.652C243.507 334.887 234.754 331.587 233.383 332.578ZM214.76 354.156L222.878 347.962C224.325 346.87 225.289 346.16 226.939 346.363L238.408 347.886C239.041 350.627 240.868 353.319 240.868 353.319L228.664 350.754C226.939 350.552 226.431 350.627 224.807 351.796L219.022 356.162C217.88 357.051 217.829 358.473 218.489 359.869L219.428 361.875L215.393 364.921L213.845 362.027C212.273 358.955 212.171 356.137 214.76 354.156Z" fill="black"/>
<path fill-rule="evenodd" clip-rule="evenodd" d="M250.134 133.765C254.574 136.838 262.441 140.113 262.441 140.113V134.882L245.109 128.257C245.109 128.257 245.109 130.388 250.134 133.765Z" fill="black"/>
<path fill-rule="evenodd" clip-rule="evenodd" d="M262.41 127.468V122.238L242.746 115.206C242.746 115.206 245.08 117.694 250.105 121.121C254.545 124.168 262.41 127.468 262.41 127.468Z" fill="black"/>
<path fill-rule="evenodd" clip-rule="evenodd" d="M262.413 115.59V110.336L240.87 102.415C240.87 102.415 245.083 105.817 250.107 109.244C254.546 112.315 262.413 115.59 262.413 115.59Z" fill="black"/>
<path fill-rule="evenodd" clip-rule="evenodd" d="M322.929 187.005H344.952C344.04 183.806 340.614 180.583 334.194 180.583C328.105 180.583 324.451 184.085 322.929 187.005Z" fill="black"/>
<path fill-rule="evenodd" clip-rule="evenodd" d="M299.89 102.415L278.397 110.336V115.59C278.397 115.59 286.264 112.315 290.704 109.244C295.702 105.817 299.89 102.415 299.89 102.415Z" fill="black"/>
<path fill-rule="evenodd" clip-rule="evenodd" d="M295.702 128.257L278.397 134.907V140.138C278.397 140.138 286.264 136.838 290.704 133.791C295.702 130.388 295.702 128.257 295.702 128.257Z" fill="black"/>
<path fill-rule="evenodd" clip-rule="evenodd" d="M298.035 115.206L278.371 122.238V127.468C278.371 127.468 286.262 124.193 290.677 121.146C295.701 117.694 298.035 115.206 298.035 115.206Z" fill="black"/>
<path fill-rule="evenodd" clip-rule="evenodd" d="M206.568 180.583C200.149 180.583 196.723 183.806 195.811 187.005H217.859C216.287 184.085 212.683 180.583 206.568 180.583Z" fill="black"/>
<path fill-rule="evenodd" clip-rule="evenodd" d="M314.151 88.2982C314.151 75.9085 293.345 64.8145 270.382 64.8145C247.419 64.8145 226.613 75.9085 226.613 88.2982L227.095 91.3439L236.23 143.972L192.841 169.283C188.222 172 182.438 179.464 181.702 186.979H189.619C190.938 179.464 196.849 171.136 207.938 171.645C217.96 172.178 223.898 178.271 229.784 186.979L231.307 189.264L233.489 192.691H169.675C174.369 202.109 178.809 212.112 178.809 222.953V355.703C178.809 389.849 205.02 406.123 233.413 406.123C255.336 406.123 258.304 405.132 270.407 417.243C282.461 405.132 285.428 406.123 307.402 406.123C335.77 406.123 362.005 389.849 362.005 355.703V222.978C362.005 212.137 366.446 202.134 371.14 192.716H307.276L309.483 189.289L311.005 187.004C316.866 178.296 322.829 172.203 332.851 171.67C343.89 171.162 349.851 179.489 351.146 187.004H359.038C358.326 179.489 352.516 172 347.924 169.309L304.535 143.997L313.694 91.3691L314.151 88.2982ZM235.493 94.3393L267.87 105.358V156.057L244.02 143.515L235.493 94.3393ZM243.461 201.907C247.724 207.745 254.625 212.061 262.795 213.737C263.481 216.808 265.156 220.185 268.403 222.902C267.058 231.965 270.94 240.419 280.684 242.653C281.699 247.274 284.566 250.751 289.361 252.402L282.586 260.221C279.999 263.217 276.623 264.182 273.833 263.826L243.588 260.399C244.907 257.048 241.406 253.164 231.839 254.813L243.74 221.556L236.483 206.146L222.731 217.875L221.716 252.757L215.88 249.889C208.191 246.589 205.959 260.475 213.267 260.526L216.159 260.551C215.981 261.973 216.413 263.546 217.53 264.03C216.159 264.613 215.753 267.203 217.478 268.117C215.728 268.929 215.499 271.57 216.895 272.712C215.373 275.276 215.144 280.835 220.447 282.232C224.786 283.375 227.5 278.704 228.389 275.986L275.431 290.559C282.104 292.463 286.824 291.397 292.356 286.548L304.637 275.809C303.088 282.841 305.626 289.163 310.98 291.27C310.98 291.27 310.218 297.592 310.447 300.409H187.969V222.978C187.969 215.768 185.888 208.559 183.403 201.907H243.461ZM294.055 231.279C291.468 236.23 291.721 241.917 294.765 247.071L292.736 249.05C283.906 247.959 280.43 234.783 280.43 234.783C280.252 235.976 280.151 237.119 280.177 238.286C275.026 236.382 271.777 231.813 272.032 225.543C273.986 226.634 276.168 227.395 278.502 227.802L279.11 223.942C272.944 222.876 269.342 219.018 267.972 214.447C267.668 214.422 267.413 214.347 267.134 214.32C268.225 214.397 269.317 214.499 270.432 214.499C274.086 214.499 277.563 213.94 280.811 212.975C283.373 216.631 287.915 219.246 292.483 219.753C291.746 222.8 292.101 226.583 294.055 231.279ZM307.123 266.111C306.234 267.305 305.524 268.675 305.067 270.173L300.145 274.692C301.135 267.482 296.289 258.977 291.873 255.499L297.1 250.371L298.141 251.438C296.39 256.032 299.816 265.045 307.123 266.111ZM283.348 263.851L287.407 259.866C291.518 263.471 296.949 271.519 295.248 279.186L290.833 283.248C289.919 284.137 288.981 284.771 288.017 285.354C290.783 278.526 287.255 268.015 283.348 263.851ZM274.619 267.228H274.746C276.218 267.457 277.792 267.203 279.212 266.619C282.308 271.037 284.718 281.09 281.014 287.36C278.907 287.412 276.853 287.03 274.924 286.472L273.401 286.015C276.523 281.166 276.091 272.584 274.619 267.228ZM264.394 265.959L270.103 266.67C271.017 271.417 270.407 279.618 267.388 284.289L260.74 282.359C263.659 278.399 265.029 270.249 264.394 265.959ZM252.494 264.512L259.421 265.324C260.106 269.132 258.811 277.23 256.199 281.09L249.144 279.059C251.961 275.327 252.975 268.752 252.494 264.512ZM224.456 262.659C221.234 263.699 219.813 261.363 219.94 259.384C226.258 257.073 229.074 258.572 230.926 259.739C232.626 260.805 234.048 263.851 236.33 265.756C235.95 268.345 235.163 272.102 234.225 274.615C227.755 272.966 227.425 267.253 229.835 263.776C228.49 262.202 227.07 261.795 224.456 262.659ZM219.94 275.276C219.94 275.276 221.869 276.088 224.304 276.266C224.025 277.612 222.984 278.881 221.335 278.526C219.965 278.221 219.355 276.546 219.94 275.276ZM213.571 256.743C211.972 255.677 212.682 253.341 214.459 253.341C216.413 253.392 219 255.6 221.564 256.692C221.564 256.692 214.839 257.606 213.571 256.743ZM220.142 270.198C221.539 271.544 225.725 271.037 225.725 271.037L225.878 271.874C224.051 274.312 218.975 273.22 220.142 270.198ZM225.776 267.431C222.781 268.624 219.712 267 220.65 265.07C222.046 266.339 225.928 265.705 225.928 265.705L225.776 267.431ZM230.191 232.575L224.456 253.469L226.41 219.753L235.29 212.163L239.807 222.089L228.389 254.84L231.409 232.803C231.688 231.229 230.444 231.051 230.191 232.575ZM230.597 257.911C230.597 257.911 236.99 257.606 238.792 258.292C240.111 258.85 239.224 261.085 237.498 260.831C235.697 260.603 230.597 257.911 230.597 257.911ZM240.619 262.989L247.571 263.851C248.104 267.66 247.114 274.108 244.628 277.713L237.904 275.759C239.681 271.519 240.111 267.533 240.619 262.989ZM352.845 355.729C352.845 371.875 345.387 384.137 332.978 390.941L337.419 381.903H333.106L327.396 393.479C321.484 395.714 314.786 396.958 307.376 396.958C284.743 396.958 278.755 397.872 270.382 406.224C261.984 397.872 255.996 396.958 233.388 396.958C226.03 396.958 219.33 395.765 213.444 393.531H213.596L219.305 381.903H215.017L210.018 392.083C208.826 391.525 207.659 390.916 206.543 390.256L210.653 381.903H206.391L203.345 388.123C193.653 380.989 187.944 369.819 187.944 355.729V304.954H352.795V355.729H352.845ZM357.439 201.907C354.876 208.559 352.82 215.768 352.82 222.978V300.409H343.813C339.728 296.45 336.277 283.248 336.277 283.248C334.044 287.995 336.607 297.617 338.992 300.409H327.396C324.529 296.525 322.042 282.766 322.042 282.766C318.566 286.725 320.774 297.414 322.931 300.409H315.217C314.734 294.901 316.308 288.909 316.308 288.909C312.274 288.173 307.986 286.04 308.011 281.572C310.041 283.476 310.878 283.45 313.694 283.4L316.968 280.81C306.108 281.167 305.601 269.234 314.227 263.648C305.626 263.928 299.206 258.8 302.327 249.66C296.212 246.487 294.055 236.128 298.572 231.584C295.299 228.029 294.765 221.049 296.847 216.301C292.508 216.301 287.637 214.575 284.921 211.604C284.718 211.706 284.465 211.782 284.236 211.859C289.666 209.65 294.258 206.196 297.354 201.932H357.439V201.907ZM324.606 164.638C315.674 166.187 307.986 177.129 301.693 187.004L300.983 188.146H294.258L294.233 189.314C293.548 196.931 286.317 207.263 270.382 207.263C263.024 207.263 257.466 205.004 253.662 201.932C250.363 199.241 248.282 195.914 247.267 192.742C246.886 191.6 246.657 190.431 246.557 189.314L246.506 188.146H239.832L239.122 187.004C232.804 177.154 225.116 166.212 216.21 164.638L240.543 150.497L270.432 166.745L300.273 150.497L324.606 164.638ZM296.745 143.515L272.919 156.057V105.358L305.296 94.3393L296.745 143.515ZM270.407 99.8241L235.012 85.8353C238.006 78.7264 251.885 72.6587 270.407 72.6587C288.904 72.6587 302.758 78.7264 305.752 85.8353L270.407 99.8241Z" fill="black"/>
<path fill-rule="evenodd" clip-rule="evenodd" d="M349.067 251.945L349.144 248.061C337.243 247.781 334.503 233.742 334.503 233.742C331.027 244.074 340.111 251.793 349.067 251.945Z" fill="black"/>
<path fill-rule="evenodd" clip-rule="evenodd" d="M334.045 275.734L332.853 272.052C322.704 274.642 317.452 258.545 317.452 258.545C314.204 270.249 325.52 278.526 334.045 275.734Z" fill="black"/>
<path fill-rule="evenodd" clip-rule="evenodd" d="M341.099 260.804C328.97 262.734 323.998 248.618 323.998 248.618C322.652 256.311 327.626 264.105 335.67 264.917C333.843 274.945 343.155 280.098 351.223 276.519L350.056 273.016C343.053 275.377 336.482 268.445 341.099 260.804Z" fill="black"/>
<path fill-rule="evenodd" clip-rule="evenodd" d="M333.837 220.516L333.938 216.631C317.927 213.331 319.272 202.312 319.272 202.312C315.822 212.696 324.905 220.363 333.837 220.516Z" fill="black"/>
<path fill-rule="evenodd" clip-rule="evenodd" d="M232.395 381.904L226.661 393.53H230.975L236.683 381.904H232.395Z" fill="black"/>
<path fill-rule="evenodd" clip-rule="evenodd" d="M241.05 381.904L235.34 393.53H239.68L245.338 381.904H241.05Z" fill="black"/>
<path fill-rule="evenodd" clip-rule="evenodd" d="M275.71 381.904L270.001 393.53H274.288L280.023 381.904H275.71Z" fill="black"/>
<path fill-rule="evenodd" clip-rule="evenodd" d="M284.392 381.904L278.632 393.53H282.971L288.654 381.904H284.392Z" fill="black"/>
<path fill-rule="evenodd" clip-rule="evenodd" d="M267.055 381.904L261.321 393.53H265.635L271.344 381.904H267.055Z" fill="black"/>
<path fill-rule="evenodd" clip-rule="evenodd" d="M317.679 393.53H321.992L327.701 381.904H323.387L317.679 393.53Z" fill="black"/>
<path fill-rule="evenodd" clip-rule="evenodd" d="M249.722 381.904L244.012 393.53H248.325L254.035 381.904H249.722Z" fill="black"/>
<path fill-rule="evenodd" clip-rule="evenodd" d="M258.359 381.904L252.65 393.53H256.989L262.698 381.904H258.359Z" fill="black"/>
<path fill-rule="evenodd" clip-rule="evenodd" d="M238.76 319.399C237.973 319.399 237.288 320.161 237.288 321.151C237.288 322.115 237.973 322.902 238.76 322.902C239.572 322.902 240.282 322.115 240.282 321.151C240.257 320.161 239.572 319.399 238.76 319.399Z" fill="black"/>
<path fill-rule="evenodd" clip-rule="evenodd" d="M270.401 56.9672C288.163 56.9672 302.397 62.8573 310.237 69.178C310.237 69.178 312.597 55.0634 320.539 42.6737L306.228 44.2728L298.743 28.3299L284.357 35.8191L270.401 21.9575L256.446 35.8191L242.008 28.3299L234.523 44.2728L220.212 42.6737C228.179 55.0634 230.514 69.178 230.514 69.178C238.38 62.8573 252.639 56.9672 270.401 56.9672ZM236.984 50.62L243.81 36.149L256.446 42.8777L270.401 29.0917L284.357 42.8777L296.993 36.149L303.742 50.62L312.141 49.3256C309.984 53.3623 308.36 56.8903 306.863 61.8412C297.678 56.4849 284.027 52.3462 270.401 52.3462C256.725 52.3462 243.099 56.4849 233.914 61.8412C232.392 56.8903 230.793 53.3623 228.611 49.3256L236.984 50.62Z" fill="black"/>
<path fill-rule="evenodd" clip-rule="evenodd" d="M285.022 28.4595C287.102 28.637 288.954 27.0631 289.131 25.007C289.335 22.9257 286.29 17.3906 286.29 17.3906C286.29 17.3906 281.748 22.2898 281.596 24.3724C281.393 26.4034 282.966 28.2568 285.022 28.4595Z" fill="black"/>
<path fill-rule="evenodd" clip-rule="evenodd" d="M308.466 36.9618C310.319 37.9528 312.576 37.2162 313.566 35.3628C314.581 33.5345 313.921 27.2642 313.921 27.2642C313.921 27.2642 307.882 29.9814 306.893 31.8335C305.928 33.6617 306.64 35.947 308.466 36.9618Z" fill="black"/>
<path fill-rule="evenodd" clip-rule="evenodd" d="M255.766 28.4595C257.872 28.2568 259.42 26.4285 259.242 24.3724C259.04 22.2898 254.548 17.3906 254.548 17.3906C254.548 17.3906 251.529 22.9509 251.707 25.007C251.859 27.0631 253.711 28.637 255.766 28.4595Z" fill="black"/>
<path fill-rule="evenodd" clip-rule="evenodd" d="M232.346 36.9618C234.198 35.947 234.883 33.6617 233.918 31.8335C232.954 29.9814 226.89 27.2642 226.89 27.2642C226.89 27.2642 226.256 33.5345 227.271 35.3628C228.21 37.2162 230.494 37.9528 232.346 36.9618Z" fill="black"/>
<path fill-rule="evenodd" clip-rule="evenodd" d="M513.609 165.93C518.607 164.152 522.464 159.38 524.392 154.962C511.68 153.134 477.908 138.942 450.149 150.494C460.553 140.618 469.89 139.349 470.778 125.133C475.091 128.23 482.374 129.981 486.485 122.593C483.618 114.139 476.386 120.994 475.371 118.658C473.949 115.408 484.48 119.649 486.738 108.656C478.542 105.838 476.106 112.54 474.635 110.991C473.289 109.52 479.837 106.7 475.016 97.8413C466.49 102.842 470.93 108.453 469.13 109.088C466.946 109.95 468.672 103.07 459.233 103.4C458.294 113.53 468.088 113.86 466.49 115.46C464.536 117.414 461.999 109.645 454.869 113.581C454.996 121.756 461.618 126.249 468.443 124.32C467.328 139.857 453.067 136.963 442.461 154.48C464.942 166.006 475.116 186.113 488.946 200.024C493.513 196.776 501.328 182.355 501.328 182.355C516.298 193.957 526.828 182.406 526.828 182.406C521.677 177.125 521.474 173.115 513.609 165.93ZM491.788 168.748C493.335 172.176 496.405 184.132 489.072 193.247C480.724 176.567 469.255 162.274 459.968 156.105C457.939 154.785 461.085 152.474 466.82 151.712C484.099 148.437 504.372 155.749 514.014 158.314C509.523 161.664 505.869 163.188 501.278 163.747C508.281 169.636 513.405 174.612 517.008 180.147C510.233 181.848 506.402 177.557 491.788 168.748Z" fill="black"/>
<path fill-rule="evenodd" clip-rule="evenodd" d="M347.438 428.054V409.064C332.772 415.793 314.123 421.251 290.12 423.41L289.028 430.187C291.058 430.467 293.646 430.72 297.098 430.949C288.216 432.168 276.722 432.752 270.43 432.752C264.112 432.752 252.643 432.168 243.737 430.949C247.163 430.72 249.75 430.467 251.781 430.187L250.689 423.41C226.686 421.251 208.012 415.793 193.371 409.064V428.054L173.478 436.23C188.22 443.897 205.17 450.142 224.757 455.195L222.423 463.141C233.639 466.441 251.577 469.791 270.379 469.791C289.18 469.791 307.095 466.416 318.334 463.141L316.025 455.195C335.589 450.142 352.589 443.897 367.331 436.23L347.438 428.054ZM184.109 436.662L197.532 431.254V415.793C206.158 419.118 217.475 422.571 233.714 425.948L226.102 450.751C209.534 446.944 195.451 441.815 184.109 436.662ZM270.404 465.247C255.256 465.247 240.464 462.988 227.828 459.866L235.871 433.844C241.2 435.088 254.546 436.712 270.404 436.712C286.288 436.712 299.559 435.061 304.913 433.844L312.981 459.866C300.294 462.988 285.527 465.247 270.404 465.247ZM314.732 450.751L307.12 425.948C323.358 422.596 334.675 419.118 343.302 415.793V431.254L356.7 436.662C345.358 441.815 331.326 446.944 314.732 450.751Z" fill="black"/>
<path fill-rule="evenodd" clip-rule="evenodd" d="M39.4825 182.355C39.4825 182.355 47.2976 196.776 51.8391 200.024C65.6927 186.138 75.8925 166.031 98.3481 154.48C87.7165 136.963 73.4575 139.908 72.391 124.32C79.2164 126.249 85.814 121.73 85.9664 113.581C78.811 109.645 76.274 117.466 74.3451 115.46C72.7473 113.809 82.5152 113.53 81.6024 103.4C72.1631 103.096 73.888 109.95 71.6809 109.088C69.9043 108.453 74.3451 102.816 65.7947 97.8413C60.9989 106.727 67.57 109.52 66.2001 110.991C64.7547 112.54 62.268 105.863 54.0966 108.656C56.305 119.649 66.885 115.408 65.4648 118.658C64.45 120.994 57.243 114.139 54.4013 122.593C58.4618 130.007 65.7695 128.255 70.0566 125.158C70.9708 139.4 80.2829 140.593 90.7106 150.494C62.9278 138.942 29.1556 153.134 16.3923 154.987C18.3464 159.38 22.2029 164.152 27.2014 165.879C19.336 173.14 19.132 177.152 13.9824 182.406C13.9824 182.406 24.4869 193.957 39.4825 182.355ZM23.7503 180.172C27.379 174.637 32.4795 169.636 39.5328 163.772C34.9145 163.188 31.2859 161.664 26.7696 158.314C36.4367 155.749 56.7356 148.412 74.0404 151.712C79.7238 152.474 82.9219 154.785 80.8406 156.105C71.5537 162.274 60.0596 176.567 51.7119 193.247C44.4042 184.132 47.5003 172.201 48.9973 168.773C34.4071 177.557 30.6009 181.848 23.7503 180.172Z" fill="black"/>
<path fill-rule="evenodd" clip-rule="evenodd" d="M258.248 171.77V180.123C261.116 176.645 266.698 177.33 266.698 177.33V189.389C266.698 189.389 266.495 195.331 264.414 197.869H270.428H276.442C274.335 195.331 274.158 189.389 274.158 189.389V177.355C274.158 177.355 279.714 176.671 282.582 180.148V171.795H270.428H258.248V171.77Z" fill="black"/>
<path d="M713.058 308.28V227.617H760.67V198.264H630.777V227.617H678.389V308.28H713.058ZM808.058 262.286V198.264H774.545V308.28H804.13L861.91 244.258V308.28H895.424V198.264H865.84L808.058 262.286ZM1008.17 267.371V308.28H1041.68V198.264H1008.17V238.48H954.318V198.264H920.805V308.28H954.318V267.371H1008.17ZM1135.02 308.28C1142.64 308.28 1149.58 307.587 1156.05 305.737C1173.39 300.885 1184.7 286.786 1184.7 267.601C1184.7 249.343 1175.01 236.631 1159.52 230.852C1152.11 228.079 1143.34 227.847 1135.02 227.847H1100.58V198.264H1067.06V308.28H1135.02ZM1129.24 253.734C1133.86 253.734 1138.25 253.734 1142.18 255.121C1147.73 256.969 1150.96 261.593 1150.96 267.14C1150.96 272.918 1147.73 277.772 1142.41 280.082C1138.71 281.701 1135.02 281.701 1129.24 281.701H1100.58V253.734H1129.24ZM1244.8 266.678L1284.78 308.28H1329.39L1273.69 250.96L1327.31 198.264H1285.24L1244.8 239.636H1235.55V198.264H1202.05V308.28H1235.55V266.678H1244.8ZM1398.34 195.259C1353.27 195.259 1326.23 220.683 1326.23 253.502C1326.23 286.323 1353.27 311.747 1398.34 311.747C1443.19 311.747 1470.23 286.323 1470.23 253.502C1470.23 220.683 1443.19 195.259 1398.34 195.259ZM1398.34 284.936C1375.93 284.936 1361.61 271.531 1361.61 253.502C1361.61 235.476 1375.93 222.3 1398.34 222.3C1420.53 222.3 1435.09 235.476 1435.09 253.502C1435.09 271.531 1420.53 284.936 1398.34 284.936ZM1581.84 192.023H1548.33V203.117C1506.26 204.042 1481.07 221.839 1481.07 253.272C1481.07 284.705 1506.26 301.115 1548.33 302.04V313.134H1581.84V302.04C1624.13 301.115 1649.33 284.705 1649.33 253.272C1649.33 221.839 1624.13 204.042 1581.84 203.117V192.023ZM1548.33 278.465C1525.21 277.54 1515.05 268.063 1515.05 253.272C1515.05 238.48 1525.21 227.847 1548.33 226.924V278.465ZM1581.84 226.924C1605.19 227.847 1615.12 238.48 1615.12 253.272C1615.12 268.063 1605.19 277.54 1581.84 278.465V226.924ZM1760.83 192.023H1727.31V203.117C1685.25 204.042 1660.06 221.839 1660.06 253.272C1660.06 284.705 1685.25 301.115 1727.31 302.04V313.134H1760.83V302.04C1803.13 301.115 1828.31 284.705 1828.31 253.272C1828.31 221.839 1803.13 204.042 1760.83 203.117V192.023ZM1727.31 278.465C1704.2 277.54 1694.03 268.063 1694.03 253.272C1694.03 238.48 1704.2 227.847 1727.31 226.924V278.465ZM1760.83 226.924C1784.17 227.847 1794.11 238.48 1794.11 253.272C1794.11 268.063 1784.17 277.54 1760.83 278.465V226.924Z" fill="black"/>
</svg>
