<svg width="1129" height="281" viewBox="0 0 1129 281" fill="none" xmlns="http://www.w3.org/2000/svg">
<path d="M1128.76 0.2724H0.271484V280.272H1128.76V0.2724Z" fill="black"/>
<path d="M188.279 180.439V121.818H222.881V100.486H128.483V121.818H163.084V180.439H188.279ZM257.32 147.014V100.486H232.965V180.439H254.465L296.457 133.912V180.439H320.812V100.486H299.311L257.32 147.014ZM402.749 150.709V180.439H427.104V100.486H402.749V129.712H363.612V100.486H339.257V180.439H363.612V150.709H402.749ZM494.931 180.439C500.474 180.439 505.514 179.935 510.217 178.591C522.814 175.064 531.045 164.818 531.045 150.876C531.045 137.607 523.99 128.369 512.736 124.169C507.361 122.154 500.979 121.986 494.931 121.986H469.905V100.486H445.549V180.439H494.931ZM490.733 140.799C494.092 140.799 497.284 140.799 500.138 141.806C504.169 143.15 506.522 146.509 506.522 150.54C506.522 154.74 504.169 158.267 500.307 159.947C497.619 161.122 494.931 161.122 490.733 161.122H469.905V140.799H490.733ZM574.714 150.204L603.772 180.439H636.19L595.71 138.783L634.679 100.486H604.108L574.714 130.553H567.995V100.486H543.64V180.439H567.995V150.204H574.714ZM686.305 98.3021C653.551 98.3021 633.899 116.779 633.899 140.63C633.899 164.482 653.551 182.958 686.305 182.958C718.89 182.958 738.543 164.482 738.543 140.63C738.543 116.779 718.89 98.3021 686.305 98.3021ZM686.305 163.474C670.012 163.474 659.598 153.732 659.598 140.63C659.598 127.529 670.012 117.955 686.305 117.955C702.429 117.955 713.011 127.529 713.011 140.63C713.011 153.732 702.429 163.474 686.305 163.474ZM819.654 95.951H795.299V104.013C764.729 104.685 746.42 117.619 746.42 140.463C746.42 163.306 764.729 175.232 795.299 175.904V183.966H819.654V175.904C850.392 175.232 868.701 163.306 868.701 140.463C868.701 117.619 850.392 104.685 819.654 104.013V95.951ZM795.299 158.771C778.502 158.099 771.112 151.212 771.112 140.463C771.112 129.712 778.502 121.986 795.299 121.314V158.771ZM819.654 121.314C836.619 121.986 843.841 129.712 843.841 140.463C843.841 151.212 836.619 158.099 819.654 158.771V121.314ZM949.731 95.951H925.376V104.013C894.806 104.685 876.497 117.619 876.497 140.463C876.497 163.306 894.806 175.232 925.376 175.904V183.966H949.731V175.904C980.473 175.232 998.776 163.306 998.776 140.463C998.776 117.619 980.473 104.685 949.731 104.013V95.951ZM925.376 158.771C908.579 158.099 901.188 151.212 901.188 140.463C901.188 129.712 908.579 121.986 925.376 121.314V158.771ZM949.731 121.314C966.695 121.986 973.916 129.712 973.916 140.463C973.916 151.212 966.695 158.099 949.731 158.771V121.314Z" fill="white"/>
</svg>
