<svg width="1129" height="280" viewBox="0 0 1129 280" fill="none" xmlns="http://www.w3.org/2000/svg">
<path d="M1128.49 0H0V280H1128.49V0Z" fill="#FFDD2D"/>
<path d="M188.004 180.168V121.547H222.606V100.215H128.208V121.547H162.809V180.168H188.004ZM257.045 146.743V100.215H232.689V180.168H254.189L296.181 133.641V180.168H320.536V100.215H299.036L257.045 146.743ZM402.474 150.438V180.168H426.828V100.215H402.474V129.441H363.337V100.215H338.981V180.168H363.337V150.438H402.474ZM494.656 180.168C500.199 180.168 505.238 179.664 509.941 178.32C522.539 174.793 530.769 164.547 530.769 150.606C530.769 137.336 523.715 128.098 512.461 123.899C507.086 121.884 500.703 121.715 494.656 121.715H469.629V100.215H445.274V180.168H494.656ZM490.457 140.528C493.817 140.528 497.008 140.528 499.863 141.535C503.894 142.879 506.246 146.238 506.246 150.269C506.246 154.469 503.894 157.996 500.031 159.676C497.343 160.852 494.656 160.852 490.457 160.852H469.629V140.528H490.457ZM574.439 149.933L603.497 180.168H635.915L595.434 138.512L634.403 100.215H603.833L574.439 130.282H567.719V100.215H543.365V180.168H567.719V149.933H574.439ZM686.029 98.0313C653.276 98.0313 633.624 116.508 633.624 140.359C633.624 164.211 653.276 182.688 686.029 182.688C718.615 182.688 738.267 164.211 738.267 140.359C738.267 116.508 718.615 98.0313 686.029 98.0313ZM686.029 163.204C669.737 163.204 659.322 153.461 659.322 140.359C659.322 127.258 669.737 117.684 686.029 117.684C702.154 117.684 712.736 127.258 712.736 140.359C712.736 153.461 702.154 163.204 686.029 163.204ZM819.379 95.6802H795.024V103.743C764.453 104.415 746.145 117.348 746.145 140.192C746.145 163.035 764.453 174.961 795.024 175.633V183.696H819.379V175.633C850.117 174.961 868.425 163.035 868.425 140.192C868.425 117.348 850.117 104.415 819.379 103.743V95.6802ZM795.024 158.5C778.227 157.828 770.837 150.942 770.837 140.192C770.837 129.441 778.227 121.715 795.024 121.043V158.5ZM819.379 121.043C836.344 121.715 843.566 129.441 843.566 140.192C843.566 150.942 836.344 157.828 819.379 158.5V121.043ZM949.456 95.6802H925.101V103.743C894.53 104.415 876.222 117.348 876.222 140.192C876.222 163.035 894.53 174.961 925.101 175.633V183.696H949.456V175.633C980.198 174.961 998.5 163.035 998.5 140.192C998.5 117.348 980.198 104.415 949.456 103.743V95.6802ZM925.101 158.5C908.304 157.828 900.913 150.942 900.913 140.192C900.913 129.441 908.304 121.715 925.101 121.043V158.5ZM949.456 121.043C966.42 121.715 973.641 129.441 973.641 140.192C973.641 150.942 966.42 157.828 949.456 158.5V121.043Z" fill="black"/>
</svg>
