<svg id="Layer_1" data-name="Layer 1" xmlns="http://www.w3.org/2000/svg" xmlns:xlink="http://www.w3.org/1999/xlink" viewBox="0 0 444 280"><defs><style>.cls-1,.cls-10,.cls-11,.cls-12,.cls-13,.cls-14,.cls-15,.cls-16,.cls-17,.cls-18,.cls-19,.cls-20,.cls-21,.cls-22,.cls-23,.cls-24,.cls-25,.cls-26,.cls-27,.cls-28,.cls-29,.cls-30,.cls-31,.cls-32,.cls-33,.cls-34,.cls-35,.cls-36,.cls-37,.cls-38,.cls-39,.cls-40,.cls-41,.cls-42,.cls-43,.cls-44,.cls-45,.cls-46,.cls-47,.cls-48,.cls-49,.cls-50,.cls-51,.cls-52,.cls-53,.cls-54,.cls-55,.cls-56,.cls-57,.cls-58,.cls-59,.cls-6,.cls-60,.cls-61,.cls-62,.cls-63,.cls-64,.cls-65,.cls-66,.cls-67,.cls-69,.cls-7,.cls-74,.cls-8,.cls-9{fill:none;}.cls-2{fill:url(#linear-gradient);}.cls-3{clip-path:url(#clip-path);}.cls-4{fill:url(#linear-gradient-2);}.cls-5{fill:url(#linear-gradient-3);}.cls-6{stroke:#22784a;}.cls-10,.cls-11,.cls-12,.cls-13,.cls-14,.cls-15,.cls-16,.cls-17,.cls-18,.cls-19,.cls-20,.cls-21,.cls-22,.cls-23,.cls-24,.cls-25,.cls-26,.cls-27,.cls-28,.cls-29,.cls-30,.cls-31,.cls-32,.cls-33,.cls-34,.cls-35,.cls-36,.cls-37,.cls-38,.cls-39,.cls-40,.cls-41,.cls-42,.cls-43,.cls-44,.cls-45,.cls-46,.cls-47,.cls-48,.cls-49,.cls-50,.cls-51,.cls-52,.cls-53,.cls-54,.cls-55,.cls-56,.cls-57,.cls-58,.cls-59,.cls-6,.cls-60,.cls-61,.cls-62,.cls-63,.cls-64,.cls-65,.cls-66,.cls-67,.cls-7,.cls-74,.cls-8,.cls-9{stroke-miterlimit:10;}.cls-10,.cls-11,.cls-12,.cls-13,.cls-14,.cls-15,.cls-16,.cls-17,.cls-18,.cls-19,.cls-20,.cls-21,.cls-22,.cls-23,.cls-24,.cls-25,.cls-26,.cls-27,.cls-28,.cls-29,.cls-30,.cls-31,.cls-32,.cls-33,.cls-34,.cls-35,.cls-36,.cls-37,.cls-38,.cls-39,.cls-40,.cls-41,.cls-42,.cls-43,.cls-44,.cls-45,.cls-46,.cls-47,.cls-48,.cls-49,.cls-50,.cls-51,.cls-52,.cls-53,.cls-54,.cls-55,.cls-56,.cls-57,.cls-58,.cls-59,.cls-6,.cls-60,.cls-61,.cls-62,.cls-63,.cls-64,.cls-65,.cls-66,.cls-67,.cls-7,.cls-8,.cls-9{stroke-width:1.28px;}.cls-7{stroke:#23794b;}.cls-8{stroke:#247a4d;}.cls-9{stroke:#267b4e;}.cls-10{stroke:#277d4f;}.cls-11{stroke:#287e51;}.cls-12{stroke:#297f52;}.cls-13{stroke:#2a8053;}.cls-14{stroke:#2c8155;}.cls-15{stroke:#2d8256;}.cls-16{stroke:#2e8457;}.cls-17{stroke:#2f8559;}.cls-18{stroke:#30865a;}.cls-19{stroke:#32875b;}.cls-20{stroke:#33885d;}.cls-21{stroke:#34895e;}.cls-22{stroke:#358b5f;}.cls-23{stroke:#368c61;}.cls-24{stroke:#388d62;}.cls-25{stroke:#398e63;}.cls-26{stroke:#3a8f65;}.cls-27{stroke:#3b9066;}.cls-28{stroke:#3c9267;}.cls-29{stroke:#3e9369;}.cls-30{stroke:#3f946a;}.cls-31{stroke:#40956b;}.cls-32{stroke:#41966d;}.cls-33{stroke:#42976e;}.cls-34{stroke:#44996f;}.cls-35{stroke:#459a71;}.cls-36{stroke:#469b72;}.cls-37{stroke:#479c73;}.cls-38{stroke:#489d74;}.cls-39{stroke:#499e76;}.cls-40{stroke:#4ba077;}.cls-41{stroke:#4ca178;}.cls-42{stroke:#4da27a;}.cls-43{stroke:#4ea37b;}.cls-44{stroke:#4fa47c;}.cls-45{stroke:#51a57e;}.cls-46{stroke:#52a77f;}.cls-47{stroke:#53a880;}.cls-48{stroke:#54a982;}.cls-49{stroke:#55aa83;}.cls-50{stroke:#57ab84;}.cls-51{stroke:#58ac86;}.cls-52{stroke:#59ae87;}.cls-53{stroke:#5aaf88;}.cls-54{stroke:#5bb08a;}.cls-55{stroke:#5db18b;}.cls-56{stroke:#5eb28c;}.cls-57{stroke:#5fb38e;}.cls-58{stroke:#60b58f;}.cls-59{stroke:#61b690;}.cls-60{stroke:#63b792;}.cls-61{stroke:#64b893;}.cls-62{stroke:#65b994;}.cls-63{stroke:#66ba96;}.cls-64{stroke:#67bc97;}.cls-65{stroke:#69bd98;}.cls-66{stroke:#6abe9a;}.cls-67{stroke:#6bbf9b;}.cls-68{fill:#fff;}.cls-69,.cls-74{stroke:#000;stroke-width:0.43px;}.cls-69{stroke-linecap:round;stroke-linejoin:round;}.cls-70{opacity:0.98;}.cls-71{clip-path:url(#clip-path-3);}.cls-72{clip-path:url(#clip-path-4);}.cls-73{fill:#f2c615;}.cls-75{fill:#f1c616;}.cls-76{font-size:12.89px;fill:#fcf5eb;font-family:Roboto-Regular, Roboto;}</style><linearGradient id="linear-gradient" x1="23.81" y1="140" x2="531.82" y2="140" gradientUnits="userSpaceOnUse"><stop offset="0" stop-color="#3ab371"/><stop offset="1" stop-color="#0a552c"/></linearGradient><clipPath id="clip-path"><rect class="cls-1" width="444" height="280"/></clipPath><linearGradient id="linear-gradient-2" x1="-83.39" y1="535.41" x2="-81.91" y2="535.41" gradientTransform="translate(138856.99 -160756.3) rotate(32) scale(391.83)" gradientUnits="userSpaceOnUse"><stop offset="0" stop-color="#36ac6c"/><stop offset="0.26" stop-color="#34a769"/><stop offset="0.55" stop-color="#2d9a5e"/><stop offset="0.86" stop-color="#22834e"/><stop offset="1" stop-color="#1b7644"/></linearGradient><linearGradient id="linear-gradient-3" x1="-83" y1="535.16" x2="-81.51" y2="535.16" gradientTransform="matrix(208.34, 132.72, -87.16, 246.3, 64045.19, -120739.59)" gradientUnits="userSpaceOnUse"><stop offset="0" stop-color="#39b06f"/><stop offset="0.25" stop-color="#2f9d61"/><stop offset="1" stop-color="#14693b"/></linearGradient><clipPath id="clip-path-3"><rect class="cls-1" x="87.32" y="8.99" width="21.65" height="23.19"/></clipPath><clipPath id="clip-path-4"><rect class="cls-1" x="87.42" y="9.08" width="21.45" height="23.01"/></clipPath></defs><rect class="cls-2" width="444" height="280"/><g class="cls-3"><polygon class="cls-4" points="177.73 0 444 258.69 444 258.69 444 0 444 0 177.73 0"/><polygon class="cls-5" points="342.79 280 428.34 280 136.62 0 55.57 0 55.57 0 342.79 280"/><path class="cls-6" d="M357,483.27C367,470.89,389.23,454.78,408.63,416c15.95-31.86,23.83-79.39,21.82-130.58,0-.64-.05-1.28-.08-1.92-3.8-85.67-39.2-167.37-100.43-230q-4-4.08-8.05-8c-33.39-31.94-68-45.15-106.22-66"/><path class="cls-7" d="M351.1,480.74c8.51-9.8,23.27-21.59,39.27-44.84a207.54,207.54,0,0,0,13-21.73c6.91-13.23,12.43-29.17,16.33-46.95,5.39-24.57,8-52.56,7.44-81.93,0-.63,0-1.27,0-1.9a344.63,344.63,0,0,0-11.93-80.71c-14.9-55-43.71-106-83.87-148.78q-3.89-4.11-7.82-8A224.13,224.13,0,0,0,298.08,24.3C282.41,12.82,266.2,4.24,249.62-4.88c-.66-.37-1.36-.71-2-1-9-4.54-18.17-9.81-27.61-15"/><path class="cls-8" d="M345.25,478.21c9.13-9.88,23.25-21.45,39.61-44.47a212.84,212.84,0,0,0,13.23-21.43c7.11-13.06,12.88-28.76,17-46.26a354.32,354.32,0,0,0,8.77-80.91c0-.63,0-1.25,0-1.88a342.8,342.8,0,0,0-10.48-80.15c-13.81-54.7-41.68-105.88-80.69-148.86-2.5-2.75-5-5.44-7.58-8A225.08,225.08,0,0,0,300.4,24.44C285.19,12.83,269.29,4.35,253.34-5.09c-.64-.38-1.33-.71-2-1-8.9-4.39-17.79-10.17-27.06-15.3"/><path class="cls-9" d="M339.4,475.68c9.75-9.95,23.22-21.3,40-44.1a215.86,215.86,0,0,0,13.46-21.12c7.32-12.9,13.33-28.36,17.59-45.58A357,357,0,0,0,420.5,285c0-.62,0-1.24,0-1.86a341.44,341.44,0,0,0-9-79.59C398.77,149.09,371.79,97.88,334,54.61c-2.42-2.77-4.88-5.47-7.35-8.1a226.32,226.32,0,0,0-23.92-21.92C288,12.84,272.37,4.46,257.06-5.31a17.33,17.33,0,0,0-1.9-1c-8.76-4.24-17.41-10.54-26.52-15.62"/><path class="cls-10" d="M333.55,473.16c10.37-10,23.19-21.16,40.29-43.75a220.54,220.54,0,0,0,13.7-20.81,175.88,175.88,0,0,0,18.21-44.9,360.54,360.54,0,0,0,11.44-78.86c0-.61,0-1.23.05-1.84a339.18,339.18,0,0,0-7.57-79C398,149.78,371.92,98.54,335.34,55q-3.51-4.17-7.12-8.14A227.92,227.92,0,0,0,305,24.74c-14.29-11.89-29.6-20.18-44.26-30.26a13.76,13.76,0,0,0-1.84-1c-8.62-4.06-17-10.89-26-15.92"/><path class="cls-11" d="M327.7,470.63c11-10.12,23.15-21,40.63-43.38a223.77,223.77,0,0,0,13.94-20.51,172,172,0,0,0,18.83-44.21,364.24,364.24,0,0,0,12.78-77.84c0-.61.06-1.22.08-1.82a337.51,337.51,0,0,0-6.12-78.46C397.27,150.47,372.05,99.2,336.69,55.32q-3.39-4.2-6.88-8.19a230,230,0,0,0-22.46-22.24c-13.82-12-28.85-20.24-42.85-30.63a10.07,10.07,0,0,0-1.79-1c-8.48-3.89-16.65-11.26-25.42-16.23"/><path class="cls-12" d="M321.84,468.1c11.62-10.19,23.12-20.86,41-43A231.44,231.44,0,0,0,377,404.89a168.79,168.79,0,0,0,19.46-43.54,369,369,0,0,0,14.1-76.81q.07-.9.12-1.8a336.24,336.24,0,0,0-4.66-77.9c-9.5-53.68-33.83-105-68-149.17-2.17-2.82-4.4-5.56-6.65-8.22A232.65,232.65,0,0,0,309.67,25c-13.36-12.17-28.12-20.31-41.45-31a7.55,7.55,0,0,0-1.73-.93c-8.35-3.72-16.27-11.63-24.88-16.55"/><path class="cls-13" d="M316,465.57c12.24-10.27,23.08-20.71,41.31-42.64A237.06,237.06,0,0,0,371.72,403a165,165,0,0,0,20.09-42.85,373.83,373.83,0,0,0,15.44-75.79c.05-.59.11-1.19.15-1.78a334.78,334.78,0,0,0-3.21-77.34c-8.42-53.41-31.86-104.73-64.8-149.24-2.09-2.84-4.24-5.59-6.41-8.27a237,237,0,0,0-21-22.57c-12.9-12.31-27.4-20.39-40.05-31.35a5.91,5.91,0,0,0-1.67-.91c-8.22-3.53-15.89-12-24.33-16.86"/><path class="cls-14" d="M310.14,463.05c12.86-10.36,23-20.57,41.65-42.28,4.84-5.65,9.6-12.3,14.66-19.59A161.85,161.85,0,0,0,387.16,359c7.32-22.6,13.7-47.48,16.77-74.77.07-.59.14-1.18.19-1.77a332.37,332.37,0,0,0-1.76-76.76C395,152.57,372.47,101.22,340.74,56.38c-2-2.85-4.09-5.61-6.18-8.31a242.11,242.11,0,0,0-20.25-22.74C301.86,12.89,287.63,4.85,275.66-6.38a5.33,5.33,0,0,0-1.61-.89c-8.09-3.32-15.51-12.35-23.79-17.17"/><path class="cls-15" d="M304.29,460.52c13.47-10.43,23-20.41,42-41.91,4.91-5.55,9.73-12.13,14.9-19.29a158.79,158.79,0,0,0,21.34-41.49c7.59-22.32,14.5-46.74,18.1-73.74.08-.58.15-1.16.22-1.75a330.47,330.47,0,0,0-.31-76.2c-6.29-52.87-27.93-104.25-58.43-149.4-1.94-2.87-3.94-5.65-6-8.36a246.48,246.48,0,0,0-19.52-22.9c-12-12.57-26-20.59-37.24-32.07a4.42,4.42,0,0,0-1.56-.87c-8-3.1-15.12-12.71-23.23-17.48"/><path class="cls-16" d="M298.44,458c14.09-10.51,22.94-20.26,42.33-41.54,5-5.46,9.86-11.95,15.13-19a156,156,0,0,0,22-40.81c7.88-22.06,15.31-46,19.43-72.72.09-.58.18-1.15.26-1.73a328.31,328.31,0,0,0,1.14-75.64c-5.22-52.58-26-104-55.25-149.48-1.86-2.88-3.78-5.67-5.72-8.4a253.19,253.19,0,0,0-18.79-23.06C307.42,12.92,293.69,4.9,283.11-6.8a3.66,3.66,0,0,0-1.51-.85c-7.85-2.86-14.74-13.08-22.69-17.79"/><path class="cls-17" d="M292.59,455.46c14.71-10.59,22.88-20.11,42.67-41.17,5-5.36,10-11.78,15.37-18.68a153.52,153.52,0,0,0,22.59-40.12c8.18-21.79,16.11-45.3,20.77-71.7.1-.57.2-1.14.29-1.71A326.44,326.44,0,0,0,396.87,207c-4.16-52.3-24-103.73-52.07-149.55-1.77-2.9-3.62-5.7-5.49-8.45a257.68,257.68,0,0,0-18.05-23.22C310.2,12.93,296.71,4.9,286.83-7a3.19,3.19,0,0,0-1.45-.82c-7.73-2.59-14.36-13.45-22.14-18.11"/><path class="cls-18" d="M286.73,452.94c15.34-10.67,22.83-20,43-40.81,5.09-5.27,10.13-11.6,15.61-18.37a151.54,151.54,0,0,0,23.21-39.45c8.47-21.52,16.92-44.56,22.11-70.67.11-.56.22-1.13.32-1.69a323.68,323.68,0,0,0,4-74.51c-3.11-52-22-103.48-48.89-149.64-1.69-2.9-3.46-5.73-5.26-8.49a265.89,265.89,0,0,0-17.31-23.38c-10.6-13-23.84-21.06-33-33.16A2.63,2.63,0,0,0,289.16-8c-7.63-2.28-14-13.8-21.6-18.41"/><path class="cls-19" d="M280.88,450.41c16-10.75,22.77-19.82,43.35-40.44,5.16-5.17,10.27-11.43,15.85-18.07a149.46,149.46,0,0,0,23.85-38.76c8.76-21.27,17.77-43.83,23.43-69.65.12-.56.25-1.11.36-1.67a322.35,322.35,0,0,0,5.5-73.95c-2.06-51.72-20.07-103.22-45.72-149.72-1.61-2.91-3.3-5.75-5-8.52a274.15,274.15,0,0,0-16.59-23.56C315.76,13,302.78,4.82,294.27-7.44a2,2,0,0,0-1.34-.79C286-11.65,279.34-22.4,271.88-27"/><path class="cls-20" d="M275,447.88c16.58-10.83,22.71-19.68,43.69-40.08,5.22-5.07,10.4-11.24,16.09-17.75A147.74,147.74,0,0,0,359.28,352c9.06-21,18.58-43.1,24.77-68.63.13-.55.27-1.1.39-1.65a319.55,319.55,0,0,0,6.95-73.39c-1-51.42-18.1-102.94-42.54-149.79-1.53-2.93-3.15-5.78-4.79-8.57-5.15-8.75-10.56-16.47-15.85-23.72C318.53,13,308,3.09,298-7.66a1.42,1.42,0,0,0-1.28-.76c-6.79-3.33-13.21-14.53-20.5-19"/><path class="cls-21" d="M269.18,445.35c17.2-10.91,22.64-19.53,44-39.71,5.28-5,10.54-11.07,16.33-17.45,9.87-10.89,18.86-23.59,25.09-37.4C364,330,374,308.43,380.73,283.19c.15-.54.3-1.09.42-1.63a316.49,316.49,0,0,0,8.41-72.83c0-51.12-16.14-102.67-39.36-149.87-1.45-2.94-3-5.81-4.56-8.61-4.9-8.78-10.07-16.55-15.11-23.88C321.31,13,311.18,3,301.71-7.87a1.24,1.24,0,0,0-1.22-.74c-6.63-3.23-12.83-14.9-20-19.35"/><path class="cls-22" d="M263.33,442.83c17.82-11,22.57-19.39,44.37-39.35,5.34-4.88,10.68-10.89,16.56-17.14,10.1-10.72,19.35-23.2,25.73-36.72,9.66-20.49,20.2-41.64,27.43-66.58.15-.54.31-1.07.45-1.61a314.16,314.16,0,0,0,9.86-72.27c1.06-50.81-14.18-102.39-36.18-149.94-1.36-3-2.83-5.84-4.32-8.66-4.66-8.81-9.6-16.64-14.38-24C324.09,13,314.39,2.94,305.43-8.09a1.1,1.1,0,0,0-1.16-.72c-6.46-3.13-12.45-15.26-19.41-19.66"/><path class="cls-23" d="M257.48,440.3c18.44-11.07,22.49-19.25,44.71-39,5.39-4.79,10.81-10.72,16.8-16.84,10.32-10.55,19.83-22.81,26.35-36,10-20.24,21-40.91,28.76-65.56.17-.53.34-1.06.49-1.59a311,311,0,0,0,11.31-71.7c2.09-50.52-12.22-102.11-33-150-1.29-3-2.68-5.86-4.1-8.7-4.41-8.84-9.11-16.73-13.65-24.2-8.29-13.68-17.56-23.81-26-35a1,1,0,0,0-1.1-.7c-6.29-3-12.07-15.62-18.87-20"/><path class="cls-24" d="M251.62,437.77c19.06-11.15,22.43-19.11,45.06-38.61,5.45-4.7,10.95-10.54,17-16.53,10.55-10.39,20.31-22.42,27-35.36,10.29-20,21.82-40.17,30.1-64.53.18-.53.36-1.05.52-1.58A308.34,308.34,0,0,0,384.07,210c3.11-50.21-10.26-101.82-29.81-150.1-1.21-3-2.52-5.89-3.86-8.75-4.17-8.87-8.64-16.81-12.92-24.37C329.65,13,320.8,2.79,312.87-8.51a.85.85,0,0,0-1.05-.68c-6.11-2.94-11.68-16-18.31-20.28"/><path class="cls-25" d="M245.77,435.25c19.68-11.23,22.35-19,45.39-38.25,5.51-4.61,11.1-10.37,17.28-16.23,10.78-10.22,20.81-22,27.6-34.67,10.61-19.74,22.63-39.44,31.44-63.51.19-.52.38-1,.55-1.56a305.57,305.57,0,0,0,14.21-70.57c4.13-49.9-8.31-101.53-26.63-150.18-1.13-3-2.37-5.92-3.63-8.78-3.92-8.91-8.15-16.91-12.18-24.54C332.43,13,324,2.72,316.59-8.73c-.09-.71-.89-.8-1-.65-5.94-2.84-11.3-16.35-17.77-20.6"/><path class="cls-26" d="M239.92,432.72c20.3-11.31,22.26-18.84,45.73-37.88,5.57-4.52,11.24-10.19,17.52-15.93,11-10,21.3-21.63,28.23-34,10.93-19.48,23.43-38.7,32.76-62.48.2-.51.41-1,.59-1.54a303,303,0,0,0,15.67-70c5.13-49.58-6.37-101.23-23.46-150.25-1-3-2.21-6-3.4-8.83-3.68-8.94-7.66-17-11.44-24.7C335.2,13,327.21,2.64,320.31-8.94c-.06-.74-.87-.81-.93-.64-5.77-2.74-10.92-16.71-17.23-20.9"/><path class="cls-27" d="M234.07,430.19c20.92-11.39,22.18-18.7,46.07-37.51,5.62-4.43,11.38-10,17.76-15.62,11.23-9.88,21.79-21.24,28.85-33.31,11.26-19.24,24.24-38,34.1-61.46.21-.51.43-1,.62-1.52a299.53,299.53,0,0,0,17.12-69.44c6.14-49.28-4.42-100.94-20.28-150.34-1-3-2.05-6-3.16-8.87-3.44-9-7.19-17.09-10.72-24.86C338,13,330.42,2.57,324-9.15c0-.76-.84-.82-.87-.62-5.61-2.64-10.54-17.08-16.68-21.22"/><path class="cls-28" d="M228.22,427.66c21.54-11.46,22.09-18.57,46.41-37.14,5.67-4.34,11.52-9.83,18-15.32,11.47-9.7,22.3-20.85,29.48-32.62,11.59-19,25-37.25,35.43-60.44.23-.5.45-1,.66-1.5a296.37,296.37,0,0,0,18.57-68.88c7.14-49-2.48-100.64-17.1-150.41-.89-3-1.89-6-2.93-8.92-3.19-9-6.7-17.17-10-25-6-14.37-13.13-24.92-19-36.78,0-.77-.81-.81-.82-.59-5.43-2.55-10.15-17.44-16.13-21.53"/><path class="cls-29" d="M222.37,425.14c22.16-11.55,22-18.45,46.75-36.78,5.72-4.25,11.66-9.66,18.23-15,11.7-9.54,22.8-20.46,30.1-32,11.93-18.74,25.86-36.51,36.77-59.41.23-.49.47-1,.69-1.48a293.14,293.14,0,0,0,20-68.32c8.13-48.64-.54-100.33-13.92-150.49-.81-3-1.74-6-2.7-9-2.94-9-6.22-17.26-9.24-25.19-5.53-14.5-12.24-25.13-17.6-37.13,0-.79-.79-.82-.76-.57C325.45-12.61,320.94-28,315.13-32"/><path class="cls-30" d="M216.51,422.61c22.79-11.63,21.91-18.32,47.1-36.42,5.78-4.15,11.8-9.47,18.47-14.7,11.93-9.36,23.3-20.06,30.73-31.26,12.26-18.49,26.66-35.78,38.1-58.39.24-.49.49-1,.72-1.46a290.37,290.37,0,0,0,21.47-67.76c9.12-48.33,1.39-100-10.74-150.56-.73-3.05-1.58-6.05-2.46-9-2.71-9-5.74-17.35-8.51-25.35C346.32,13.06,340,2.34,335.19-9.8c.07-.81-.76-.82-.7-.55-5.09-2.35-9.39-18.17-15-22.15"/><path class="cls-31" d="M210.66,420.08c23.41-11.7,21.82-18.19,47.44-36.05,5.83-4.06,11.95-9.29,18.7-14.39,12.17-9.19,23.82-19.67,31.36-30.58,12.61-18.25,27.47-35.05,39.43-57.37.26-.48.52-.95.76-1.44a286.8,286.8,0,0,0,22.92-67.19c10.1-48,3.32-99.72-7.56-150.65-.65-3.06-1.42-6.07-2.23-9-2.46-9.07-5.26-17.43-7.78-25.51C349.1,13.07,343.24,2.27,338.91-10c.11-.83-.74-.83-.64-.53-4.92-2.26-9-18.53-14.49-22.46"/><path class="cls-32" d="M204.81,417.55c24-11.78,21.72-18.07,47.77-35.68,5.89-4,12.1-9.11,18.95-14.09,12.4-9,24.33-19.27,32-29.9,13-18,28.28-34.31,40.77-56.34.26-.48.54-.94.78-1.42a283.1,283.1,0,0,0,24.38-66.63c11.07-47.7,5.24-99.41-4.37-150.73-.58-3.06-1.27-6.09-2-9.08C360.85,44.57,358.29,36.15,356,28c-4.15-14.92-9.57-25.8-13.39-38.22.14-.85-.71-.84-.59-.51-4.74-2.16-8.62-18.9-13.94-22.78"/><path class="cls-33" d="M199,415c24.64-11.87,21.62-18,48.11-35.32,5.94-3.89,12.24-8.93,19.19-13.78,12.63-8.84,24.84-18.88,32.61-29.22C312.18,319,328,303.12,341,281.39c.28-.47.56-.93.82-1.4a280.07,280.07,0,0,0,25.83-66.07c12-47.39,7.16-99.09-1.19-150.8C365.92,60,365.3,57,364.65,54c-2-9.13-4.3-17.62-6.31-25.84-3.69-15-8.69-26-12-38.59.17-.87-.68-.84-.53-.48C341.24-13,337.58-30.18,332.42-34"/><path class="cls-34" d="M193.11,412.5c25.26-11.94,21.52-17.84,48.45-34.95,6-3.8,12.39-8.74,19.42-13.48,12.87-8.66,25.37-18.48,33.24-28.53,13.68-17.49,29.88-32.86,43.43-54.31.29-.45.58-.91.85-1.37a277.08,277.08,0,0,0,27.29-65.51c13-47.07,9.06-98.77,2-150.88-.42-3.09-1-6.15-1.54-9.17-1.74-9.16-3.81-17.7-5.57-26-3.23-15.18-7.8-26.24-10.58-38.94.19-.89-.67-.85-.48-.47-4.41-2-7.86-19.62-12.85-23.39"/><path class="cls-35" d="M187.25,410c25.89-12,21.42-17.73,48.8-34.58,6-3.72,12.53-8.56,19.66-13.17,13.11-8.48,25.89-18.08,33.86-27.86,14.05-17.23,30.69-32.12,44.76-53.28.3-.45.61-.89.89-1.36A273.9,273.9,0,0,0,364,214.79c14-46.77,11-98.47,5.16-151-.34-3.1-.81-6.18-1.3-9.22-1.5-9.18-3.33-17.79-4.85-26.17-2.76-15.32-6.9-26.47-9.17-39.3.22-.91-.64-.85-.42-.45-4.24-1.87-7.49-20-12.31-23.71"/><path class="cls-36" d="M181.4,407.44c26.51-12.1,21.32-17.61,49.14-34.21,6.08-3.63,12.68-8.38,19.9-12.87,13.34-8.3,26.42-17.68,34.48-27.17,14.42-17,31.49-31.39,46.1-52.26.31-.44.63-.88.92-1.34a271.1,271.1,0,0,0,30.19-64.37c14.9-46.46,12.87-98.15,8.34-151-.27-3.11-.65-6.2-1.07-9.26-1.26-9.21-2.85-17.88-4.11-26.33-2.3-15.46-6-26.69-7.77-39.67.26-.92-.61-.85-.36-.42-4.07-1.77-7.11-20.35-11.76-24"/><path class="cls-37" d="M175.55,404.92c27.13-12.18,21.21-17.52,49.48-33.85,6.13-3.55,12.83-8.19,20.14-12.56,13.58-8.12,27-17.28,35.11-26.49,14.79-16.72,32.29-30.67,47.43-51.24.32-.43.65-.87,1-1.32a267.94,267.94,0,0,0,31.64-63.81c15.84-46.15,14.77-97.83,11.52-151.11-.19-3.12-.49-6.23-.84-9.31-1-9.23-2.36-18-3.37-26.49-1.84-15.6-5.13-26.92-6.37-40,.29-1-.59-.86-.31-.4C357-13.37,354.21-32.41,349.72-36"/><path class="cls-38" d="M169.7,402.39c27.75-12.26,21.1-17.41,49.81-33.48,6.19-3.47,13-8,20.38-12.26,13.83-7.93,27.49-16.87,35.74-25.81,15.18-16.44,33.09-29.93,48.76-50.21.33-.43.67-.85,1-1.3a265.21,265.21,0,0,0,33.09-63.25c16.79-45.84,16.66-97.51,14.7-151.19-.11-3.13-.34-6.25-.6-9.35-.79-9.26-1.89-18-2.64-26.65-1.39-15.74-4.25-27.14-5-40.39.32-1-.56-.87-.25-.39C361-13.46,358.37-33,354.05-36.53"/><path class="cls-39" d="M163.85,399.86c28.37-12.34,21-17.31,50.15-33.12,6.24-3.37,13.13-7.82,20.62-11.94,14.06-7.76,28-16.46,36.36-25.13,15.57-16.18,33.9-29.2,50.1-49.19.34-.42.69-.84,1-1.28a262.3,262.3,0,0,0,34.54-62.68c17.72-45.55,18.55-97.2,17.88-151.27,0-3.14-.18-6.28-.37-9.39-.55-9.29-1.4-18.15-1.91-26.83-.92-15.87-3.35-27.35-3.56-40.75.35-1-.54-.87-.19-.36-3.56-1.48-6-21.44-10.12-25"/><path class="cls-40" d="M158,397.33c29-12.42,20.88-17.21,50.49-32.75,6.28-3.29,13.27-7.63,20.86-11.64,14.3-7.57,28.56-16.05,37-24.45,16-15.9,34.69-28.47,51.42-48.16.36-.42.72-.83,1.06-1.26a259.68,259.68,0,0,0,36-62.12c18.65-45.24,20.43-96.89,21.07-151.35,0-3.15,0-6.3-.14-9.43-.32-9.31-.93-18.23-1.18-27-.46-16-4.79-27.83-2.16-41.11.21-1.06-.51-.88-.13-.34-3.39-1.38-5.58-21.81-9.58-25.27"/><path class="cls-41" d="M152.14,394.81c29.61-12.5,20.77-17.13,50.84-32.39,6.33-3.21,13.42-7.44,21.09-11.33,14.55-7.38,29.11-15.64,37.62-23.77,16.35-15.62,35.49-27.74,52.76-47.14.36-.41.74-.81,1.09-1.24A257.36,257.36,0,0,0,353,217.38c19.57-44.95,22.29-96.57,24.24-151.42.11-3.17.12-6.33.09-9.48-.08-9.34-.44-18.32-.44-27.15,0-16.15-3.81-28.12-.76-41.48.24-1.07-.48-.88-.08-.31-3.21-1.29-5.19-22.17-9-25.58"/><path class="cls-42" d="M146.29,392.28c30.23-12.58,20.66-17,51.18-32,6.38-3.13,13.57-7.26,21.33-11C233.59,342,248.45,334,257,326.15c16.76-15.34,36.3-27,54.09-46.12.38-.4.76-.8,1.13-1.22a255.16,255.16,0,0,0,38.9-61c20.49-44.65,24.16-96.26,27.42-151.5.18-3.17.27-6.35.32-9.52.16-9.36.05-18.41.3-27.31.46-16.29-2.83-28.4.64-41.84.28-1.1-.46-.89,0-.29-3-1.19-4.81-22.54-8.48-25.9"/><path class="cls-43" d="M140.44,389.75C171.29,377.09,161,372.8,192,358.1c6.43-3.05,13.72-7.07,21.57-10.73,15-7,30.2-14.8,38.86-22.4,17.17-15.05,37.1-26.28,55.43-45.09.39-.4.78-.79,1.15-1.2a252.55,252.55,0,0,0,40.36-60.43c21.41-44.37,26-96,30.6-151.58.26-3.19.42-6.38.56-9.57.39-9.39.52-18.49,1-27.47.93-16.43-1.83-28.68,2.05-42.2.32-1.12-.43-.89,0-.28-2.87-1.09-4.43-22.89-7.93-26.2"/><path class="cls-44" d="M134.59,387.23c31.47-12.74,20.43-16.87,51.86-31.29,6.47-3,13.86-6.88,21.8-10.42,15.27-6.81,30.75-14.38,39.5-21.72,17.57-14.76,37.89-25.55,56.76-44.07.39-.39.8-.78,1.18-1.18a250.66,250.66,0,0,0,41.81-59.87C369.83,174.6,375.39,123,381.28,67c.34-3.19.58-6.4.79-9.61.63-9.41,1-18.58,1.76-27.64,1.38-16.56-.85-28.93,3.45-42.56.36-1.14-.4-.89.1-.25-2.7-1-4.05-23.26-7.39-26.51"/><path class="cls-45" d="M128.74,384.7c32.09-12.82,20.31-16.79,52.19-30.92,6.53-2.89,14-6.69,22-10.12,15.51-6.61,31.3-14,40.12-21,18-14.46,38.7-24.83,58.09-43.05.41-.38.83-.76,1.22-1.16a248.36,248.36,0,0,0,43.26-59.31c23.24-43.8,29.74-95.34,37-151.73.41-3.21.73-6.43,1-9.65.86-9.45,1.49-18.68,2.5-27.81C388,13.22,386.29.73,391-13c.4-1.16-.38-.9.15-.23-2.53-.9-3.66-23.63-6.83-26.83"/><path class="cls-46" d="M122.89,382.17c32.71-12.9,20.2-16.71,52.53-30.55,6.58-2.82,14.17-6.5,22.29-9.81,15.75-6.43,31.85-13.53,40.74-20.36,18.41-14.14,39.5-24.1,59.43-42,.42-.38.84-.75,1.25-1.15a246.27,246.27,0,0,0,44.71-58.74C368,176,375.44,124.5,384,67.73c.49-3.22.89-6.45,1.26-9.69,1.09-9.48,2-18.76,3.23-28,2.3-16.84,1.13-29.44,6.25-43.28.44-1.18-.35-.91.21-.21-2.36-.8-3.28-24-6.29-27.14"/><path class="cls-47" d="M117,379.64c33.34-13,20.09-16.64,52.88-30.18,6.62-2.74,14.31-6.31,22.52-9.51,16-6.23,32.41-13.09,41.38-19.67,18.83-13.83,40.29-23.37,60.75-41,.43-.37.87-.74,1.29-1.13A244.83,244.83,0,0,0,342,220c25.06-43.25,33.45-94.75,43.32-151.9.56-3.22,1-6.47,1.49-9.73,1.32-9.5,2.45-18.85,4-28.13,2.76-17,2.11-29.68,7.65-43.65.48-1.2-.33-.91.27-.19-2.19-.7-2.9-24.35-5.75-27.44"/><path class="cls-48" d="M111.18,377.12c34-13.06,20-16.58,53.22-29.82,6.67-2.66,14.46-6.12,22.76-9.2,16.24-6,33-12.66,42-19,19.26-13.5,41.09-22.65,62.09-40,.44-.37.89-.73,1.32-1.11a243.29,243.29,0,0,0,47.62-57.61c25.95-43,35.28-94.45,46.49-152,.64-3.24,1.19-6.51,1.73-9.78,1.55-9.53,2.93-18.94,4.69-28.29,3.23-17.12,3.11-29.92,9.06-44,.52-1.22-.3-.92.33-.17-2-.6-2.52-24.71-5.2-27.76"/><path class="cls-49" d="M105.33,374.59c34.57-13.14,19.86-16.51,53.56-29.46,6.72-2.58,14.61-5.92,23-8.89,16.47-5.83,33.52-12.22,42.62-18.31C244.2,304.77,266.4,296,287.93,279c.46-.36.92-.71,1.36-1.09a241.73,241.73,0,0,0,49.07-57c26.85-42.71,37.12-94.16,49.68-152,.7-3.25,1.34-6.53,1.95-9.82,1.78-9.56,3.41-19,5.43-28.45,3.69-17.26,4.09-30.15,10.46-44.38.56-1.23-.27-.92.39-.14-1.85-.51-2.14-25.08-4.66-28.07"/><path class="cls-50" d="M99.48,372.06c35.19-13.21,19.74-16.45,53.9-29.09,6.76-2.5,14.75-5.72,23.23-8.58,16.72-5.64,34.08-11.78,43.25-17.63,20.12-12.82,42.69-21.2,64.76-37.93.47-.35.93-.7,1.39-1.07,17.09-13.87,34.2-31.54,50.52-56.49,27.76-42.44,39-93.87,52.86-152.12.78-3.26,1.49-6.56,2.18-9.87,2-9.58,3.9-19.11,6.17-28.62C401.89,13.27,402.81.3,409.6-14.07c.6-1.25-.25-.92.44-.12-1.67-.41-1.75-25.45-4.1-28.39"/><path class="cls-51" d="M93.63,369.53c35.81-13.29,19.62-16.39,54.23-28.72,6.82-2.43,14.91-5.53,23.48-8.28,17-5.43,34.63-11.33,43.88-16.94,20.54-12.48,43.49-20.48,66.09-36.91.47-.35.95-.69,1.42-1.05,17.47-13.58,35.06-31,52-55.93,28.66-42.18,40.8-93.58,56-152.2.85-3.27,1.64-6.58,2.42-9.91,2.24-9.61,4.38-19.2,6.9-28.78,4.6-17.52,6.05-30.58,13.26-45.09.64-1.27-.22-.93.5-.11-1.51-.31-1.37-25.8-3.56-28.69"/><path class="cls-52" d="M87.78,367c36.43-13.38,19.5-16.34,54.57-28.36,6.87-2.35,15.06-5.34,23.72-8,17.2-5.24,35.18-10.89,44.5-16.27,21-12.11,44.29-19.75,67.42-35.88.49-.34,1-.68,1.46-1,17.85-13.29,35.91-30.52,53.42-55.36,29.56-41.94,42.63-93.31,59.22-152.28.92-3.29,1.79-6.61,2.65-10,2.47-9.65,4.86-19.29,7.63-28.95,5.07-17.66,7-30.8,14.67-45.46.68-1.28-.19-.93.56-.08-1.34-.21-1-26.17-3-29"/><path class="cls-53" d="M81.92,364.48c37.06-13.45,19.4-16.28,54.92-28,6.91-2.28,15.2-5.14,23.95-7.67,17.45-5,35.75-10.43,45.13-15.58,21.42-11.74,45.09-19,68.76-34.86.5-.33,1-.66,1.49-1,18.24-13,36.76-30,54.87-54.8,30.45-41.69,44.47-93,62.4-152.36,1-3.3,1.95-6.63,2.88-10,2.71-9.68,5.35-19.38,8.37-29.11,5.53-17.8,8-31,16.08-45.82.71-1.31-.18-.94.61-.06-1.17-.12-.61-26.53-2.47-29.32"/><path class="cls-54" d="M76.07,362c37.68-13.53,19.28-16.23,55.26-27.62,7-2.2,15.35-4.95,24.19-7.36,17.68-4.83,36.3-10,45.76-14.91,21.85-11.36,45.88-18.29,70.08-33.83.51-.33,1-.65,1.52-1,18.63-12.71,37.62-29.5,56.33-54.24,31.35-41.44,46.3-92.75,65.58-152.43,1.07-3.32,2.1-6.67,3.12-10,2.93-9.71,5.82-19.47,9.1-29.27,6-17.94,9-31.21,17.48-46.18.74-1.33-.15-.95.66,0-1,0-.22-26.9-1.92-29.63"/><path class="cls-55" d="M70.22,359.42c38.3-13.61,19.17-16.18,55.6-27.25,7-2.13,15.49-4.75,24.43-7.06,17.92-4.62,36.85-9.52,46.38-14.22,22.28-11,46.68-17.58,71.42-32.81.52-.32,1-.64,1.55-1,19-12.42,38.48-29,57.79-53.68,32.24-41.19,48.12-92.48,68.75-152.51,1.15-3.32,2.25-6.69,3.35-10.08,3.16-9.74,6.31-19.55,9.84-29.44,6.45-18.07,10-31.4,18.88-46.54.78-1.34-.12-.95.72,0-.82.08.16-27.26-1.37-29.94"/><path class="cls-56" d="M64.37,356.9c38.92-13.69,19-16.15,55.94-26.89,7.06-2.06,15.64-4.56,24.66-6.75,18.17-4.42,37.41-9.07,47-13.54,22.72-10.58,47.48-16.86,72.76-31.79.53-.32,1.06-.63,1.58-1,19.41-12.13,39.33-28.49,59.24-53.1,33.13-41,49.94-92.22,71.93-152.59,1.22-3.34,2.4-6.72,3.59-10.13,3.39-9.77,6.78-19.64,10.56-29.6,6.92-18.21,10.95-31.6,20.29-46.9.82-1.36-.1-1,.78,0-.65.18.54-27.62-.83-30.25"/><path class="cls-57" d="M58.52,354.37c39.54-13.77,18.94-16.11,56.27-26.52,7.12-2,15.79-4.36,24.91-6.45,18.4-4.21,38-8.6,47.63-12.86,23.16-10.17,48.28-16.13,74.09-30.76.54-.31,1.09-.61,1.62-.94,19.79-11.85,40.18-28,60.69-52.54,34-40.73,51.77-92,75.11-152.67q1.94-5,3.82-10.17c3.62-9.8,7.27-19.73,11.3-29.76,7.37-18.35,11.91-31.79,21.69-47.26.86-1.37-.07-1,.84,0-.49.27.92-28-.28-30.56"/><path class="cls-58" d="M52.67,351.84c40.15-13.85,18.82-16.07,56.61-26.15,7.16-1.92,15.94-4.17,25.15-6.14,18.64-4,38.5-8.14,48.26-12.18,23.58-9.76,49.08-15.41,75.42-29.74.55-.3,1.1-.6,1.65-.92,20.18-11.57,41-27.5,62.14-52C356.83,184.24,375.5,133,400.2,72q2-5.05,4-10.22c3.85-9.83,7.75-19.82,12-29.92,7.83-18.49,12.88-32,23.09-47.63.9-1.38-.05-1,.9,0-.32.37,1.3-28.35.26-30.88"/><path class="cls-59" d="M46.81,349.31c40.78-13.93,18.72-16,57-25.79,7.21-1.83,16.08-4,25.38-5.83C148,313.9,168.21,310,178,306.2c24-9.35,49.88-14.69,76.75-28.72.57-.3,1.13-.59,1.69-.9,20.57-11.29,41.88-27,63.59-51.42,35.82-40.26,55.42-91.43,81.48-152.82q2.15-5.07,4.28-10.25c4.07-9.87,8.23-19.91,12.77-30.09,8.29-18.63,13.85-32.17,24.49-48,.94-1.4,0-1,1,.06-.14.47,1.69-28.71.81-31.18"/><path class="cls-60" d="M41,346.79c41.4-14,18.61-16,57.3-25.43,7.26-1.76,16.23-3.76,25.62-5.53,19.12-3.58,39.6-7.19,49.51-10.81,24.44-8.91,50.65-14,78.09-27.69l1.72-.88c21-11,42.73-26.52,65-50.85,36.72-40,57.25-91.18,84.66-152.9,1.51-3.4,3-6.83,4.51-10.3,4.31-9.9,8.72-20,13.5-30.26,8.76-18.76,14.82-32.35,25.9-48.35,1-1.41,0-1,1,.09,0,.57,2.06-29.08,1.36-31.5"/><path class="cls-61" d="M35.11,344.26c42-14.09,18.49-16,57.64-25.06,7.31-1.69,16.37-3.57,25.86-5.22,19.35-3.37,40.14-6.72,50.14-10.13,24.86-8.48,51.45-13.29,79.41-26.67l1.76-.86c21.35-10.73,43.58-26,66.49-50.29,37.62-39.82,59.07-90.92,87.84-153,1.58-3.41,3.15-6.86,4.74-10.34,4.54-9.94,9.2-20.09,14.24-30.42,9.22-18.9,15.78-32.53,27.3-48.71,1-1.43,0-1,1.07.11.2.66,2.44-29.44,1.9-31.81"/><path class="cls-62" d="M29.26,341.73c42.64-14.17,18.38-16,58-24.69,7.36-1.62,16.52-3.37,26.09-4.92,19.59-3.16,40.69-6.24,50.77-9.44,25.28-8,52.26-12.56,80.75-25.66.6-.27,1.19-.54,1.79-.83,21.74-10.46,44.43-25.54,67.95-49.73,38.51-39.61,60.88-90.67,91-153.06q2.47-5.13,5-10.38c4.76-10,9.68-20.17,15-30.58,9.68-19,16.74-32.71,28.7-49.07,1.06-1.45.24-1.14,1.13.13.48.69,2.82-29.81,2.45-32.12"/><path class="cls-63" d="M23.41,339.21C66.67,325,41.68,323.28,81.73,314.88c7.41-1.55,16.66-3.17,26.33-4.61,19.83-2.95,41.22-5.77,51.39-8.77,25.71-7.57,53.06-11.83,82.09-24.63l1.82-.81c22.13-10.18,45.28-25.06,69.4-49.17C352.17,187.5,375.47,136.47,407,73.76q2.6-5.16,5.21-10.43c5-10,10.16-20.26,15.71-30.74C438,13.41,445.57-.3,458-16.85c1.1-1.46.21-1.09,1.18.15.63.8,3.21-30.16,3-32.43"/><path class="cls-64" d="M17.56,336.68c43.88-14.33,18.16-15.91,58.65-24,7.47-1.48,16.81-3,26.58-4.31,20.06-2.74,41.76-5.29,52-8.08,26.12-7.12,53.87-11.11,83.42-23.61l1.86-.79c22.52-9.91,46.13-24.58,70.85-48.6,40.31-39.19,64.53-90.19,97.37-153.22l5.45-10.47c5.22-10,10.64-20.35,16.43-30.9,10.6-19.32,18.67-33.07,31.51-49.8,1.13-1.48.19-1.07,1.24.17.77.91,3.59-30.53,3.55-32.74"/><path class="cls-65" d="M11.7,334.15c44.51-14.41,18.07-15.89,59-23.59,7.52-1.42,17-2.77,26.82-4,20.29-2.53,42.29-4.81,52.64-7.4,26.53-6.66,54.67-10.38,84.75-22.59l1.88-.77c22.92-9.63,47-24.1,72.31-48,41.21-39,66.36-89.94,100.55-153.29q2.81-5.2,5.68-10.51c5.43-10.09,11.12-20.44,17.17-31.08,11.06-19.45,19.62-33.23,32.91-50.15,1.17-1.49.18-1.05,1.3.19.92,1,4-30.9,4.09-33.06"/><path class="cls-66" d="M5.85,331.62c45.12-14.48,18-15.95,59.34-23.22,7.56-1.36,17.1-2.56,27.05-3.7,20.53-2.28,42.83-4.32,53.27-6.72,26.93-6.18,55.47-9.65,86.08-21.56l1.92-.75c23.3-9.39,47.8-23.66,73.76-47.48C349.32,189.35,375.38,138.45,411,74.82q2.89-5.22,5.9-10.55c5.67-10.12,11.61-20.53,17.91-31.24,11.52-19.59,20.57-33.4,34.31-50.52,1.21-1.5.18-1,1.36.22s4.35-31.26,4.63-33.37"/><path class="cls-67" d="M0,329.1c45.74-14.57,17.86-15.86,59.68-22.86,23.36-3.91,65.54-6.17,81.18-9.43,48.66-10.16,102.4-12.43,164.58-68.19,52-46.65,80.62-111.36,131.7-195.44,12-19.73,21.51-33.58,35.71-50.88,1.25-1.52.19-1,1.41.23s4.74-31.62,5.19-33.67"/><g class="cls-3"><path class="cls-68" d="M66.39,14.07H60.51v0a4.41,4.41,0,0,0,4,2.59h0l25.19-.06L90.25,14Z"/><path class="cls-69" d="M66.39,14.07H60.51v0a4.41,4.41,0,0,0,4,2.59h0l25.19-.06L90.25,14Z"/><path class="cls-68" d="M72.33,16.77l-5.63,0v0a4.42,4.42,0,0,0,4,2.6h24l1.12-2.67Z"/><path class="cls-69" d="M72.33,16.77l-5.63,0v0a4.42,4.42,0,0,0,4,2.6h24l1.12-2.67Z"/><path class="cls-68" d="M78.77,19.5l-5.63,0v0a4.42,4.42,0,0,0,3.95,2.6h24l1.12-2.67Z"/><path class="cls-69" d="M78.77,19.5l-5.63,0v0a4.42,4.42,0,0,0,3.95,2.6h24l1.12-2.67Z"/><path class="cls-68" d="M102.73,24.79l0-2.46L90,22.21s0,0,0,0l-7.93,0v0a4.42,4.42,0,0,0,4,2.6h16.67Z"/><path class="cls-69" d="M102.73,24.79l0-2.46L90,22.21s0,0,0,0l-7.93,0v0a4.42,4.42,0,0,0,4,2.6h16.67Z"/><path class="cls-68" d="M130.21,14.18l-24.23,0,.64,2.64,25.2,0h0a4.42,4.42,0,0,0,4-2.6v0Z"/><path class="cls-69" d="M130.21,14.18l-24.23,0,.64,2.64,25.2,0h0a4.42,4.42,0,0,0,4-2.6v0Z"/><path class="cls-68" d="M124,16.88l-23.41-.05,1.13,2.68h23.94a4.43,4.43,0,0,0,4-2.59v0Z"/><path class="cls-69" d="M124,16.88l-23.41-.05,1.13,2.68h23.94a4.43,4.43,0,0,0,4-2.59v0Z"/><path class="cls-68" d="M117.52,19.61l-23.4-.05,1.12,2.68h24a4.42,4.42,0,0,0,4-2.6v0Z"/><path class="cls-69" d="M117.52,19.61l-23.4-.05,1.12,2.68h24a4.42,4.42,0,0,0,4-2.6v0Z"/><path class="cls-68" d="M106.26,22.29s0,0,0,0l-12.68.13,0,2.46h16.66a4.41,4.41,0,0,0,4-2.59v0Z"/><path class="cls-69" d="M106.26,22.29s0,0,0,0l-12.68.13,0,2.46h16.66a4.41,4.41,0,0,0,4-2.59v0Z"/><g class="cls-70"><g class="cls-71"><g class="cls-72"><path class="cls-73" d="M87.53,20.58c0-6.28,4.76-11.38,10.62-11.38s10.61,5.1,10.61,11.38S104,32,98.15,32,87.53,26.87,87.53,20.58"/><ellipse class="cls-74" cx="98.15" cy="20.58" rx="10.61" ry="11.38"/></g></g></g><path class="cls-68" d="M89.67,20.58c0-5,3.79-9.09,8.48-9.09s8.47,4.07,8.47,9.09-3.79,9.09-8.47,9.09-8.48-4.07-8.48-9.09"/><ellipse class="cls-74" cx="98.15" cy="20.58" rx="8.48" ry="9.09"/><path d="M94.67,24.26V16.83a.72.72,0,0,1,.69-.74h5.42a.72.72,0,0,1,.69.74v7.43a.72.72,0,0,1-.69.74H95.36a.72.72,0,0,1-.69-.74"/><path d="M94.3,23.57V17.44a.51.51,0,0,1,.49-.53h6.56a.51.51,0,0,1,.49.53v6.13a.51.51,0,0,1-.49.53H94.79a.51.51,0,0,1-.49-.53"/><path class="cls-68" d="M94.67,21.1V18.6a.62.62,0,0,1,.6-.64h5.6a.62.62,0,0,1,.6.64v2.5a.62.62,0,0,1-.6.64h-5.6a.62.62,0,0,1-.6-.64"/><path class="cls-75" d="M95.12,23.54h0a.33.33,0,0,1,.32-.34h.39a.33.33,0,0,1,.32.34h0a.33.33,0,0,1-.32.34h-.39a.33.33,0,0,1-.32-.34"/><path class="cls-74" d="M95.12,23.54h0a.33.33,0,0,1,.32-.34h.39a.33.33,0,0,1,.32.34h0a.33.33,0,0,1-.32.34h-.39A.33.33,0,0,1,95.12,23.54Z"/><path class="cls-75" d="M100,23.57V23.5a.3.3,0,0,1,.29-.31h.49a.26.26,0,0,1,.25.27v.15a.26.26,0,0,1-.25.27h-.49a.3.3,0,0,1-.29-.31"/><path class="cls-74" d="M100,23.57V23.5a.3.3,0,0,1,.29-.31h.49a.26.26,0,0,1,.25.27v.15a.26.26,0,0,1-.25.27h-.49A.3.3,0,0,1,100,23.57Z"/><path class="cls-73" d="M95.56,16.78h0a.26.26,0,0,1,.25-.27h4.52a.26.26,0,0,1,.25.27h0a.26.26,0,0,1-.25.27H95.81a.26.26,0,0,1-.25-.27"/><path d="M101.84,19.33V18.6a.25.25,0,0,1,.24-.26h0a.24.24,0,0,1,.24.26v.73a.24.24,0,0,1-.24.25h0a.25.25,0,0,1-.24-.25"/><path d="M93.82,19.33V18.6a.24.24,0,0,1,.24-.26h0a.25.25,0,0,1,.24.26v.73a.25.25,0,0,1-.24.25h0a.24.24,0,0,1-.24-.25"/><path d="M95.18,25.27V25h.9v.27a.42.42,0,0,1-.4.44h-.09a.43.43,0,0,1-.41-.44"/><path d="M100.13,25.27V25h.9v.27a.42.42,0,0,1-.4.44h-.09a.43.43,0,0,1-.41-.44"/><path d="M97.61,16.08l2.45-4.27a.15.15,0,0,1,.22-.06h0a.16.16,0,0,1,0,.23l-2.44,4.27a.16.16,0,0,1-.22.06h0a.19.19,0,0,1-.06-.24"/><path d="M98.48,16l2.28-4A.15.15,0,0,1,101,12h0a.16.16,0,0,1,0,.23l-2.27,4a.16.16,0,0,1-.22.06h0a.19.19,0,0,1-.06-.24"/><polygon class="cls-75" points="114.83 16.45 111.8 21.49 114.82 19.08 115.25 19.89 118.36 15.2 115.18 17.49 114.83 16.45"/><polygon class="cls-69" points="114.83 16.45 111.8 21.49 114.82 19.08 115.25 19.89 118.36 15.2 115.18 17.49 114.83 16.45"/><polygon class="cls-75" points="81.47 16.45 84.49 21.49 81.48 19.08 81.05 19.89 77.93 15.2 81.11 17.49 81.47 16.45"/><polygon class="cls-74" points="81.47 16.45 84.49 21.49 81.48 19.08 81.05 19.89 77.93 15.2 81.11 17.49 81.47 16.45"/></g><text class="cls-76" transform="translate(147.59 23.11) scale(1.01 1)"><tspan xml:space="preserve">Троллейбус   г.Иваново   МУП «ИПТ»</tspan></text></g></svg>