<svg id="Layer_1" data-name="Layer 1" xmlns="http://www.w3.org/2000/svg" xmlns:xlink="http://www.w3.org/1999/xlink" viewBox="0 0 444 280"><defs><style>.cls-1,.cls-10,.cls-11,.cls-12,.cls-13,.cls-14,.cls-15,.cls-16,.cls-17,.cls-18,.cls-19,.cls-20,.cls-21,.cls-22,.cls-23,.cls-24,.cls-25,.cls-26,.cls-27,.cls-28,.cls-29,.cls-30,.cls-31,.cls-32,.cls-33,.cls-34,.cls-35,.cls-36,.cls-37,.cls-39,.cls-43,.cls-6,.cls-7,.cls-8,.cls-9{fill:none;}.cls-2{clip-path:url(#clip-path);}.cls-3{fill:url(#linear-gradient);}.cls-4{fill:url(#linear-gradient-2);}.cls-5{fill:url(#linear-gradient-3);}.cls-6{stroke:#b58c10;}.cls-10,.cls-11,.cls-12,.cls-13,.cls-14,.cls-15,.cls-16,.cls-17,.cls-18,.cls-19,.cls-20,.cls-21,.cls-22,.cls-23,.cls-24,.cls-25,.cls-26,.cls-27,.cls-28,.cls-29,.cls-30,.cls-31,.cls-32,.cls-33,.cls-34,.cls-35,.cls-36,.cls-37,.cls-43,.cls-6,.cls-7,.cls-8,.cls-9{stroke-miterlimit:10;}.cls-10,.cls-11,.cls-12,.cls-13,.cls-14,.cls-15,.cls-16,.cls-17,.cls-18,.cls-19,.cls-20,.cls-21,.cls-22,.cls-23,.cls-24,.cls-25,.cls-26,.cls-27,.cls-28,.cls-29,.cls-30,.cls-31,.cls-32,.cls-33,.cls-34,.cls-35,.cls-36,.cls-37,.cls-6,.cls-7,.cls-8,.cls-9{stroke-width:1.28px;}.cls-7{stroke:#b78f16;}.cls-8{stroke:#ba931c;}.cls-9{stroke:#bc9621;}.cls-10{stroke:#bf9927;}.cls-11{stroke:#c19c2d;}.cls-12{stroke:#c3a033;}.cls-13{stroke:#c6a339;}.cls-14{stroke:#c8a63e;}.cls-15{stroke:#caa944;}.cls-16{stroke:#cdad4a;}.cls-17{stroke:#cfb050;}.cls-18{stroke:#d2b356;}.cls-19{stroke:#d4b65b;}.cls-20{stroke:#d6ba61;}.cls-21{stroke:#d9bd67;}.cls-22{stroke:#dbc06d;}.cls-23{stroke:#dec373;}.cls-24{stroke:#e0c779;}.cls-25{stroke:#e2ca7e;}.cls-26{stroke:#e5cd84;}.cls-27{stroke:#e7d08a;}.cls-28{stroke:#ead490;}.cls-29{stroke:#ecd796;}.cls-30{stroke:#eeda9b;}.cls-31{stroke:#f1dda1;}.cls-32{stroke:#f3e1a7;}.cls-33{stroke:#f5e4ad;}.cls-34{stroke:#f8e7b3;}.cls-35{stroke:#faeab8;}.cls-36{stroke:#fdeebe;}.cls-37{stroke:#fff1c4;}.cls-38{fill:#fff;}.cls-39,.cls-43{stroke:#000;stroke-width:0.43px;}.cls-39{stroke-linecap:round;stroke-linejoin:round;}.cls-40{opacity:0.98;}.cls-41{clip-path:url(#clip-path-2);}.cls-42{fill:#f2c615;}.cls-44{fill:#f1c616;}</style><clipPath id="clip-path"><rect class="cls-1" x="-0.03" width="444" height="280"/></clipPath><linearGradient id="linear-gradient" x1="49.91" y1="47.79" x2="540.98" y2="310.88" gradientUnits="userSpaceOnUse"><stop offset="0" stop-color="#f8d723"/><stop offset="0.28" stop-color="#e4bb1c"/><stop offset="0.88" stop-color="#b3740b"/><stop offset="1" stop-color="#a86507"/></linearGradient><linearGradient id="linear-gradient-2" x1="27.25" y1="-239.17" x2="507.3" y2="169.9" gradientUnits="userSpaceOnUse"><stop offset="0" stop-color="#f8d723"/><stop offset="0.26" stop-color="#f6d422"/><stop offset="0.46" stop-color="#efca20"/><stop offset="0.64" stop-color="#e3b91c"/><stop offset="0.81" stop-color="#d2a216"/><stop offset="0.98" stop-color="#bd840e"/><stop offset="1" stop-color="#ba7f0d"/></linearGradient><linearGradient id="linear-gradient-3" x1="-150.32" y1="-23.72" x2="110.15" y2="200.1" gradientTransform="matrix(1.05, -0.23, 0.29, 1.32, 260.48, 36.13)" gradientUnits="userSpaceOnUse"><stop offset="0" stop-color="#f8d723"/><stop offset="0.33" stop-color="#e6bd1d"/><stop offset="1" stop-color="#ba7f0d"/></linearGradient><clipPath id="clip-path-2"><rect class="cls-1" x="71.72" y="11.9" width="24.74" height="26.26"/></clipPath></defs><g class="cls-2"><rect class="cls-3" x="0.06" width="443.9" height="280"/><polygon class="cls-4" points="617.81 166.01 204.81 -235.32 70.2 -104.51 483.2 296.81 617.81 166.01"/><polygon class="cls-5" points="31.74 -23.29 393.67 329.62 455.56 306.15 81.43 -53.01 31.74 -23.29"/><path class="cls-6" d="M356.94,483.26C367,470.88,389.21,454.78,408.61,416c15.94-31.86,23.82-79.39,21.81-130.58,0-.64-.05-1.28-.08-1.92-3.8-85.67-39.19-167.36-100.41-230q-4-4.09-8.05-8c-33.37-31.94-68-45.15-106.19-66"/><path class="cls-7" d="M345.43,478.29c9.11-9.88,23.24-21.46,39.59-44.49a212.18,212.18,0,0,0,13.22-21.43c7.09-13,12.84-28.72,16.91-46.19a353.72,353.72,0,0,0,8.75-81c0-.62,0-1.25,0-1.88a345.62,345.62,0,0,0-10.51-80.1c-13.84-54.73-41.73-105.94-80.79-148.92-2.5-2.75-5-5.43-7.59-8.05a228.64,228.64,0,0,0-24.65-21.73c-15.22-11.61-31.11-20.1-47.07-29.52-.65-.38-1.36-.72-2-1-8.91-4.4-17.81-10.16-27.09-15.29"/><path class="cls-8" d="M333.92,473.31c10.33-10,23.18-21.16,40.26-43.77a222.12,222.12,0,0,0,13.68-20.82A176.49,176.49,0,0,0,406,363.87a356.69,356.69,0,0,0,11.38-79c0-.62,0-1.23,0-1.85a342.83,342.83,0,0,0-7.65-79c-11.71-54.24-37.87-105.5-74.53-149.07q-3.53-4.19-7.14-8.14a227.7,227.7,0,0,0-23.21-22c-14.3-11.88-29.6-20.2-44.31-30.23a14.35,14.35,0,0,0-1.88-1c-8.63-4.08-17.06-10.87-26-15.9"/><path class="cls-9" d="M322.4,468.34c11.56-10.19,23.12-20.87,40.94-43a232,232,0,0,0,14.15-20.22,168.63,168.63,0,0,0,19.38-43.51,363.11,363.11,0,0,0,14-77c0-.6.08-1.2.11-1.81a340.58,340.58,0,0,0-4.79-77.88c-9.6-53.73-34-105-68.28-149.23-2.19-2.81-4.43-5.55-6.68-8.22A234.71,234.71,0,0,0,309.46,25C296.06,12.89,281.32,4.71,267.91-5.9a8.18,8.18,0,0,0-1.77-1c-8.36-3.74-16.31-11.59-24.93-16.52"/><path class="cls-10" d="M310.89,463.37c12.78-10.35,23-20.58,41.6-42.33,4.83-5.66,9.58-12.32,14.63-19.62a162,162,0,0,0,20.6-42.18c7.3-22.65,13.74-47.61,16.63-75q.11-.88.18-1.77a337.66,337.66,0,0,0-1.94-76.77c-7.48-53.2-30.14-104.57-62-149.38-2-2.85-4.12-5.61-6.22-8.3A240.6,240.6,0,0,0,314,25.33C301.53,12.91,287.31,4.82,275.23-6.32a5.2,5.2,0,0,0-1.66-.91c-8.1-3.37-15.55-12.31-23.85-17.14"/><path class="cls-11" d="M299.38,458.4c14-10.51,22.94-20.3,42.27-41.61,5-5.47,9.84-12,15.09-19a156.23,156.23,0,0,0,21.84-40.83c7.86-22.12,15.35-46.17,19.26-73,.08-.57.17-1.15.24-1.72a334.51,334.51,0,0,0,.91-75.67C393.6,153.91,372.73,102.47,343.22,57c-1.86-2.87-3.8-5.66-5.76-8.38a251.44,251.44,0,0,0-18.88-23c-11.59-12.69-25.3-20.75-36-32.37A3.93,3.93,0,0,0,281-7.61c-7.85-2.93-14.8-13-22.78-17.75"/><path class="cls-12" d="M287.87,453.42c15.21-10.66,22.83-20,42.94-40.88,5.08-5.28,10.1-11.64,15.56-18.43a151.69,151.69,0,0,0,23.07-39.49c8.43-21.6,16.95-44.73,21.88-71,.11-.56.21-1.13.31-1.69a330.26,330.26,0,0,0,3.76-74.56c-3.3-52.09-22.39-103.58-49.51-149.69-1.7-2.9-3.49-5.72-5.3-8.47a265.93,265.93,0,0,0-17.44-23.34c-10.68-13-23.9-21.06-33.27-33.08A2.91,2.91,0,0,0,288.43-8c-7.63-2.39-14.05-13.74-21.7-18.36"/><path class="cls-13" d="M276.36,448.45c16.43-10.82,22.71-19.72,43.61-40.17,5.2-5.09,10.36-11.28,16-17.82a147.89,147.89,0,0,0,24.3-38.15c9-21.09,18.55-43.29,24.51-68.95q.19-.83.36-1.65a325.4,325.4,0,0,0,6.62-73.45c-1.24-51.51-18.52-103.06-43.25-149.84-1.54-2.93-3.18-5.78-4.84-8.56-5.21-8.73-10.66-16.43-16-23.66C317.92,13,307.28,3.12,297.18-7.59a1.51,1.51,0,0,0-1.31-.78c-6.84-3.35-13.3-14.45-20.63-19"/><path class="cls-14" d="M264.84,443.48c17.66-11,22.59-19.44,44.28-39.45,5.32-4.91,10.64-10.94,16.5-17.22,10-10.74,19.2-23.25,25.54-36.82,9.6-20.58,20.15-41.83,27.13-66.93.15-.53.3-1.07.43-1.61a321.51,321.51,0,0,0,9.48-72.35c.79-50.92-14.66-102.51-37-150-1.38-3-2.88-5.82-4.39-8.64-4.72-8.79-9.71-16.6-14.55-24C323.39,13,313.59,3,304.5-8a1.17,1.17,0,0,0-1.2-.74c-6.5-3.16-12.55-15.17-19.56-19.58"/><path class="cls-15" d="M253.33,438.5c18.88-11.12,22.44-19.15,44.95-38.72,5.43-4.72,10.91-10.59,17-16.62,10.47-10.42,20.15-22.49,26.76-35.48,10.22-20.08,21.76-40.39,29.77-64.92.17-.52.34-1,.49-1.57A316.35,316.35,0,0,0,384.6,210c2.82-50.32-10.81-102-30.74-150.14-1.23-3-2.57-5.88-3.93-8.73-4.24-8.85-8.76-16.77-13.12-24.3-8-13.77-16.92-24-25-35.21a.92.92,0,0,0-1.09-.7c-6.16-3-11.8-15.88-18.48-20.2"/><path class="cls-16" d="M241.82,433.53c20.1-11.28,22.28-18.89,45.62-38,5.54-4.55,11.19-10.25,17.44-16,10.91-10.08,21.11-21.72,28-34.14,10.85-19.59,23.35-38.94,32.39-62.9.19-.51.39-1,.56-1.54A310.26,310.26,0,0,0,381,210.8c4.82-49.71-7-101.38-24.48-150.3-1.07-3-2.26-5.93-3.47-8.8-3.77-8.92-7.82-17-11.68-24.63C334.32,13,326.2,2.68,319.14-8.85c-.08-.74-.9-.81-1-.66-5.83-2.77-11-16.6-17.4-20.81"/><path class="cls-17" d="M230.31,428.56c21.32-11.44,22.11-18.63,46.28-37.28,5.66-4.37,11.47-9.9,17.91-15.42,11.37-9.75,22.1-20.95,29.23-32.8,11.49-19.1,24.94-37.49,35-60.89.22-.5.43-1,.63-1.5a304,304,0,0,0,18-69c6.79-49.09-3.14-100.8-18.22-150.45-.92-3-1.95-6-3-8.89-3.28-9-6.87-17.13-10.23-24.94C339.78,13.05,332.5,2.54,326.45-9.27c0-.77-.84-.83-.86-.62-5.49-2.58-10.29-17.31-16.32-21.42"/><path class="cls-18" d="M218.79,423.58c22.54-11.59,22-18.37,47-36.56,5.76-4.18,11.75-9.54,18.38-14.81C296,362.8,307.22,352,314.59,340.74c12.15-18.6,26.52-36,37.64-58.87.23-.48.47-1,.69-1.46A297.93,297.93,0,0,0,373.8,212.5c8.74-48.47.68-100.2-12-150.61-.76-3-1.65-6-2.56-9-2.81-9-5.92-17.3-8.79-25.26-5.24-14.59-11.68-25.27-16.72-37.35.05-.81-.79-.84-.75-.57-5.15-2.4-9.54-18-15.25-22"/><path class="cls-19" d="M207.28,418.61C231,406.86,229,400.48,254.91,382.77c5.86-4,12-9.18,18.85-14.21,12.28-9.07,24.09-19.41,31.69-30.13,12.83-18.11,28.1-34.59,40.26-56.86.26-.46.52-.93.75-1.41a291.17,291.17,0,0,0,23.75-66.81c10.66-47.86,4.46-99.59-5.71-150.76-.61-3.06-1.34-6.08-2.11-9.06-2.32-9.08-5-17.47-7.34-25.58-4.34-14.86-9.93-25.71-14-38.07.11-.84-.74-.84-.63-.52-4.82-2.21-8.79-18.75-14.18-22.65"/><path class="cls-20" d="M195.77,413.64c25-11.91,21.56-17.9,48.29-35.12,6-3.84,12.33-8.83,19.32-13.61,12.75-8.73,25.11-18.63,32.93-28.79C309.85,318.5,326,303,339.2,281.28c.27-.46.55-.91.81-1.38a284.64,284.64,0,0,0,26.6-65.7c12.56-47.24,8.24-99,.55-150.91-.46-3.09-1-6.13-1.65-9.15-1.85-9.13-4-17.64-5.9-25.9-3.43-15.13-8.19-26.14-11.2-38.78.18-.88-.69-.85-.52-.48-4.49-2-8-19.46-13.1-23.26"/><path class="cls-21" d="M184.26,408.66c26.2-12.06,21.36-17.67,49-34.39,6.06-3.67,12.61-8.47,19.79-13,13.22-8.38,26.14-17.84,34.15-27.45,14.27-17.12,31.27-31.7,45.52-52.83.3-.44.6-.89.88-1.34A278.26,278.26,0,0,0,363,215c14.45-46.62,12-98.34,6.81-151.06-.31-3.1-.73-6.18-1.19-9.22-1.39-9.19-3.08-17.82-4.46-26.23C361.64,13.13,357.73,2,355.73-11c.24-.92-.64-.86-.41-.44-4.15-1.82-7.29-20.18-12-23.87"/><path class="cls-22" d="M172.75,403.69c27.42-12.22,21.15-17.47,49.63-33.67,6.16-3.51,12.9-8.11,20.26-12.41,13.68-8,27.19-17.05,35.38-26.12,15-16.6,32.84-30.25,48.15-50.81.32-.43.64-.86.94-1.3a272.51,272.51,0,0,0,32.3-63.49c16.31-46,15.72-97.72,13.07-151.21-.16-3.12-.43-6.23-.74-9.31-.91-9.24-2.13-18-3-26.55-1.62-15.67-4.7-27-5.69-40.2.31-1-.58-.87-.29-.4-3.81-1.63-6.53-20.89-10.95-24.49"/><path class="cls-23" d="M161.23,398.72c28.65-12.38,20.94-17.27,50.3-33,6.26-3.34,13.2-7.73,20.73-11.81,14.16-7.65,28.25-16.24,36.62-24.77,15.77-16.07,34.41-28.82,50.77-48.8.34-.41.68-.83,1-1.26a266.06,266.06,0,0,0,35.15-62.38c18.15-45.42,19.43-97.1,19.33-151.37,0-3.14-.13-6.27-.28-9.39-.45-9.29-1.19-18.16-1.58-26.87-.71-15.94-2.94-27.45-2.92-40.91.37-1-.53-.88-.18-.36-3.48-1.43-5.78-21.61-9.87-25.1"/><path class="cls-24" d="M149.72,393.74c29.87-12.53,20.72-17.09,51-32.23,6.35-3.18,13.49-7.36,21.2-11.21,14.63-7.29,29.32-15.43,37.85-23.43,16.55-15.52,36-27.38,53.39-46.78.37-.41.73-.81,1.08-1.23a260.77,260.77,0,0,0,38-61.27c20-44.84,23.12-96.48,25.59-151.52.14-3.16.17-6.33.18-9.48,0-9.34-.24-18.34-.14-27.19.2-16.21-3.36-28.23-.16-41.62.26-1.09-.48-.89-.07-.32-3.14-1.24-5-22.32-8.8-25.71"/><path class="cls-25" d="M138.21,388.77c31.08-12.69,20.5-16.92,51.64-31.51,6.45-3,13.78-7,21.67-10.61,15.11-6.91,30.39-14.61,39.08-22.09,17.35-14.95,37.54-25.95,56-44.77.38-.39.77-.78,1.13-1.19a255.9,255.9,0,0,0,40.87-60.16c21.77-44.27,26.78-95.87,31.84-151.68.29-3.18.47-6.37.63-9.56.48-9.39.71-18.51,1.31-27.51C383.5,13.21,381,.93,385-12.64c.33-1.13-.43-.9.05-.28-2.81-1.05-4.29-23-7.73-26.32"/><path class="cls-26" d="M126.7,383.8C159,371,147,367,179,353c6.55-2.87,14.08-6.62,22.14-10,15.59-6.54,31.48-13.77,40.32-20.76,18.16-14.35,39.11-24.51,58.64-42.75q.61-.56,1.2-1.14A251.59,251.59,0,0,0,345,219.29c23.56-43.72,30.43-95.27,38.1-151.83.43-3.2.77-6.42,1.09-9.64.93-9.45,1.65-18.69,2.75-27.84,2-16.74.52-29.27,5.36-43,.41-1.17-.38-.91.16-.24C390-14.16,389-37,385.83-40.23"/><path class="cls-27" d="M115.19,378.82c33.52-13,20-16.62,53-30.06,6.64-2.72,14.37-6.25,22.61-9.41,16.06-6.16,32.56-12.93,41.54-19.42,19-13.73,40.68-23.08,61.28-40.74.42-.36.85-.72,1.26-1.1a247.9,247.9,0,0,0,46.57-57.95c25.35-43.18,34.07-94.69,44.36-152,.57-3.23,1.07-6.48,1.55-9.73,1.38-9.5,2.6-18.86,4.19-28.16,2.91-17,2.46-29.74,8.11-43.76.49-1.2-.32-.91.28-.18-2.14-.67-2.78-24.47-5.57-27.55"/><path class="cls-28" d="M103.67,373.85c34.75-13.16,19.82-16.49,53.65-29.35,6.73-2.56,14.66-5.86,23.08-8.8,16.53-5.77,33.65-12.07,42.77-18.08C243,304.54,265.41,296,287.07,278.9c.45-.35.89-.7,1.33-1.07A244.41,244.41,0,0,0,337.82,221c27.13-42.64,37.69-94.1,50.62-152.13.72-3.25,1.37-6.52,2-9.81,1.84-9.56,3.55-19,5.64-28.48C399.9,13.28,400.47.37,407-13.91c.57-1.24-.27-.92.39-.14-1.8-.48-2-25.19-4.5-28.17"/><path class="cls-29" d="M92.16,368.88c36-13.32,19.59-16.38,54.32-28.63,6.83-2.41,15-5.48,23.54-8.2,17-5.38,34.75-11.2,44-16.74,20.69-12.39,43.81-20.24,66.53-36.71l1.39-1a241.61,241.61,0,0,0,52.27-55.74c28.9-42.13,41.3-93.54,56.87-152.28.87-3.27,1.68-6.58,2.47-9.9,2.29-9.61,4.5-19.2,7.08-28.79C405.36,13.3,407,.23,414.27-14.33c.64-1.28-.22-.93.5-.1-1.46-.29-1.27-25.9-3.42-28.78"/><path class="cls-30" d="M80.65,363.91c37.19-13.48,19.36-16.28,55-27.91,6.93-2.26,15.24-5.1,24-7.6,17.49-5,35.84-10.32,45.24-15.41,21.54-11.66,45.37-18.81,69.15-34.69.49-.32,1-.65,1.45-1a239.46,239.46,0,0,0,55.14-54.63c30.65-41.64,44.9-93,63.12-152.44,1-3.29,2-6.62,2.93-10,2.74-9.67,5.44-19.38,8.51-29.11,5.64-17.83,8.25-31,16.4-45.9.72-1.31-.18-.94.61-.06-1.12-.1-.52-26.62-2.34-29.39"/><path class="cls-31" d="M69.14,358.93c38.41-13.63,19.14-16.18,55.65-27.18,7-2.12,15.53-4.72,24.49-7,17.95-4.58,36.93-9.42,46.47-14.07,22.4-10.91,46.93-17.39,71.77-32.68.51-.31,1-.62,1.52-.95,19-12.41,38.59-28.89,58-53.52,32.42-41.16,48.49-92.46,69.38-152.59,1.16-3.32,2.27-6.68,3.38-10.06,3.2-9.74,6.39-19.56,10-29.44,6.54-18.1,10.17-31.44,19.16-46.61.79-1.34-.13-1,.72,0-.79.1.23-27.33-1.27-30"/><path class="cls-32" d="M57.62,354c39.63-13.78,18.92-16.1,56.33-26.46,7.12-2,15.82-4.33,25-6.4,18.43-4.17,38-8.52,47.7-12.73,23.26-10.12,48.51-16,74.41-30.66.53-.3,1.06-.6,1.58-.92,19.8-11.85,40.26-27.91,60.84-52.41,34.18-40.7,52.08-91.94,75.64-152.75,1.3-3.34,2.57-6.73,3.84-10.14,3.65-9.8,7.34-19.73,11.4-29.76,7.45-18.37,12.08-31.82,21.91-47.32.87-1.38-.07-1,.85,0-.46.29,1-28-.2-30.61"/><path class="cls-33" d="M46.11,349c40.85-13.94,18.7-16,57-25.75,7.22-1.83,16.11-3.94,25.43-5.79,18.9-3.77,39.1-7.6,48.93-11.39,24.1-9.3,50.07-14.57,77-28.65l1.65-.88c20.57-11.29,41.93-26.93,63.69-51.3,35.95-40.25,55.67-91.43,81.9-152.9,1.44-3.37,2.86-6.79,4.29-10.23,4.1-9.86,8.29-19.9,12.85-30.08,8.35-18.64,14-32.19,24.67-48,.95-1.41,0-1,1,.06-.12.48,1.73-28.76.88-31.22"/><path class="cls-34" d="M34.6,344c42.07-14.09,18.48-16,57.66-25,7.32-1.69,16.4-3.55,25.9-5.19,19.36-3.36,40.16-6.67,50.16-10.06C193.26,295.3,220,290.59,248,277.11l1.71-.83c21.34-10.74,43.6-26,66.54-50.2,37.71-39.82,59.26-90.93,88.16-153.06q2.37-5.08,4.75-10.31c4.55-9.93,9.23-20.07,14.29-30.4C432.69,13.4,439.3-.24,450.86-16.44c1-1.43,0-1,1.07.11.22.68,2.48-29.47,2-31.83"/><path class="cls-35" d="M23.09,339c43.29-14.25,18.26-15.93,58.33-24.3,7.42-1.55,16.68-3.16,26.36-4.59,19.83-2.94,41.23-5.74,51.4-8.72,25.76-7.56,53.18-11.8,82.28-24.62l1.78-.79c22.11-10.18,45.27-25,69.4-49.1,39.47-39.39,62.83-90.44,94.41-153.2q2.58-5.14,5.21-10.4c5-10,10.18-20.24,15.73-30.72,10.16-19.18,17.76-32.9,30.19-49.46,1.09-1.46.2-1.09,1.18.16.64.8,3.24-30.2,3-32.46"/><path class="cls-36" d="M11.58,334.07c44.51-14.41,18-15.89,59-23.58,7.52-1.41,17-2.77,26.84-4,20.29-2.51,42.28-4.78,52.63-7.37,26.57-6.65,54.76-10.37,84.91-22.6l1.83-.76c22.9-9.63,47-24.07,72.26-48,41.24-39,66.42-90,100.67-153.35l5.66-10.49c5.44-10.07,11.13-20.41,17.18-31,11.07-19.45,19.64-33.24,32.94-50.17,1.18-1.49.18-1,1.3.2.93,1,4-30.91,4.11-33.07"/><path class="cls-37" d="M.06,329.09c45.74-14.56,17.86-15.85,59.67-22.85,23.35-3.91,65.53-6.17,81.17-9.43,48.64-10.16,102.37-12.43,164.54-68.19C357.47,182,386,117.26,437.11,33.18c12-19.72,21.51-33.58,35.7-50.88,1.25-1.52.19-1,1.41.24s4.74-31.62,5.19-33.68"/></g><path class="cls-38" d="M47.47,17.6l-6.79,0v.05a5.1,5.1,0,0,0,4.56,3h0l29.05-.08.68-3Z"/><path class="cls-39" d="M47.47,17.6l-6.79,0v.05a5.1,5.1,0,0,0,4.56,3h0l29.05-.08.68-3Z"/><path class="cls-38" d="M54.31,20.67H47.82v0a5.08,5.08,0,0,0,4.56,3H80l1.29-3.05Z"/><path class="cls-39" d="M54.31,20.67H47.82v0a5.08,5.08,0,0,0,4.56,3H80l1.29-3.05Z"/><path class="cls-38" d="M61.75,23.79h-6.5v0a5.09,5.09,0,0,0,4.56,3H87.44l1.29-3.05Z"/><path class="cls-39" d="M61.75,23.79h-6.5v0a5.09,5.09,0,0,0,4.56,3H87.44l1.29-3.05Z"/><path class="cls-38" d="M89.37,29.84l0-2.81-14.62-.14a.05.05,0,0,1,0,0l-9.15,0v.05a5.08,5.08,0,0,0,4.56,3H89.37Z"/><path class="cls-39" d="M89.37,29.84l0-2.81-14.62-.14a.05.05,0,0,1,0,0l-9.15,0v.05a5.08,5.08,0,0,0,4.56,3H89.37Z"/><path class="cls-38" d="M121.06,17.73l-27.94-.06.75,3,29.05,0h0a5.08,5.08,0,0,0,4.56-3v-.05Z"/><path class="cls-39" d="M121.06,17.73l-27.94-.06.75,3,29.05,0h0a5.08,5.08,0,0,0,4.56-3v-.05Z"/><path class="cls-38" d="M113.87,20.81l-27-.06,1.29,3.05h27.62a5.09,5.09,0,0,0,4.56-3v-.05Z"/><path class="cls-39" d="M113.87,20.81l-27-.06,1.29,3.05h27.62a5.09,5.09,0,0,0,4.56-3v-.05Z"/><path class="cls-38" d="M106.44,23.92l-27-.05,1.29,3.05h27.62a5.09,5.09,0,0,0,4.56-3v0Z"/><path class="cls-39" d="M106.44,23.92l-27-.05,1.29,3.05h27.62a5.09,5.09,0,0,0,4.56-3v0Z"/><path class="cls-38" d="M93.45,27a.05.05,0,0,1,0,0l-14.62.14,0,2.81H98a5.08,5.08,0,0,0,4.56-3V27Z"/><path class="cls-39" d="M93.45,27a.05.05,0,0,1,0,0l-14.62.14,0,2.81H98a5.08,5.08,0,0,0,4.56-3V27Z"/><g class="cls-40"><g class="cls-41"><path class="cls-42" d="M71.85,25c0-7.17,5.48-13,12.24-13s12.24,5.82,12.24,13S90.85,38,84.09,38,71.85,32.21,71.85,25"/><ellipse class="cls-43" cx="84.09" cy="25.03" rx="12.24" ry="12.99"/></g></g><path class="cls-38" d="M74.31,25c0-5.73,4.38-10.38,9.78-10.38S93.87,19.3,93.87,25s-4.38,10.38-9.78,10.38S74.31,30.76,74.31,25"/><ellipse class="cls-43" cx="84.09" cy="25.03" rx="9.78" ry="10.38"/><path d="M80.08,29.23V20.75a.83.83,0,0,1,.8-.85h6.24a.83.83,0,0,1,.8.85v8.48a.82.82,0,0,1-.8.84H80.88a.82.82,0,0,1-.8-.84"/><path d="M79.65,28.44v-7a.59.59,0,0,1,.57-.6h7.56a.59.59,0,0,1,.57.6v7a.59.59,0,0,1-.57.6H80.22a.59.59,0,0,1-.57-.6"/><path class="cls-38" d="M80.08,25.62V22.77a.71.71,0,0,1,.69-.73h6.46a.71.71,0,0,1,.69.73v2.85a.72.72,0,0,1-.69.74H80.77a.72.72,0,0,1-.69-.74"/><path class="cls-44" d="M80.6,28.4h0A.37.37,0,0,1,81,28h.45a.38.38,0,0,1,.37.39h0a.39.39,0,0,1-.37.4H81a.38.38,0,0,1-.37-.4"/><path class="cls-43" d="M80.6,28.4h0A.37.37,0,0,1,81,28h.45a.38.38,0,0,1,.37.39h0a.39.39,0,0,1-.37.4H81A.38.38,0,0,1,80.6,28.4Z"/><path class="cls-44" d="M86.23,28.44v-.08a.35.35,0,0,1,.34-.35h.56a.3.3,0,0,1,.29.31v.17a.3.3,0,0,1-.29.31h-.56a.35.35,0,0,1-.34-.36"/><path class="cls-43" d="M86.23,28.44v-.08a.35.35,0,0,1,.34-.35h.56a.3.3,0,0,1,.29.31v.17a.3.3,0,0,1-.29.31h-.56A.35.35,0,0,1,86.23,28.44Z"/><path class="cls-42" d="M81.1,20.69h0a.3.3,0,0,1,.3-.31h5.2a.3.3,0,0,1,.3.31h0a.3.3,0,0,1-.3.31H81.4a.3.3,0,0,1-.3-.31"/><path d="M88.35,23.6v-.83a.28.28,0,0,1,.28-.3h0a.29.29,0,0,1,.28.3v.83a.29.29,0,0,1-.28.29h0a.28.28,0,0,1-.28-.29"/><path d="M79.1,23.6v-.83a.28.28,0,0,1,.27-.3h0a.28.28,0,0,1,.27.3v.83a.28.28,0,0,1-.27.29h0a.28.28,0,0,1-.27-.29"/><path d="M80.67,30.39v-.32h1v.32a.48.48,0,0,1-.47.49h-.1a.48.48,0,0,1-.47-.49"/><path d="M86.38,30.39v-.32h1v.32a.48.48,0,0,1-.47.49h-.1a.48.48,0,0,1-.47-.49"/><path d="M83.48,19.89,86.3,15a.17.17,0,0,1,.25-.07h0a.2.2,0,0,1,.06.27L83.79,20.1a.17.17,0,0,1-.25.06h0a.19.19,0,0,1-.06-.27"/><path d="M84.48,19.83l2.62-4.54a.17.17,0,0,1,.25-.06h0a.22.22,0,0,1,.06.27L84.79,20a.18.18,0,0,1-.25.07h0a.19.19,0,0,1-.06-.27"/><polygon class="cls-44" points="103.33 20.32 99.83 26.06 103.31 23.32 103.81 24.24 107.4 18.88 103.74 21.5 103.33 20.32"/><polygon class="cls-39" points="103.33 20.32 99.83 26.06 103.31 23.32 103.81 24.24 107.4 18.88 103.74 21.5 103.33 20.32"/><polygon class="cls-44" points="64.85 20.32 68.34 26.06 64.86 23.32 64.37 24.24 60.78 18.88 64.44 21.5 64.85 20.32"/><polygon class="cls-43" points="64.85 20.32 68.34 26.06 64.86 23.32 64.37 24.24 60.78 18.88 64.44 21.5 64.85 20.32"/><path class="cls-38" d="M149.71,16.59h-3.42v9.33h-1.4V16.59h-3.42V15.46h8.24Z"/><path class="cls-38" d="M157.77,22.12a4.6,4.6,0,0,1-.83,2.86,2.67,2.67,0,0,1-2.24,1.08,3,3,0,0,1-2.27-.89v3.74h-1.35V18.15h1.24l.06.86a2.82,2.82,0,0,1,2.3-1,2.72,2.72,0,0,1,2.26,1.06,4.65,4.65,0,0,1,.83,2.94ZM156.41,22a3.4,3.4,0,0,0-.57-2.08,1.84,1.84,0,0,0-1.56-.76,2,2,0,0,0-1.85,1.07v3.72A2,2,0,0,0,154.29,25a1.83,1.83,0,0,0,1.55-.76A3.73,3.73,0,0,0,156.41,22Z"/><path class="cls-38" d="M159.13,22a4.42,4.42,0,0,1,.46-2.05,3.35,3.35,0,0,1,1.27-1.41,3.55,3.55,0,0,1,1.86-.5,3.38,3.38,0,0,1,2.62,1.1,4.17,4.17,0,0,1,1,2.93v.09a4.66,4.66,0,0,1-.44,2,3.32,3.32,0,0,1-1.27,1.4,3.51,3.51,0,0,1-1.89.5,3.35,3.35,0,0,1-2.61-1.1,4.13,4.13,0,0,1-1-2.91Zm1.36.16a3.31,3.31,0,0,0,.61,2.07,2.09,2.09,0,0,0,3.28,0A3.6,3.6,0,0,0,165,22a3.29,3.29,0,0,0-.62-2.07,2,2,0,0,0-1.65-.8,1.94,1.94,0,0,0-1.61.79A3.56,3.56,0,0,0,160.49,22.12Z"/><path class="cls-38" d="M174.53,18.15v7.77h-1.36V19.24h-2.69l-.16,2.91a6.32,6.32,0,0,1-.69,2.87,2,2,0,0,1-1.75.9h-.54V24.75l.38,0a1.13,1.13,0,0,0,.95-.75,8.44,8.44,0,0,0,.37-2.5l.14-3.32Z"/><path class="cls-38" d="M183.2,18.15v7.77h-1.36V19.24h-2.7L179,22.15A6.21,6.21,0,0,1,178.3,25a2,2,0,0,1-1.75.9H176V24.75l.39,0a1.13,1.13,0,0,0,1-.75,8.2,8.2,0,0,0,.36-2.5l.15-3.32Z"/><path class="cls-38" d="M188.66,26.06A3.47,3.47,0,0,1,186,25a3.8,3.8,0,0,1-1-2.77V22a4.56,4.56,0,0,1,.45-2.06,3.42,3.42,0,0,1,1.26-1.42,3.14,3.14,0,0,1,1.75-.52,3,3,0,0,1,2.4,1,4.28,4.28,0,0,1,.86,2.86v.55h-5.37a2.72,2.72,0,0,0,.69,1.86,2.18,2.18,0,0,0,1.66.71,2.42,2.42,0,0,0,1.22-.29,3,3,0,0,0,.87-.76l.83.63A3.36,3.36,0,0,1,188.66,26.06Zm-.17-7a1.82,1.82,0,0,0-1.37.59,2.85,2.85,0,0,0-.69,1.64h4v-.1a2.53,2.53,0,0,0-.56-1.57A1.72,1.72,0,0,0,188.49,19.09Z"/><path class="cls-38" d="M198.44,18.15h1.35v7.77h-1.35V20.25l-3.65,5.67h-1.36V18.15h1.36v5.67Zm.37-2.84a1.78,1.78,0,0,1-.61,1.4,2.64,2.64,0,0,1-3.17,0,1.78,1.78,0,0,1-.61-1.4h1.11a1,1,0,0,0,.28.78,1.07,1.07,0,0,0,.81.29,1.13,1.13,0,0,0,.8-.28,1.07,1.07,0,0,0,.29-.79Z"/><path class="cls-38" d="M205.44,18.59a3.08,3.08,0,0,1,2.39,1,3.69,3.69,0,0,1,.9,2.58v.13a4.31,4.31,0,0,1-.43,2,3.18,3.18,0,0,1-1.24,1.35,3.67,3.67,0,0,1-1.86.47,3.36,3.36,0,0,1-2.57-1,4,4,0,0,1-1-2.81v-.64a7.12,7.12,0,0,1,.93-3.9,3.9,3.9,0,0,1,2.73-1.76,3.55,3.55,0,0,0,1.39-.44.83.83,0,0,0,.36-.71h1.11a2.16,2.16,0,0,1-.41,1.4,2.32,2.32,0,0,1-1.33.71l-1,.23a3.39,3.39,0,0,0-1.81.94,3.36,3.36,0,0,0-.78,1.77A3.36,3.36,0,0,1,205.44,18.59Zm-.26,1.09a2,2,0,0,0-1.58.66,2.65,2.65,0,0,0-.58,1.82v.12a3.09,3.09,0,0,0,.58,2,2,2,0,0,0,1.6.73,1.93,1.93,0,0,0,1.59-.74,3.37,3.37,0,0,0,.59-2.14,2.56,2.56,0,0,0-.59-1.76A2,2,0,0,0,205.18,19.68Z"/><path class="cls-38" d="M212.84,24l1.85-5.82h1.45l-3.19,9a2.5,2.5,0,0,1-2.35,1.94l-.25,0-.51-.1V27.87l.37,0a1.82,1.82,0,0,0,1.07-.28,2,2,0,0,0,.64-1l.3-.79-2.83-7.68h1.48Z"/><path class="cls-38" d="M220.52,25a2,2,0,0,0,1.27-.43,1.53,1.53,0,0,0,.6-1.08h1.28a2.31,2.31,0,0,1-.47,1.27,3,3,0,0,1-1.15,1,3.38,3.38,0,0,1-1.53.36A3.29,3.29,0,0,1,218,25a4.14,4.14,0,0,1-.95-2.9v-.22a4.65,4.65,0,0,1,.42-2,3.19,3.19,0,0,1,1.22-1.37,3.49,3.49,0,0,1,1.88-.49,3.23,3.23,0,0,1,2.21.78,2.79,2.79,0,0,1,.94,2h-1.28a1.82,1.82,0,0,0-.58-1.24,1.85,1.85,0,0,0-1.29-.49,1.93,1.93,0,0,0-1.6.73,3.38,3.38,0,0,0-.57,2.11v.25a3.33,3.33,0,0,0,.56,2.07A1.92,1.92,0,0,0,220.52,25Z"/><path class="cls-38" d="M241.44,19.24h-3.65v6.68h-1.36V18.15h5Z"/><path class="cls-38" d="M242.64,25.22a.85.85,0,0,1,.21-.57,1,1,0,0,1,1.26,0,.84.84,0,0,1,0,1.13,1,1,0,0,1-1.26,0A.84.84,0,0,1,242.64,25.22Z"/><path class="cls-38" d="M253.49,15.46h1.41V25.92h-1.41V17.86l-5.25,8.06h-1.41V15.46h1.41v8.06Z"/><path class="cls-38" d="M257.37,25.92V18.15h3.09a4.54,4.54,0,0,1,2.43.54,1.77,1.77,0,0,1,.84,1.59,1.61,1.61,0,0,1-.32,1,2.11,2.11,0,0,1-1,.67,2.14,2.14,0,0,1,1.15.64,1.67,1.67,0,0,1,.44,1.15,1.89,1.89,0,0,1-.8,1.64,3.89,3.89,0,0,1-2.27.57Zm1.36-4.48h1.75c1.26,0,1.9-.36,1.9-1.09s-.6-1.1-1.8-1.13h-1.85Zm0,1.07v2.34H261a2.12,2.12,0,0,0,1.27-.31,1,1,0,0,0,.42-.87c0-.78-.58-1.16-1.74-1.16Z"/><path class="cls-38" d="M270.7,25.92a2.73,2.73,0,0,1-.19-.82,3,3,0,0,1-2.25,1,2.79,2.79,0,0,1-1.92-.65,2.08,2.08,0,0,1-.75-1.65,2.17,2.17,0,0,1,.94-1.88,4.44,4.44,0,0,1,2.64-.67h1.32V20.6a1.47,1.47,0,0,0-.42-1.11,1.73,1.73,0,0,0-1.26-.42,2,2,0,0,0-1.21.36,1,1,0,0,0-.49.87h-1.36a1.8,1.8,0,0,1,.42-1.12,2.87,2.87,0,0,1,1.14-.86,3.91,3.91,0,0,1,1.58-.32,3.22,3.22,0,0,1,2.15.67,2.37,2.37,0,0,1,.8,1.85V24.1a4.36,4.36,0,0,0,.28,1.7v.12Zm-2.24-1a2.36,2.36,0,0,0,1.2-.33,1.92,1.92,0,0,0,.83-.84V22.15h-1.06c-1.66,0-2.49.47-2.49,1.43a1.19,1.19,0,0,0,.42,1A1.66,1.66,0,0,0,268.46,24.91Z"/><path class="cls-38" d="M280.44,25.92h-1.36V22.6h-3.64v3.32h-1.36V18.15h1.36v3.36h3.64V18.15h1.36Z"/><path class="cls-38" d="M282.25,22a4.55,4.55,0,0,1,.46-2.05A3.42,3.42,0,0,1,284,18.5a3.56,3.56,0,0,1,1.87-.5,3.35,3.35,0,0,1,2.61,1.1,4.17,4.17,0,0,1,1,2.93v.09a4.53,4.53,0,0,1-.44,2,3.25,3.25,0,0,1-1.27,1.4,3.49,3.49,0,0,1-1.89.5,3.35,3.35,0,0,1-2.61-1.1,4.18,4.18,0,0,1-1-2.91Zm1.36.16a3.25,3.25,0,0,0,.62,2.07,2.08,2.08,0,0,0,3.27,0,3.53,3.53,0,0,0,.61-2.22,3.29,3.29,0,0,0-.62-2.07,2,2,0,0,0-1.64-.8,1.94,1.94,0,0,0-1.62.79A3.56,3.56,0,0,0,283.61,22.12Z"/><path class="cls-38" d="M291.29,25.92V18.15h3.09a4.5,4.5,0,0,1,2.42.54,1.76,1.76,0,0,1,.85,1.59,1.56,1.56,0,0,1-.33,1,2.13,2.13,0,0,1-1,.67,2.18,2.18,0,0,1,1.15.64,1.66,1.66,0,0,1,.43,1.15,1.87,1.87,0,0,1-.8,1.64,3.85,3.85,0,0,1-2.26.57Zm1.35-4.48h1.75c1.27,0,1.9-.36,1.9-1.09s-.6-1.1-1.8-1.13h-1.85Zm0,1.07v2.34h2.24a2.1,2.1,0,0,0,1.27-.31,1,1,0,0,0,.42-.87c0-.78-.58-1.16-1.74-1.16Z"/><path class="cls-38" d="M299.37,22a4.42,4.42,0,0,1,.46-2.05,3.29,3.29,0,0,1,1.27-1.41A3.5,3.5,0,0,1,303,18a3.39,3.39,0,0,1,2.62,1.1,4.21,4.21,0,0,1,1,2.93v.09a4.66,4.66,0,0,1-.44,2,3.32,3.32,0,0,1-1.27,1.4,3.51,3.51,0,0,1-1.89.5,3.32,3.32,0,0,1-2.61-1.1,4.13,4.13,0,0,1-1-2.91Zm1.36.16a3.25,3.25,0,0,0,.61,2.07,2.09,2.09,0,0,0,3.28,0,3.6,3.6,0,0,0,.6-2.22,3.29,3.29,0,0,0-.61-2.07,2,2,0,0,0-1.65-.8,1.94,1.94,0,0,0-1.62.79A3.56,3.56,0,0,0,300.73,22.12Z"/><path class="cls-38" d="M321.44,15.46,324.92,24l3.49-8.53h1.82V25.92h-1.41V21.85l.13-4.4-3.49,8.47h-1.08l-3.49-8.45.14,4.38v4.07h-1.41V15.46Z"/><path class="cls-38" d="M336.37,21.53l2.45-6.07h1.64l-3.77,8.71a4.81,4.81,0,0,1-.72,1.19,2.3,2.3,0,0,1-.77.53,2.93,2.93,0,0,1-1.11.18,2.78,2.78,0,0,1-.74-.06l0-1.1.66,0a1.22,1.22,0,0,0,1.15-.72l.18-.38.28-.64L332,15.46h1.57Z"/><path class="cls-38" d="M350.27,25.92h-1.41V16.59H343.6v9.33h-1.4V15.46h8.07Z"/><path class="cls-38" d="M357.35,22l1.89,2.85h-1l-2.16-2.78v-.14l2.16-2.79h1Zm2.41,0,1.89,2.85h-1l-2.16-2.78v-.14l2.16-2.79h1Z"/><path class="cls-38" d="M370.29,15.46h1.41V25.92h-1.41V17.86L365,25.92h-1.41V15.46H365v8.06Z"/><path class="cls-38" d="M382.4,25.92H381V16.59h-5.26v9.33h-1.41V15.46h8.08Z"/><path class="cls-38" d="M392.32,16.59h-3.43v9.33h-1.4V16.59h-3.42V15.46h8.25Z"/><path class="cls-38" d="M394.45,19.1l2.15,2.8V22l-2.15,2.8h-1L395.3,22l-1.89-2.87Zm2.55,0,2.16,2.8V22L397,24.83h-1L397.85,22,396,19.1Z"/></svg>