<svg id="Layer_1" data-name="Layer 1" xmlns="http://www.w3.org/2000/svg" xmlns:xlink="http://www.w3.org/1999/xlink" viewBox="0 0 444 280"><defs><style>.cls-1,.cls-10,.cls-11,.cls-12,.cls-13,.cls-14,.cls-15,.cls-16,.cls-17,.cls-18,.cls-19,.cls-20,.cls-21,.cls-22,.cls-23,.cls-24,.cls-25,.cls-26,.cls-27,.cls-28,.cls-29,.cls-30,.cls-31,.cls-32,.cls-33,.cls-34,.cls-35,.cls-36,.cls-37,.cls-40,.cls-45,.cls-6,.cls-7,.cls-8,.cls-9{fill:none;}.cls-2{clip-path:url(#clip-path);}.cls-3{fill:url(#linear-gradient);}.cls-4{fill:url(#linear-gradient-2);}.cls-5{fill:url(#linear-gradient-3);}.cls-6{stroke:#bd855c;}.cls-10,.cls-11,.cls-12,.cls-13,.cls-14,.cls-15,.cls-16,.cls-17,.cls-18,.cls-19,.cls-20,.cls-21,.cls-22,.cls-23,.cls-24,.cls-25,.cls-26,.cls-27,.cls-28,.cls-29,.cls-30,.cls-31,.cls-32,.cls-33,.cls-34,.cls-35,.cls-36,.cls-37,.cls-45,.cls-6,.cls-7,.cls-8,.cls-9{stroke-miterlimit:10;}.cls-10,.cls-11,.cls-12,.cls-13,.cls-14,.cls-15,.cls-16,.cls-17,.cls-18,.cls-19,.cls-20,.cls-21,.cls-22,.cls-23,.cls-24,.cls-25,.cls-26,.cls-27,.cls-28,.cls-29,.cls-30,.cls-31,.cls-32,.cls-33,.cls-34,.cls-35,.cls-36,.cls-37,.cls-6,.cls-7,.cls-8,.cls-9{stroke-width:1.28px;}.cls-7{stroke:#bf885f;}.cls-8{stroke:#c18a62;}.cls-9{stroke:#c38d65;}.cls-10{stroke:#c69068;}.cls-11{stroke:#c8926b;}.cls-12{stroke:#ca956e;}.cls-13{stroke:#cc9871;}.cls-14{stroke:#ce9a74;}.cls-15{stroke:#d09d77;}.cls-16{stroke:#d2a07a;}.cls-17{stroke:#d4a27d;}.cls-18{stroke:#d7a580;}.cls-19{stroke:#d9a883;}.cls-20{stroke:#dbaa86;}.cls-21{stroke:#ddad89;}.cls-22{stroke:#dfb08b;}.cls-23{stroke:#e1b38e;}.cls-24{stroke:#e3b591;}.cls-25{stroke:#e5b894;}.cls-26{stroke:#e8bb97;}.cls-27{stroke:#eabd9a;}.cls-28{stroke:#ecc09d;}.cls-29{stroke:#eec3a0;}.cls-30{stroke:#f0c5a3;}.cls-31{stroke:#f2c8a6;}.cls-32{stroke:#f4cba9;}.cls-33{stroke:#f6cdac;}.cls-34{stroke:#f9d0af;}.cls-35{stroke:#fbd3b2;}.cls-36{stroke:#fdd5b5;}.cls-37{stroke:#ffd8b8;}.cls-38{fill:#6e4723;}.cls-39{fill:#fff;}.cls-40,.cls-45{stroke:#000;stroke-width:0.43px;}.cls-40{stroke-linecap:round;stroke-linejoin:round;}.cls-41{opacity:0.98;}.cls-42{clip-path:url(#clip-path-2);}.cls-43{clip-path:url(#clip-path-3);}.cls-44{fill:#f2c615;}.cls-46{fill:#f1c616;}</style><clipPath id="clip-path"><rect class="cls-1" width="444" height="280"/></clipPath><linearGradient id="linear-gradient" x1="41.88" y1="-7.24" x2="457.67" y2="332.65" gradientUnits="userSpaceOnUse"><stop offset="0" stop-color="#f5b37d"/><stop offset="0.21" stop-color="#f2b079"/><stop offset="0.4" stop-color="#eaa76e"/><stop offset="0.58" stop-color="#dc985b"/><stop offset="0.76" stop-color="#c98241"/><stop offset="0.93" stop-color="#b16720"/><stop offset="1" stop-color="#a65b11"/></linearGradient><linearGradient id="linear-gradient-2" x1="84.48" y1="-162.35" x2="508.46" y2="-168.96" gradientTransform="matrix(0, 0.73, -0.75, 0, 252.38, -141.93)" gradientUnits="userSpaceOnUse"><stop offset="0" stop-color="#fabb87"/><stop offset="0.44" stop-color="#eba66a"/><stop offset="1" stop-color="#d48640"/></linearGradient><linearGradient id="linear-gradient-3" x1="-34.51" y1="74.67" x2="284.67" y2="69.69" gradientTransform="matrix(0, 1.12, -0.78, 0, 306.39, 34.67)" gradientUnits="userSpaceOnUse"><stop offset="0" stop-color="#f7c092"/><stop offset="0.35" stop-color="#e6aa75"/><stop offset="1" stop-color="#c17936"/></linearGradient><clipPath id="clip-path-2"><rect class="cls-1" x="87.35" y="9.01" width="21.6" height="23.13"/></clipPath><clipPath id="clip-path-3"><rect class="cls-1" x="87.42" y="9.08" width="21.45" height="23"/></clipPath></defs><g class="cls-2"><rect class="cls-3" width="444" height="280"/><rect class="cls-4" x="279.22" y="-153.84" width="195.45" height="419.07" transform="matrix(0.75, -0.67, 0.67, 0.75, 58.83, 265.44)"/><rect class="cls-5" x="217.84" y="-90.34" width="63.67" height="488.67" transform="translate(-39.09 205.63) rotate(-41.8)"/><path class="cls-6" d="M359.19,485c10.05-12.38,32.28-28.49,51.68-67.24,15.95-31.86,23.83-79.39,21.81-130.58,0-.64-.05-1.28-.08-1.92-3.79-85.67-39.19-167.37-100.43-230q-4-4.08-8.05-8c-33.38-31.93-68-45.15-106.22-66"/><path class="cls-7" d="M347.67,480.05c9.12-9.88,23.25-21.46,39.61-44.5a212.67,212.67,0,0,0,13.21-21.42c7.1-13.05,12.85-28.73,16.92-46.2a353.14,353.14,0,0,0,8.75-81c0-.63,0-1.26,0-1.88a345.27,345.27,0,0,0-10.51-80.13C401.79,150.17,373.9,99,334.83,56c-2.5-2.76-5-5.44-7.59-8.06A229,229,0,0,0,302.57,26.2C287.35,14.6,271.46,6.11,255.49-3.31c-.64-.38-1.36-.72-2-1-8.9-4.4-17.8-10.16-27.08-15.29"/><path class="cls-8" d="M336.16,475.07c10.33-10,23.19-21.16,40.27-43.77a219.07,219.07,0,0,0,13.69-20.83,176.49,176.49,0,0,0,18.15-44.85,360.25,360.25,0,0,0,11.38-79c0-.61,0-1.23,0-1.84a342.48,342.48,0,0,0-7.65-79c-11.72-54.23-37.88-105.48-74.55-149-2.34-2.78-4.73-5.49-7.13-8.13a228.05,228.05,0,0,0-23.23-22.07C292.82,14.62,277.52,6.3,262.81-3.73a13.24,13.24,0,0,0-1.88-1c-8.63-4.08-17.06-10.87-26-15.9"/><path class="cls-9" d="M324.65,470.1c11.55-10.19,23.12-20.88,40.94-43.05a232.26,232.26,0,0,0,14.15-20.23,168.55,168.55,0,0,0,19.38-43.52,367.49,367.49,0,0,0,14-77c0-.61.08-1.21.11-1.81a339.72,339.72,0,0,0-4.8-77.91c-9.6-53.72-34-105-68.29-149.2-2.19-2.82-4.42-5.55-6.68-8.22a232.7,232.7,0,0,0-21.78-22.39c-13.4-12.14-28.14-20.32-41.56-30.93a8,8,0,0,0-1.77-1C260-8.85,252.06-16.7,243.43-21.62"/><path class="cls-10" d="M313.13,465.13c12.78-10.35,23-20.59,41.61-42.33,4.83-5.66,9.58-12.32,14.63-19.63A161.9,161.9,0,0,0,390,361c7.3-22.65,13.71-47.61,16.63-75l.18-1.77a337.35,337.35,0,0,0-2-76.8c-7.49-53.19-30.14-104.56-62-149.36q-3-4.26-6.22-8.3a242.07,242.07,0,0,0-20.34-22.71c-12.5-12.41-26.71-20.5-38.8-31.64a5.46,5.46,0,0,0-1.66-.92c-8.09-3.36-15.55-12.3-23.85-17.13"/><path class="cls-11" d="M301.62,460.15c14-10.5,22.95-20.29,42.28-41.61,5-5.46,9.84-12,15.09-19a156.47,156.47,0,0,0,21.85-40.84c7.85-22.12,15.31-46.17,19.25-73,.09-.57.17-1.15.24-1.73a333.52,333.52,0,0,0,.91-75.69C395.85,155.65,375,104.22,345.47,58.78c-1.87-2.87-3.81-5.66-5.76-8.39a251.52,251.52,0,0,0-18.9-23c-11.59-12.69-25.3-20.75-36-32.37a3.84,3.84,0,0,0-1.54-.86c-7.86-2.93-14.8-13-22.78-17.75"/><path class="cls-12" d="M290.1,455.18c15.22-10.66,22.84-20,42.95-40.89,5.09-5.28,10.11-11.63,15.57-18.42a151.59,151.59,0,0,0,23.07-39.5c8.43-21.6,16.93-44.73,21.88-70.95.11-.57.22-1.13.31-1.69a329.91,329.91,0,0,0,3.76-74.59c-3.31-52.08-22.39-103.57-49.51-149.66-1.71-2.9-3.5-5.72-5.31-8.47a264.67,264.67,0,0,0-17.45-23.35c-10.68-13-23.89-21.07-33.28-33.08a2.85,2.85,0,0,0-1.43-.82C283-8.63,276.61-20,269-24.6"/><path class="cls-13" d="M278.59,450.21C295,439.39,301.31,430.49,322.21,410c5.2-5.09,10.37-11.28,16-17.82a147.6,147.6,0,0,0,24.31-38.17c9-21.08,18.53-43.28,24.51-68.93.12-.55.25-1.1.36-1.65A325,325,0,0,0,394,210c-1.24-51.5-18.52-103-43.25-149.82-1.55-2.92-3.19-5.77-4.85-8.55a285.33,285.33,0,0,0-16-23.67c-9.78-13.23-20.42-23.08-30.52-33.79a1.51,1.51,0,0,0-1.31-.78c-6.84-3.35-13.3-14.45-20.63-19"/><path class="cls-14" d="M267.07,445.23c17.66-11,22.59-19.43,44.29-39.44,5.32-4.91,10.64-10.94,16.5-17.22,10-10.75,19.21-23.26,25.55-36.83,9.6-20.57,20.13-41.83,27.13-66.92.15-.53.3-1.07.43-1.61a320.63,320.63,0,0,0,9.47-72.37c.8-50.91-14.65-102.5-37-150-1.39-2.95-2.88-5.82-4.39-8.64-4.73-8.8-9.72-16.61-14.57-24-8.87-13.5-18.67-23.52-27.76-34.5a1.17,1.17,0,0,0-1.2-.74C299-10.16,293-22.17,286-26.58"/><path class="cls-15" d="M255.56,440.26c18.88-11.13,22.44-19.16,45-38.72,5.43-4.73,10.91-10.59,17-16.62,10.47-10.42,20.16-22.49,26.77-35.49C354.48,329.35,366,309,374,284.52c.17-.52.34-1,.5-1.57a315.87,315.87,0,0,0,12.33-71.26c2.81-50.31-10.81-101.95-30.74-150.12-1.23-3-2.57-5.88-3.94-8.73-4.24-8.86-8.77-16.78-13.12-24.31-8-13.77-16.92-24-25-35.21a.92.92,0,0,0-1.09-.7c-6.16-3-11.79-15.88-18.47-20.19"/><path class="cls-16" d="M244,435.29c20.1-11.28,22.29-18.89,45.63-38,5.55-4.54,11.19-10.24,17.44-16,10.92-10.09,21.13-21.73,28-34.15,10.84-19.59,23.32-38.94,32.38-62.89.2-.51.39-1,.56-1.54a309.78,309.78,0,0,0,15.19-70.15c4.81-49.7-7-101.37-24.48-150.28-1.08-3-2.27-5.93-3.48-8.8-3.76-8.93-7.82-17-11.68-24.64-7.06-14-15.18-24.39-22.24-35.92-.07-.74-.89-.82-1-.66-5.83-2.77-11-16.6-17.41-20.8"/><path class="cls-17" d="M232.53,430.31c21.32-11.43,22.12-18.62,46.29-37.28,5.66-4.36,11.48-9.89,17.92-15.41,11.37-9.76,22.1-21,29.23-32.81,11.49-19.1,24.92-37.5,35-60.88.21-.5.42-1,.62-1.5a304,304,0,0,0,18-69C386.44,164.3,376.52,112.6,361.43,63c-.92-3-2-6-3-8.89-3.29-9-6.88-17.14-10.24-25C342,14.8,334.74,4.28,328.69-7.52c0-.77-.84-.83-.86-.62-5.49-2.58-10.29-17.31-16.33-21.42"/><path class="cls-18" d="M221,425.34c22.55-11.59,22-18.37,47-36.56,5.76-4.19,11.75-9.54,18.38-14.81,11.83-9.42,23.09-20.19,30.47-31.48,12.15-18.6,26.51-36,37.64-58.86.23-.48.47-1,.68-1.45a297.35,297.35,0,0,0,20.9-67.94c8.74-48.47.68-100.18-12-150.58-.77-3-1.65-6-2.57-9-2.8-9-5.92-17.31-8.79-25.28C347.49,14.82,341.05,4.14,336-7.94c.05-.81-.79-.84-.75-.57-5.15-2.4-9.54-18-15.25-22"/><path class="cls-19" d="M209.5,420.37c23.76-11.75,21.76-18.13,47.63-35.84,5.87-4,12-9.18,18.86-14.21,12.28-9.08,24.09-19.41,31.7-30.14,12.83-18.11,28.09-34.59,40.26-56.84.26-.47.51-.94.75-1.42a290.7,290.7,0,0,0,23.75-66.83c10.67-47.85,4.47-99.57-5.7-150.74-.61-3.06-1.35-6.08-2.11-9.06-2.33-9.08-5-17.48-7.35-25.6C353,14.84,347.36,4,343.33-8.37c.11-.84-.74-.84-.63-.52-4.82-2.2-8.79-18.75-14.18-22.65"/><path class="cls-20" d="M198,415.4c25-11.91,21.57-17.9,48.31-35.12,6-3.85,12.32-8.83,19.32-13.61,12.75-8.73,25.12-18.63,32.93-28.8,13.54-17.62,29.68-33.15,42.89-54.83.28-.46.56-.91.82-1.38a284.63,284.63,0,0,0,26.6-65.72c12.57-47.23,8.25-99,.56-150.89-.46-3.08-1-6.13-1.65-9.14-1.86-9.14-4-17.66-5.91-25.92-3.43-15.13-8.19-26.15-11.2-38.78.18-.88-.69-.85-.52-.48-4.48-2-8-19.46-13.1-23.26"/><path class="cls-21" d="M186.47,410.42c26.21-12.06,21.36-17.67,49-34.4,6.06-3.67,12.62-8.46,19.79-13,13.23-8.37,26.16-17.84,34.17-27.45,14.26-17.11,31.25-31.71,45.51-52.82.3-.44.6-.88.88-1.34a277.93,277.93,0,0,0,29.46-64.61c14.45-46.62,12-98.33,6.81-151-.3-3.1-.73-6.17-1.19-9.22-1.38-9.19-3.08-17.83-4.46-26.24C363.89,14.88,360,3.7,358-9.21c.24-.92-.64-.86-.41-.44-4.15-1.82-7.28-20.18-12-23.87"/><path class="cls-22" d="M175,405.45c27.43-12.22,21.16-17.47,49.65-33.68,6.16-3.5,12.9-8.1,20.26-12.41,13.69-8,27.2-17.05,35.39-26.11,15-16.6,32.83-30.26,48.15-50.81.32-.43.64-.86.94-1.3a272.22,272.22,0,0,0,32.32-63.5c16.3-46,15.72-97.71,13.06-151.2-.15-3.12-.43-6.23-.73-9.31-.92-9.24-2.13-18-3-26.56-1.62-15.67-4.69-27-5.68-40.2.3-1-.58-.87-.29-.4-3.82-1.63-6.54-20.89-10.95-24.48"/><path class="cls-23" d="M163.44,400.48c28.65-12.38,20.94-17.28,50.31-33,6.26-3.34,13.2-7.73,20.73-11.81,14.17-7.66,28.26-16.25,36.63-24.78,15.77-16.06,34.4-28.82,50.77-48.78.34-.42.68-.84,1-1.27a265.69,265.69,0,0,0,35.18-62.4c18.14-45.41,19.43-97.08,19.32-151.34,0-3.14-.12-6.28-.27-9.4-.45-9.29-1.19-18.17-1.58-26.88-.71-15.94-5.28-27.66-2.92-40.91.19-1-.53-.88-.18-.36-3.48-1.43-5.78-21.6-9.87-25.1"/><path class="cls-24" d="M151.92,395.5c29.88-12.53,20.73-17.09,51-32.23,6.35-3.18,13.49-7.37,21.2-11.21,14.64-7.29,29.32-15.43,37.86-23.44,16.55-15.52,36-27.38,53.39-46.77.36-.4.72-.81,1.07-1.23a260.42,260.42,0,0,0,38-61.29c20-44.83,23.12-96.46,25.58-151.5.15-3.16.18-6.32.18-9.47,0-9.35-.24-18.35-.13-27.21.2-16.21-3.35-28.23-.16-41.62.26-1.09-.48-.89-.07-.32-3.14-1.24-5-22.32-8.79-25.71"/><path class="cls-25" d="M140.41,390.53c31.09-12.69,20.5-16.92,51.65-31.51,6.45-3,13.78-7,21.67-10.61,15.11-6.92,30.4-14.61,39.09-22.1,17.35-14.95,37.54-25.95,56-44.76.38-.39.77-.78,1.14-1.18a255.84,255.84,0,0,0,40.88-60.19c21.77-44.26,26.79-95.85,31.84-151.65.29-3.18.48-6.37.64-9.56.47-9.4.71-18.52,1.31-27.53,1.1-16.47-1.41-28.76,2.6-42.33.33-1.13-.43-.9.05-.28-2.81-1.05-4.28-23-7.72-26.32"/><path class="cls-26" d="M128.9,385.56c32.31-12.85,20.27-16.77,52.31-30.8,6.55-2.86,14.08-6.62,22.15-10,15.58-6.54,31.48-13.78,40.32-20.76,18.17-14.36,39.11-24.52,58.64-42.75q.62-.56,1.2-1.14A251.28,251.28,0,0,0,347.26,221c23.57-43.71,30.44-95.26,38.1-151.8.44-3.21.78-6.43,1.1-9.65.93-9.45,1.65-18.69,2.75-27.85,2-16.74.53-29.26,5.36-43,.41-1.17-.38-.91.16-.23-2.47-.87-3.53-23.76-6.65-26.94"/><path class="cls-27" d="M117.38,380.58c33.53-13,20.05-16.62,53-30.07,6.64-2.71,14.37-6.24,22.61-9.4,16.06-6.16,32.57-12.93,41.55-19.43,19-13.73,40.68-23.08,61.28-40.72.42-.37.85-.73,1.26-1.11a247.2,247.2,0,0,0,46.59-58c25.35-43.17,34.08-94.67,44.36-152,.58-3.22,1.08-6.47,1.55-9.73,1.39-9.5,2.61-18.87,4.2-28.17,2.92-17,2.47-29.74,8.12-43.75.49-1.21-.33-.92.27-.19-2.13-.67-2.77-24.47-5.57-27.55"/><path class="cls-28" d="M105.87,375.61c34.75-13.16,19.82-16.49,53.65-29.35,6.74-2.56,14.66-5.86,23.08-8.8,16.54-5.77,33.67-12.08,42.79-18.09,19.84-13.07,42.24-21.65,63.9-38.71.44-.35.89-.7,1.33-1.07a244.1,244.1,0,0,0,49.44-56.86c27.13-42.64,37.7-94.09,50.62-152.11.73-3.25,1.38-6.52,2-9.81,1.84-9.57,3.55-19.05,5.64-28.5,3.82-17.28,4.41-30.19,10.88-44.47.56-1.24-.28-.92.39-.14-1.8-.48-2-25.19-4.5-28.16"/><path class="cls-29" d="M94.35,370.64c36-13.32,19.6-16.38,54.33-28.63,6.83-2.41,14.95-5.49,23.55-8.2,17-5.38,34.76-11.21,44-16.75,20.69-12.39,43.8-20.23,66.52-36.7.47-.33.93-.67,1.39-1a241.56,241.56,0,0,0,52.31-55.75c28.89-42.13,41.3-93.53,56.87-152.26.87-3.28,1.67-6.58,2.47-9.9,2.29-9.62,4.5-19.22,7.08-28.81,4.73-17.56,6.34-30.63,13.64-45.19.64-1.27-.23-.93.5-.1-1.46-.29-1.27-25.9-3.42-28.78"/><path class="cls-30" d="M82.84,365.66c37.19-13.47,19.37-16.27,55-27.9,6.93-2.27,15.25-5.1,24-7.6,17.49-5,35.85-10.32,45.25-15.41,21.55-11.67,45.37-18.81,69.15-34.68.49-.33,1-.65,1.46-1,18.27-13,36.93-29.88,55.16-54.64,30.66-41.64,44.9-93,63.13-152.42,1-3.29,2-6.62,2.92-10,2.75-9.68,5.45-19.39,8.53-29.13,5.64-17.83,8.26-31,16.4-45.9.72-1.31-.17-.94.61-.06-1.12-.09-.52-26.61-2.34-29.39"/><path class="cls-31" d="M71.32,360.69c38.42-13.63,19.15-16.18,55.67-27.19,7-2.11,15.53-4.71,24.49-7,18-4.58,36.94-9.43,46.48-14.07,22.4-10.91,46.93-17.4,71.77-32.67l1.52-.95c19.05-12.42,38.61-28.9,58-53.54,32.42-41.16,48.5-92.45,69.39-152.57q1.72-5,3.38-10.07c3.2-9.74,6.4-19.56,10-29.45,6.54-18.1,10.18-31.43,19.16-46.61.79-1.34-.12-.95.73,0-.79.1.23-27.33-1.27-30"/><path class="cls-32" d="M59.81,355.72c39.64-13.79,18.92-16.11,56.33-26.47,7.12-2,15.82-4.33,25-6.39,18.43-4.18,38-8.52,47.72-12.74,23.25-10.12,48.5-16,74.4-30.65l1.58-.91c19.81-11.85,40.28-27.92,60.87-52.43,34.18-40.7,52.09-91.92,75.65-152.73,1.3-3.34,2.56-6.73,3.84-10.14,3.65-9.81,7.34-19.74,11.41-29.78C424,15.11,428.66,1.66,438.49-13.84c.87-1.37-.07-1,.84,0-.45.29,1-28-.19-30.61"/><path class="cls-33" d="M48.29,350.74c40.86-13.94,18.7-16,57-25.74,7.22-1.83,16.11-3.94,25.43-5.8,18.9-3.76,39.1-7.59,48.94-11.39,24.1-9.29,50.07-14.56,77-28.64l1.65-.87C278.93,267,300.3,251.36,322.07,227,358,186.73,377.75,135.56,404,74.1c1.44-3.37,2.86-6.78,4.29-10.23,4.11-9.87,8.3-19.91,12.86-30.1,8.36-18.64,14-32.18,24.68-48,.94-1.4,0-1,.95.06-.11.48,1.74-28.76.89-31.22"/><path class="cls-34" d="M36.78,345.77c42.08-14.1,18.48-16,57.67-25,7.32-1.69,16.4-3.55,25.9-5.2,19.37-3.35,40.18-6.67,50.18-10.05,24.94-8.44,51.63-13.16,79.65-26.62l1.71-.84c21.36-10.73,43.63-26,66.58-50.21,37.71-39.81,59.27-90.92,88.17-153q2.37-5.1,4.75-10.32c4.55-9.93,9.24-20.08,14.3-30.42C435,15.15,441.57,1.52,453.13-14.68c1-1.44,0-1,1.07.11.21.67,2.48-29.48,2-31.84"/><path class="cls-35" d="M25.26,340.8c43.31-14.26,18.27-15.93,58.34-24.3C91,315,100.29,313.34,110,311.9c19.84-2.93,41.24-5.73,51.41-8.71,25.77-7.56,53.19-11.8,82.28-24.61l1.78-.8c22.13-10.18,45.3-25,69.43-49.1,39.48-39.39,62.85-90.43,94.43-153.19q2.58-5.13,5.21-10.4c5-10,10.18-20.25,15.74-30.74C440.42,15.17,448,1.46,460.45-15.1c1.09-1.47.2-1.1,1.18.15.64.8,3.24-30.19,3-32.45"/><path class="cls-36" d="M13.75,335.82c44.52-14.41,18.06-15.88,59-23.58,7.52-1.41,17-2.76,26.84-4,20.29-2.52,42.29-4.79,52.64-7.38,26.57-6.64,54.76-10.36,84.91-22.59l1.83-.76c22.91-9.63,47-24.07,72.3-48,41.24-39,66.43-90,100.68-153.34,1.87-3.45,3.74-7,5.66-10.48,5.44-10.09,11.14-20.44,17.19-31.07,11.08-19.45,19.65-33.23,33-50.16,1.17-1.5.18-1.05,1.3.19.92,1,4-30.91,4.1-33.07"/><path class="cls-37" d="M2.23,330.85C48,316.28,20.09,315,61.91,308c23.36-3.91,65.54-6.16,81.19-9.43,48.65-10.15,102.39-12.43,164.58-68.18,52-46.66,80.62-111.37,131.69-195.45,12-19.72,21.52-33.58,35.72-50.88,1.24-1.52.18-1,1.41.24s4.74-31.62,5.18-33.68"/><path class="cls-38" d="M155.05,14.93h-3v8.18h-1.22V14.93h-3v-1h7.15Z"/><path class="cls-38" d="M162,19.78a4.09,4.09,0,0,1-.71,2.5,2.3,2.3,0,0,1-1.95.95,2.53,2.53,0,0,1-2-.78v3.28h-1.18V16.3h1.08l.05.75a2.47,2.47,0,0,1,2-.88,2.34,2.34,0,0,1,1.95.93,4.07,4.07,0,0,1,.72,2.57Zm-1.17-.13a3,3,0,0,0-.5-1.82,1.57,1.57,0,0,0-1.35-.67,1.72,1.72,0,0,0-1.6.94v3.25a1.73,1.73,0,0,0,1.61.93,1.59,1.59,0,0,0,1.34-.66A3.27,3.27,0,0,0,160.86,19.65Z"/><path class="cls-38" d="M163.21,19.64a4,4,0,0,1,.4-1.8,3,3,0,0,1,1.11-1.23,3,3,0,0,1,1.61-.44,2.89,2.89,0,0,1,2.27,1,3.66,3.66,0,0,1,.87,2.56v.08a4,4,0,0,1-.39,1.78A2.84,2.84,0,0,1,168,22.79a3,3,0,0,1-1.65.44,2.9,2.9,0,0,1-2.26-1,3.65,3.65,0,0,1-.87-2.55Zm1.19.14a2.87,2.87,0,0,0,.53,1.82,1.7,1.7,0,0,0,1.41.68,1.72,1.72,0,0,0,1.43-.69,3.2,3.2,0,0,0,.52-1.95,3,3,0,0,0-.53-1.82,1.73,1.73,0,0,0-1.43-.69,1.68,1.68,0,0,0-1.4.69A3.09,3.09,0,0,0,164.4,19.78Z"/><path class="cls-38" d="M176.57,16.3v6.81h-1.18V17.26h-2.34l-.14,2.55a5.5,5.5,0,0,1-.59,2.51,1.75,1.75,0,0,1-1.52.79h-.47v-1l.34,0a1,1,0,0,0,.82-.66,7.28,7.28,0,0,0,.31-2.19l.13-2.91Z"/><path class="cls-38" d="M184.08,16.3v6.81H182.9V17.26h-2.33l-.14,2.55a5.77,5.77,0,0,1-.59,2.51,1.75,1.75,0,0,1-1.53.79h-.47v-1l.34,0a1,1,0,0,0,.82-.66,7.2,7.2,0,0,0,.32-2.19l.12-2.91Z"/><path class="cls-38" d="M188.82,23.23a3,3,0,0,1-2.27-.91,3.31,3.31,0,0,1-.88-2.43v-.21a4,4,0,0,1,.39-1.81,3.09,3.09,0,0,1,1.09-1.25,2.78,2.78,0,0,1,1.52-.45,2.58,2.58,0,0,1,2.09.88,3.79,3.79,0,0,1,.74,2.5V20h-4.65a2.35,2.35,0,0,0,.59,1.62,1.85,1.85,0,0,0,1.44.62,2.05,2.05,0,0,0,1.06-.25,2.64,2.64,0,0,0,.75-.67l.72.56A2.89,2.89,0,0,1,188.82,23.23Zm-.15-6.1a1.57,1.57,0,0,0-1.19.51,2.51,2.51,0,0,0-.6,1.44h3.44V19a2.15,2.15,0,0,0-.48-1.37A1.48,1.48,0,0,0,188.67,17.13Z"/><path class="cls-38" d="M197.3,16.3h1.17v6.81H197.3v-5l-3.17,5H193V16.3h1.17v5Zm.32-2.49a1.57,1.57,0,0,1-.53,1.23,2,2,0,0,1-1.37.47,2,2,0,0,1-1.38-.47,1.57,1.57,0,0,1-.53-1.23h1a.93.93,0,0,0,.24.69,1,1,0,0,0,.71.25.87.87,0,0,0,.94-.94Z"/><path class="cls-38" d="M203.37,16.69a2.64,2.64,0,0,1,2.08.86,3.26,3.26,0,0,1,.77,2.26v.11a3.84,3.84,0,0,1-.37,1.72,2.8,2.8,0,0,1-1.08,1.18,3.13,3.13,0,0,1-1.61.41,2.89,2.89,0,0,1-2.23-.91,3.5,3.5,0,0,1-.84-2.46v-.57a6.28,6.28,0,0,1,.8-3.41,3.37,3.37,0,0,1,2.37-1.54,3.15,3.15,0,0,0,1.2-.38.73.73,0,0,0,.31-.63h1a1.88,1.88,0,0,1-.36,1.23,2,2,0,0,1-1.15.62l-.88.2a3,3,0,0,0-1.57.83,3,3,0,0,0-.68,1.55A2.91,2.91,0,0,1,203.37,16.69Zm-.22,1a1.76,1.76,0,0,0-1.38.57,2.38,2.38,0,0,0-.5,1.6v.1a2.68,2.68,0,0,0,.51,1.73,1.81,1.81,0,0,0,2.76,0,3,3,0,0,0,.51-1.88,2.25,2.25,0,0,0-.51-1.54A1.75,1.75,0,0,0,203.15,17.65Z"/><path class="cls-38" d="M209.79,21.4l1.6-5.1h1.26l-2.76,7.86c-.43,1.13-1.11,1.7-2,1.7l-.22,0-.44-.08v-1l.32,0a1.6,1.6,0,0,0,.93-.24,1.71,1.71,0,0,0,.54-.87l.26-.7-2.45-6.73h1.29Z"/><path class="cls-38" d="M216.45,22.28a1.72,1.72,0,0,0,1.1-.37,1.38,1.38,0,0,0,.52-.95h1.11a2.14,2.14,0,0,1-.41,1.12,2.66,2.66,0,0,1-1,.84,3.09,3.09,0,0,1-3.55-.61,3.7,3.7,0,0,1-.83-2.54v-.2a4,4,0,0,1,.37-1.77,2.85,2.85,0,0,1,1.05-1.2,3,3,0,0,1,1.63-.43,2.76,2.76,0,0,1,1.92.69,2.47,2.47,0,0,1,.82,1.78h-1.11a1.67,1.67,0,0,0-.51-1.09,1.57,1.57,0,0,0-1.12-.42,1.62,1.62,0,0,0-1.38.64,2.94,2.94,0,0,0-.5,1.84v.23a3,3,0,0,0,.49,1.81A1.67,1.67,0,0,0,216.45,22.28Z"/><path class="cls-38" d="M234.59,17.26h-3.17v5.85h-1.18V16.3h4.35Z"/><path class="cls-38" d="M235.63,22.5a.76.76,0,0,1,.18-.51.7.7,0,0,1,.54-.2.67.67,0,0,1,.74.71.65.65,0,0,1-.19.48.73.73,0,0,1-.55.2.7.7,0,0,1-.54-.2A.68.68,0,0,1,235.63,22.5Z"/><path class="cls-38" d="M245,13.94h1.21v9.17H245V16.05l-4.55,7.06h-1.23V13.94h1.23V21Z"/><path class="cls-38" d="M248.4,23.11V16.3h2.68a3.94,3.94,0,0,1,2.1.47,1.56,1.56,0,0,1,.74,1.4,1.39,1.39,0,0,1-.29.85,1.76,1.76,0,0,1-.84.58,2,2,0,0,1,1,.57,1.47,1.47,0,0,1,.37,1,1.66,1.66,0,0,1-.69,1.43,3.35,3.35,0,0,1-2,.5Zm1.17-3.92h1.52q1.65,0,1.65-1t-1.56-1h-1.61Zm0,.93v2.05h2a1.86,1.86,0,0,0,1.1-.27.89.89,0,0,0,.36-.76c0-.68-.5-1-1.51-1Z"/><path class="cls-38" d="M260,23.11a2.35,2.35,0,0,1-.17-.72,2.61,2.61,0,0,1-2,.84,2.45,2.45,0,0,1-1.67-.57,1.84,1.84,0,0,1-.65-1.44,1.9,1.9,0,0,1,.82-1.65,3.88,3.88,0,0,1,2.29-.59h1.14v-.54a1.32,1.32,0,0,0-.36-1,1.51,1.51,0,0,0-1.09-.36,1.7,1.7,0,0,0-1.05.32.9.9,0,0,0-.43.76h-1.18a1.59,1.59,0,0,1,.37-1,2.37,2.37,0,0,1,1-.75,3.23,3.23,0,0,1,1.37-.28,2.75,2.75,0,0,1,1.86.59,2.11,2.11,0,0,1,.7,1.62v3.14a3.83,3.83,0,0,0,.24,1.49v.1ZM258,22.22a2.07,2.07,0,0,0,1.05-.28,1.68,1.68,0,0,0,.71-.74V19.8h-.92c-1.43,0-2.15.42-2.15,1.26a1.05,1.05,0,0,0,.36.85A1.41,1.41,0,0,0,258,22.22Z"/><path class="cls-38" d="M268.4,23.11h-1.17V20.2h-3.16v2.91h-1.18V16.3h1.18v2.95h3.16V16.3h1.17Z"/><path class="cls-38" d="M270,19.64a4,4,0,0,1,.4-1.8,2.93,2.93,0,0,1,1.1-1.23,3,3,0,0,1,1.62-.44,2.9,2.9,0,0,1,2.27,1,3.66,3.66,0,0,1,.86,2.56v.08a3.94,3.94,0,0,1-.38,1.78,2.86,2.86,0,0,1-1.1,1.23,3,3,0,0,1-1.64.44,2.9,2.9,0,0,1-2.26-1,3.65,3.65,0,0,1-.87-2.55Zm1.18.14a2.94,2.94,0,0,0,.53,1.82,1.73,1.73,0,0,0,1.42.68,1.69,1.69,0,0,0,1.42-.69,3.2,3.2,0,0,0,.53-1.95,2.9,2.9,0,0,0-.54-1.82,1.7,1.7,0,0,0-1.42-.69,1.68,1.68,0,0,0-1.4.69A3.09,3.09,0,0,0,271.15,19.78Z"/><path class="cls-38" d="M277.8,23.11V16.3h2.68a4,4,0,0,1,2.11.47,1.56,1.56,0,0,1,.73,1.4A1.39,1.39,0,0,1,283,19a1.76,1.76,0,0,1-.84.58,1.92,1.92,0,0,1,1,.57,1.47,1.47,0,0,1,.38,1,1.64,1.64,0,0,1-.7,1.43,3.34,3.34,0,0,1-2,.5ZM279,19.19h1.51c1.11,0,1.66-.32,1.66-1s-.53-1-1.57-1H279Zm0,.93v2.05h1.94a1.84,1.84,0,0,0,1.1-.27.87.87,0,0,0,.37-.76c0-.68-.51-1-1.51-1Z"/><path class="cls-38" d="M284.81,19.64a3.91,3.91,0,0,1,.4-1.8,2.93,2.93,0,0,1,1.1-1.23,3,3,0,0,1,1.62-.44,2.9,2.9,0,0,1,2.27,1,3.7,3.7,0,0,1,.86,2.56v.08a3.94,3.94,0,0,1-.38,1.78,2.86,2.86,0,0,1-1.1,1.23,3,3,0,0,1-1.64.44,2.9,2.9,0,0,1-2.26-1,3.65,3.65,0,0,1-.87-2.55Zm1.18.14a2.94,2.94,0,0,0,.53,1.82,1.73,1.73,0,0,0,1.42.68,1.69,1.69,0,0,0,1.42-.69,3.2,3.2,0,0,0,.53-1.95,2.9,2.9,0,0,0-.54-1.82,1.8,1.8,0,0,0-2.83,0A3.16,3.16,0,0,0,286,19.78Z"/><path class="cls-38" d="M304,13.94l3,7.48,3-7.48h1.58v9.17h-1.22V19.54l.11-3.85-3,7.42h-.93l-3-7.4.12,3.83v3.57h-1.22V13.94Z"/><path class="cls-38" d="M316.89,19.26,319,13.94h1.42l-3.27,7.64a3.81,3.81,0,0,1-.62,1,1.85,1.85,0,0,1-.67.47,2.41,2.41,0,0,1-1,.16,2.06,2.06,0,0,1-.64-.06l0-.95.58,0a1.06,1.06,0,0,0,1-.63l.15-.33.24-.56-3.14-6.79h1.36Z"/><path class="cls-38" d="M329,23.11h-1.23V14.93h-4.55v8.18H322V13.94h7Z"/><path class="cls-38" d="M335.09,19.66l1.63,2.5h-.89L334,19.72V19.6l1.87-2.45h.89Zm2.09,0,1.64,2.5h-.9l-1.87-2.44V19.6l1.87-2.45h.9Z"/><path class="cls-38" d="M346.31,13.94h1.22v9.17h-1.22V16.05l-4.55,7.06h-1.23V13.94h1.23V21Z"/><path class="cls-38" d="M356.81,23.11h-1.23V14.93H351v8.18H349.8V13.94h7Z"/><path class="cls-38" d="M365.41,14.93h-3v8.18h-1.22V14.93h-3v-1h7.15Z"/><path class="cls-38" d="M367.25,17.14l1.87,2.44v.12l-1.87,2.45h-.9l1.64-2.5-1.64-2.51Zm2.22,0,1.87,2.44v.12l-1.87,2.45h-.9l1.63-2.5-1.63-2.51Z"/><path class="cls-39" d="M66.39,14.07H60.51v0a4.39,4.39,0,0,0,3.95,2.59h0l25.19-.07L90.25,14Z"/><path class="cls-40" d="M66.39,14.07H60.51v0a4.39,4.39,0,0,0,3.95,2.59h0l25.19-.07L90.25,14Z"/><path class="cls-39" d="M72.33,16.77l-5.63,0v0a4.42,4.42,0,0,0,4,2.6h24l1.12-2.67Z"/><path class="cls-40" d="M72.33,16.77l-5.63,0v0a4.42,4.42,0,0,0,4,2.6h24l1.12-2.67Z"/><path class="cls-39" d="M78.77,19.5l-5.63,0v0a4.4,4.4,0,0,0,3.95,2.6h24l1.12-2.67Z"/><path class="cls-40" d="M78.77,19.5l-5.63,0v0a4.4,4.4,0,0,0,3.95,2.6h24l1.12-2.67Z"/><path class="cls-39" d="M102.73,24.79l0-2.46L90,22.21l0,0-7.93,0v0a4.39,4.39,0,0,0,4,2.6h16.67Z"/><path class="cls-40" d="M102.73,24.79l0-2.46L90,22.21l0,0-7.93,0v0a4.39,4.39,0,0,0,4,2.6h16.67Z"/><path class="cls-39" d="M130.21,14.19,106,14.13l.64,2.64,25.2,0h0a4.42,4.42,0,0,0,4-2.6v0Z"/><path class="cls-40" d="M130.21,14.19,106,14.13l.64,2.64,25.2,0h0a4.42,4.42,0,0,0,4-2.6v0Z"/><path class="cls-39" d="M124,16.88l-23.41-.05,1.13,2.68h23.94a4.41,4.41,0,0,0,4-2.59v0Z"/><path class="cls-40" d="M124,16.88l-23.41-.05,1.13,2.68h23.94a4.41,4.41,0,0,0,4-2.59v0Z"/><path class="cls-39" d="M117.52,19.61l-23.4-.05,1.12,2.68h24a4.41,4.41,0,0,0,4-2.59v0Z"/><path class="cls-40" d="M117.52,19.61l-23.4-.05,1.12,2.68h24a4.41,4.41,0,0,0,4-2.59v0Z"/><path class="cls-39" d="M106.26,22.29s0,0,0,0l-12.68.13,0,2.46h16.66a4.41,4.41,0,0,0,4-2.59v0Z"/><path class="cls-40" d="M106.26,22.29s0,0,0,0l-12.68.13,0,2.46h16.66a4.41,4.41,0,0,0,4-2.59v0Z"/><g class="cls-41"><g class="cls-42"><g class="cls-43"><path class="cls-44" d="M87.53,20.58c0-6.28,4.76-11.38,10.62-11.38s10.61,5.1,10.61,11.38S104,32,98.15,32,87.53,26.87,87.53,20.58"/><path class="cls-45" d="M87.53,20.58c0-6.28,4.76-11.38,10.62-11.38s10.61,5.1,10.61,11.38S104,32,98.15,32,87.53,26.87,87.53,20.58Z"/></g></g></g><path class="cls-39" d="M89.67,20.58c0-5,3.79-9.09,8.48-9.09s8.47,4.07,8.47,9.09-3.79,9.09-8.47,9.09-8.48-4.07-8.48-9.09"/><path class="cls-45" d="M89.67,20.58c0-5,3.79-9.09,8.48-9.09s8.47,4.07,8.47,9.09-3.79,9.09-8.47,9.09S89.67,25.6,89.67,20.58Z"/><path d="M94.67,24.26V16.83a.72.72,0,0,1,.69-.74h5.42a.72.72,0,0,1,.69.74v7.43a.72.72,0,0,1-.69.74H95.36a.72.72,0,0,1-.69-.74"/><path d="M94.3,23.57V17.44a.51.51,0,0,1,.49-.53h6.56a.51.51,0,0,1,.49.53v6.13a.51.51,0,0,1-.49.53H94.79a.51.51,0,0,1-.49-.53"/><path class="cls-39" d="M94.67,21.1V18.6a.62.62,0,0,1,.6-.64h5.6a.62.62,0,0,1,.6.64v2.5a.62.62,0,0,1-.6.64h-5.6a.62.62,0,0,1-.6-.64"/><path class="cls-46" d="M95.12,23.54h0a.33.33,0,0,1,.32-.34h.39a.33.33,0,0,1,.32.34h0a.33.33,0,0,1-.32.34h-.39a.33.33,0,0,1-.32-.34"/><path class="cls-45" d="M95.12,23.54h0a.33.33,0,0,1,.32-.34h.39a.33.33,0,0,1,.32.34h0a.33.33,0,0,1-.32.34h-.39A.33.33,0,0,1,95.12,23.54Z"/><path class="cls-46" d="M100,23.57V23.5a.3.3,0,0,1,.29-.31h.49a.26.26,0,0,1,.25.27v.15a.26.26,0,0,1-.25.27h-.49a.3.3,0,0,1-.29-.31"/><path class="cls-45" d="M100,23.57V23.5a.3.3,0,0,1,.29-.31h.49a.26.26,0,0,1,.25.27v.15a.26.26,0,0,1-.25.27h-.49A.3.3,0,0,1,100,23.57Z"/><path class="cls-44" d="M95.56,16.78h0a.26.26,0,0,1,.25-.27h4.52a.26.26,0,0,1,.25.27h0a.26.26,0,0,1-.25.27H95.81a.26.26,0,0,1-.25-.27"/><path d="M101.84,19.33V18.6a.25.25,0,0,1,.24-.26h0a.25.25,0,0,1,.24.26v.73a.24.24,0,0,1-.24.25h0a.25.25,0,0,1-.24-.25"/><path d="M93.82,19.33V18.6a.25.25,0,0,1,.24-.26h0a.25.25,0,0,1,.24.26v.73a.25.25,0,0,1-.24.25h0a.24.24,0,0,1-.24-.25"/><path d="M95.18,25.27V25h.9v.27a.42.42,0,0,1-.4.44h-.09a.43.43,0,0,1-.41-.44"/><path d="M100.13,25.27V25h.9v.27a.42.42,0,0,1-.4.44h-.09a.43.43,0,0,1-.41-.44"/><path d="M97.61,16.08l2.45-4.27a.15.15,0,0,1,.22-.06h0a.18.18,0,0,1,0,.24l-2.44,4.27a.15.15,0,0,1-.22.06h0a.19.19,0,0,1-.06-.24"/><path d="M98.48,16l2.28-4A.15.15,0,0,1,101,12h0a.16.16,0,0,1,0,.23l-2.27,4a.16.16,0,0,1-.22.06h0a.2.2,0,0,1,0-.24"/><polygon class="cls-46" points="114.83 16.45 111.8 21.49 114.82 19.08 115.24 19.89 118.36 15.2 115.18 17.49 114.83 16.45"/><polygon class="cls-40" points="114.83 16.45 111.8 21.49 114.82 19.08 115.24 19.89 118.36 15.2 115.18 17.49 114.83 16.45"/><polygon class="cls-46" points="81.47 16.45 84.5 21.49 81.48 19.08 81.05 19.89 77.93 15.2 81.11 17.49 81.47 16.45"/><polygon class="cls-45" points="81.47 16.45 84.5 21.49 81.48 19.08 81.05 19.89 77.93 15.2 81.11 17.49 81.47 16.45"/></g></svg>